<svg height="48" width="48" viewBox="0 0 500 500" xmlns="http://www.w3.org/2000/svg"><path fill="transparent" d="M0 0h500v500H0V0z"/><circle cx="250" cy="250" r="250" fill="#7B2800"/><circle cx="250" cy="250" r="210" fill="#9B481A" fill-opacity=".5"/><circle cx="250" cy="250" r="225" fill="#9B481A" fill-opacity=".3"/><circle cx="250" cy="250" r="240" fill="#9B481A" fill-opacity=".2"/><circle cx="250" cy="250" r="200" fill="#9B481A"/><circle cx="375" cy="120" r="125" fill="rgba(255, 243, 224, 1)"/><path fill="#424242" d="M387 31.5h-27c-7.65 0-13.5 5.85-13.5 13.5v13.5h9V45c0-2.7 1.8-4.5 4.5-4.5h27c2.7 0 4.5 1.8 4.5 4.5v13.5h9V45c0-7.65-5.85-13.5-13.5-13.5z"/><path fill="#E65100" d="M445.5 193.5h-144c-9.9 0-18-8.1-18-18v-108c0-9.9 8.1-18 18-18h144c9.9 0 18 8.1 18 18v108c0 9.9-8.1 18-18 18z"/><path fill="#FF6E40" d="M445.5 126h-144c-9.9 0-18-8.1-18-18V67.5c0-9.9 8.1-18 18-18h144c9.9 0 18 8.1 18 18V108c0 9.9-8.1 18-18 18z"/><path fill="#FFF3E0" d="M382.5 117h-18c-2.7 0-4.5-1.8-4.5-4.5v-9c0-2.7 1.8-4.5 4.5-4.5h18c2.7 0 4.5 1.8 4.5 4.5v9c0 2.7-1.8 4.5-4.5 4.5z"/></svg>