<svg xmlns="http://www.w3.org/2000/svg" viewBox="0 0 260 215.375" id="parks-logo">
  <g transform="matrix(1.25,0,0,-1.25,0,215.375)" id="g10">
    <g transform="scale(0.1,0.1)" id="g12">
      <path id="path138" style="fill:#fff;fill-opacity:0.9;fill-rule:nonzero;stroke:none" d="M 2073.08,455.898 0,460.551 1.78125,1250.22 2074.85,1245.57 2073.08,455.898" />
      <path id="path140" style="fill:#57ac35;fill-opacity:1;fill-rule:nonzero;stroke:none" d="m 1184.46,1692.88 c 24.2,-16.18 25.55,-55.52 64.63,-59 33.67,-19.68 0,-53.27 25.56,-74.02 10.77,24.29 2.74,61.32 32.33,74.02 16.15,-11.57 49.82,2.3 55.21,-21.95 17.52,11.52 41.7,3.45 57.88,-8.16 4.06,-3.43 4.06,-8.02 9.46,-11.56 -2.71,-21.98 -74.11,-18.49 -29.66,-46.31 22.86,-23.11 -33.64,-17.32 -21.49,-45.11 33.6,1.19 30.92,-33.54 53.81,-41.65 -1.34,-15.01 -14.84,-39.39 4.02,-49.78 36.4,-16.16 12.12,28.93 32.33,41.66 26.95,11.57 -4.01,25.49 6.69,47.51 32.36,9.2 64.7,27.77 99.68,24.26 8.08,-32.41 63.31,-13.89 55.23,-49.73 -12.16,-9.3 -29.68,-12.74 -25.58,-30.1 13.42,-5.8 37.68,-9.26 37.68,-27.79 -12.1,-67.08 96.92,-96.08 61.93,-166.6 -13.47,-4.69 -32.3,-1.18 -39.08,-13.92 -5.37,-11.61 12.12,-12.81 16.17,-19.72 1.35,-19.64 2.7,-46.29 -25.54,-47.42 -6.76,5.79 -10.8,0 -16.2,-2.32 17.53,-11.59 21.52,-34.72 9.44,-49.76 -32.3,-13.91 -88.83,16.18 -83.52,-33.54 10.78,2.26 28.31,-16.23 41.79,-3.46 41.73,-35.94 22.91,31.19 61.96,25.39 2.68,24.34 14.77,39.42 41.67,47.5 31.01,-3.48 39.1,-35.89 71.38,-39.37 20.2,-9.22 0,-24.31 0,-35.82 -8.09,-3.52 -17.52,-3.52 -22.88,-11.61 28.31,-15.04 13.45,-53.21 12.14,-77.543 24.19,17.353 48.43,-4.629 52.46,-27.793 -17.46,-31.223 20.21,-68.258 -6.7,-99.481 10.73,-11.613 17.51,-28.976 9.37,-45.14 -2.67,-25.477 -67.27,-28.934 -28.23,-60.243 5.39,-24.297 -36.32,-20.761 -29.6,-47.39 -20.22,-10.461 -49.8,-30.11 -78.1,-13.899 -6.74,-8.101 1.33,-22.011 -5.39,-31.25 -18.87,-11.582 -41.77,0 -61.92,0 -25.61,37.071 -102.34,-27.75 -83.46,39.328 -12.16,8.153 -26.92,9.289 -32.34,-5.757 -8.08,-34.68 61.92,-30.114 35.01,-71.75 -18.85,-12.704 -41.75,12.699 -51.14,-3.5 0,-14.454 -21.9,-43.09 -49,-69.403 -27.1,-26.32 -108.56,-45.129 -116.64,-32.398 -13.46,25.48 29.6,63.648 -12.1,77.527 -17.51,-13.879 -44.43,-11.566 -52.53,8.102 4.04,30.101 -14.78,41.66 -41.75,21.941 -13.47,-9.223 -37.67,-16.18 -41.73,3.488 -14.78,30.129 30.95,53.243 18.9,79.903 -59.26,-19.723 -110.45,-52.09 -152.18,-97.231 -28.24,-147.031 -1.37,-299.722 4.05,-452.5 68.66,-46.261 169.63,-38.14 251.74,-39.351 5.41,-4.59 9.43,-15.02 -2.65,-16.192 -96.97,-3.476 -189.9,-10.4489 -288.15,-19.6677 -2.7,-33.5508 -110.381,-12.75 -45.772,-38.1914 l 0,-11.5781 c -52.511,-6.9492 -102.332,-34.710956 -150.781,-8.082 -24.23,6.9531 -47.129,-18.50005 -61.929,2.332 9.417,23.1484 61.929,0 41.73,31.2109 -28.258,-2.2929 -26.93,23.168 -25.594,38.2071 -70.019,-2.2969 -129.219,5.7692 -203.273,3.5112 -2.738,4.559 4.008,6.891 2.676,10.36 99.632,15.082 222.16,1.18 316.398,33.558 4.055,109.961 8.063,218.692 -2.699,333.321 -35.039,78.633 -118.481,134.222 -184.449,194.34 -10.809,10.461 -16.161,49.82 -25.59,16.23 -44.41,9.313 -28.313,-72.891 -41.719,-79.848 -9.441,-2.312 -32.328,-34.73 -45.781,-53.222 -21.574,-8.071 -43.102,-8.071 -64.629,0 -6.699,18.492 -22.863,10.429 -39.055,8.121 -16.824,13.012 -24.906,27.91 -28.988,43.539 -12.262,46.871 11.453,100.25 -57.215,128.863 -13.402,4.668 -28.262,17.328 -43.031,0 -35,17.328 -8.102,55.571 -41.758,77.571 -4.047,-3.504 -9.426,-3.504 -12.106,-8.118 -29.66,4.614 4.024,33.578 -29.66,39.36 -24.187,3.457 -57.871,-33.535 -78.07,0 -1.316,26.64 -16.148,34.711 -44.437,30.078 -37.68,24.281 52.539,59.012 -20.172,55.578 -9.45,10.363 -20.192,27.723 -16.168,41.641 48.488,10.382 -2.668,87.928 59.257,49.768 28.274,3.42 0,24.29 5.372,39.31 10.761,35.88 40.371,60.23 84.82,53.25 14.82,-10.4 -4.008,-23.13 6.726,-33.54 21.543,4.57 25.614,30.06 53.875,24.25 29.598,-9.26 76.727,-9.26 68.692,-49.69 18.797,-4.66 33.629,13.84 55.164,11.52 9.445,0 22.91,0 25.57,10.46 -44.406,5.72 29.664,68.22 -25.57,37 -26.906,1.12 -10.758,65.95 -52.481,30.04 -20.21,4.67 -36.386,30.15 -44.464,49.82 4.058,16.19 -8.094,19.64 -20.204,25.46 -4.027,22.01 6.731,53.2 4.075,71.78 9.386,34.67 61.91,35.84 57.91,69.38 -6.742,16.2 10.758,25.48 22.848,33.59 29.617,-5.8 8.089,33.55 18.871,47.46 -2.711,24.29 30.925,23.17 41.738,35.85 14.769,-4.62 24.199,-12.68 29.598,-25.47 -9.399,-19.64 -43.067,-41.66 -16.125,-63.64 12.125,35.89 51.136,3.5 76.726,5.8 18.852,-60.14 47.102,53.21 68.672,-16.19 14.789,-30.13 35,8.08 55.16,8.08 0,12.74 13.477,27.78 0,38.2 -25.543,17.37 -82.152,6.94 -64.601,50.92 -18.872,-40.53 -55.176,0 -84.821,4.62 -16.148,15.03 -12.129,39.29 13.473,45.17 16.172,20.81 63.309,15.01 44.387,49.68 10.793,12.79 24.285,10.43 36.402,2.36 0,13.87 -4.031,34.68 18.84,41.65 57.879,31.23 29.605,-56.69 78.078,-22.01 -13.449,6.97 -16.16,24.33 -6.758,35.9 18.918,30.07 49.84,24.33 80.832,37.07 26.918,-24.31 86.117,-17.37 94.207,-61.37 -38.988,-42.83 48.469,-77.55 0,-116.91 10.821,0 29.629,1.19 41.75,8.12 -8.082,18.55 -1.359,38.23 16.141,49.73 12.14,1.18 26.93,-1.15 39.066,3.49 -2.66,23.15 -60.59,16.22 -29.629,47.51 22.871,5.74 9.442,31.16 22.871,43.9 17.524,47.46 72.754,13.92 92.924,55.58 18.85,-2.32 10.76,-23.16 26.91,-30.05 12.18,16.17 0,46.23 28.3,52.03 28.23,1.18 21.52,-34.77 52.51,-30.1" />
    </g>
  </g>
</svg>