<svg xmlns="http://www.w3.org/2000/svg" viewBox="0 0 260 215.375"><path d="M259.135 158.388L0 157.806l.223-98.71 259.133.583-.22 98.708" fill="#fff" fill-opacity=".9"/><path d="M148.058 3.765c3.025 2.022 3.193 6.94 8.078 7.375 4.21 2.46 0 6.66 3.195 9.252 1.347-3.036.344-7.665 4.042-9.252 2.02 1.446 6.228-.288 6.902 2.744 2.19-1.44 5.212-.432 7.235 1.02.506.428.506 1.002 1.18 1.445-.337 2.746-9.262 2.31-3.706 5.787 2.857 2.89-4.205 2.165-2.686 5.64 4.2-.15 3.865 4.192 6.726 5.205-.168 1.877-1.855 4.924.502 6.223 4.55 2.02 1.515-3.616 4.04-5.208 3.37-1.446-.5-3.186.838-5.938 4.045-1.15 8.087-3.473 12.46-3.034 1.01 4.05 7.914 1.736 6.904 6.216-1.52 1.163-3.71 1.593-3.198 3.763 1.678.725 4.71 1.157 4.71 3.474-1.512 8.384 12.115 12.01 7.74 20.824-1.682.586-4.036.147-4.884 1.74-.67 1.45 1.515 1.6 2.022 2.465.168 2.454.337 5.785-3.193 5.926-.845-.724-1.35 0-2.025.29 2.19 1.45 2.69 4.34 1.18 6.22-4.037 1.74-11.104-2.022-10.44 4.193 1.348-.284 3.54 2.027 5.224.43 5.216 4.494 2.864-3.898 7.745-3.173.334-3.042 1.845-4.927 5.208-5.937 3.876.435 4.887 4.486 8.922 4.92 2.525 1.154 0 3.04 0 4.48-1.01.44-2.19.44-2.86 1.45 3.54 1.88 1.68 6.65 1.518 9.693 3.023-2.17 6.053.58 6.557 3.474-2.182 3.903 2.526 8.532-.837 12.435 1.34 1.452 2.188 3.622 1.17 5.643-.333 3.184-8.408 3.616-3.528 7.53.674 3.037-4.54 2.595-3.7 5.924-2.527 1.306-6.225 3.763-9.762 1.736-.843 1.013.166 2.75-.674 3.906-2.36 1.448-5.22 0-7.74 0-3.2-4.633-12.793 3.47-10.433-4.916-1.52-1.02-3.364-1.16-4.04.72-1.01 4.335 7.74 3.764 4.375 8.97-2.356 1.587-5.22-1.59-6.392.436 0 1.807-2.738 5.387-6.125 8.676-3.388 3.29-13.57 5.64-14.58 4.05-1.683-3.186 3.7-7.957-1.513-9.69-2.19 1.733-5.554 1.444-6.566-1.014.504-3.763-1.85-5.208-5.22-2.743-1.684 1.154-4.71 2.024-5.216-.435-1.848-3.766 3.87-6.655 2.362-9.988-7.407 2.466-13.806 6.51-19.022 12.154-3.53 18.38-.17 37.466.506 56.564 8.583 5.782 21.204 4.767 31.468 4.918.676.574 1.178 1.878-.332 2.024-12.12.435-23.737 1.307-36.018 2.46-.338 4.193-13.798 1.593-5.722 4.773v1.446c-6.564.87-12.79 4.34-18.848 1.01-3.028-.87-5.89 2.313-7.74-.29 1.176-2.895 7.74 0 5.216-3.902-3.533.286-3.367-2.896-3.2-4.776-8.752.287-16.152-.722-25.41-.44-.34-.57.502-.86.336-1.294 12.454-1.886 27.77-.148 39.55-4.195.506-13.746 1.007-27.338-.338-41.666-4.38-9.83-14.81-16.778-23.056-24.293-1.35-1.306-2.02-6.226-3.2-2.027-5.55-1.165-3.538 9.11-5.214 9.98-1.18.29-4.04 4.342-5.722 6.653-2.697 1.01-5.388 1.01-8.08 0-.836-2.31-2.857-1.303-4.88-1.015-2.104-1.625-3.114-3.488-3.624-5.44-1.533-5.86 1.43-12.532-7.152-16.11-1.675-.583-3.533-2.165-5.38 0-4.374-2.165-1.012-6.945-5.22-9.695-.505.438-1.177.438-1.512 1.014-3.708-.577.503-4.198-3.708-4.92-3.023-.433-7.233 4.19-9.758 0-.165-3.33-2.02-4.34-5.555-3.76-4.71-3.036 6.568-7.377-2.52-6.948-1.182-1.295-2.524-3.465-2.02-5.205 6.06-1.298-.335-10.99 7.406-6.22 3.534-.428 0-3.037.67-4.915 1.346-4.485 5.048-7.528 10.604-6.656 1.852 1.3-.5 2.89.84 4.193 2.693-.573 3.202-3.76 6.735-3.033 3.7 1.158 9.59 1.158 8.586 6.212 2.35.58 4.205-1.73 6.897-1.44 1.18 0 2.864 0 3.196-1.31-5.55-.714 3.708-8.526-3.196-4.624-3.363-.14-1.345-8.244-6.56-3.755-2.527-.583-4.55-3.768-5.558-6.226.506-2.024-1.013-2.455-2.527-3.183-.503-2.75.842-6.65.51-8.97 1.173-4.335 7.738-4.48 7.238-8.674-.84-2.025 1.346-3.185 2.857-4.2 3.702.726 1.01-4.192 2.36-5.93-.34-3.037 3.865-2.897 5.216-4.482 1.847.577 3.025 1.585 3.7 3.183-1.175 2.455-5.383 5.208-2.015 7.955 1.515-4.486 6.392-.437 9.59-.725 2.357 7.518 5.888-6.65 8.584 2.024 1.85 3.767 4.375-1.01 6.895-1.01 0-1.59 1.685-3.47 0-4.774-3.193-2.17-10.27-.867-8.075-6.365-2.36 5.067-6.897 0-10.602-.576-2.02-1.88-1.517-4.912 1.684-5.647 2.02-2.6 7.913-1.876 5.548-6.21 1.35-1.598 3.036-1.303 4.55-.295 0-1.733-.504-4.335 2.355-5.206 7.235-3.904 3.7 7.086 9.76 2.75-1.68-.87-2.02-3.04-.845-4.486 2.365-3.76 6.23-3.04 10.104-4.634 3.365 3.04 10.765 2.17 11.776 7.67-4.873 5.355 6.06 9.695 0 14.615 1.353 0 3.704-.148 5.22-1.014-1.01-2.32-.17-4.78 2.017-6.216 1.516-.148 3.365.144 4.882-.436-.333-2.894-7.574-2.028-3.704-5.94 2.86-.717 1.18-3.894 2.86-5.487 2.19-5.932 9.093-1.74 11.615-6.947 2.356.29 1.345 2.895 3.363 3.756 1.523-2.02 0-5.78 3.538-6.504 3.53-.147 2.69 4.347 6.564 3.763" fill="#57ac35"/></svg>