<svg>
  <defs>
    <g id="filter">
      <path d="M10 18h4v-2h-4v2zM3 6v2h18V6H3zm3 7h12v-2H6v2z"/>
      <path d="M0 0h24v24H0z" fill="none"/>
    </g>

    <g id="filter-none">
      <path d="M0 0h24v24H0z" fill="none"/>
      <path d="M3 5H1v16c0 1.1.9 2 2 2h16v-2H3V5zm18-4H7c-1.1 0-2 .9-2 2v14c0 1.1.9 2 2 2h14c1.1 0 2-.9 2-2V3c0-1.1-.9-2-2-2zm0 16H7V3h14v14z"/>
    </g>

    <g id="filter-1">
      <path d="M0 0h24v24H0z" fill="none"/>
      <path d="M3 5H1v16c0 1.1.9 2 2 2h16v-2H3V5zm11 10h2V5h-4v2h2v8zm7-14H7c-1.1 0-2 .9-2 2v14c0 1.1.9 2 2 2h14c1.1 0 2-.9 2-2V3c0-1.1-.9-2-2-2zm0 16H7V3h14v14z"/>
    </g>

    <g id="filter-2">
      <path d="M0 0h24v24H0z" fill="none"/>
      <path d="M3 5H1v16c0 1.1.9 2 2 2h16v-2H3V5zm18-4H7c-1.1 0-2 .9-2 2v14c0 1.1.9 2 2 2h14c1.1 0 2-.9 2-2V3c0-1.1-.9-2-2-2zm0 16H7V3h14v14zm-4-4h-4v-2h2c1.1 0 2-.89 2-2V7c0-1.11-.9-2-2-2h-4v2h4v2h-2c-1.1 0-2 .89-2 2v4h6v-2z"/>
    </g>

    <g id="filter-3">
      <path d="M0 0h24v24H0z" fill="none"/>
      <path d="M21 1H7c-1.1 0-2 .9-2 2v14c0 1.1.9 2 2 2h14c1.1 0 2-.9 2-2V3c0-1.1-.9-2-2-2zm0 16H7V3h14v14zM3 5H1v16c0 1.1.9 2 2 2h16v-2H3V5zm14 8v-1.5c0-.83-.67-1.5-1.5-1.5.83 0 1.5-.67 1.5-1.5V7c0-1.11-.9-2-2-2h-4v2h4v2h-2v2h2v2h-4v2h4c1.1 0 2-.89 2-2z"/>
    </g>

    <g id="filter-4">
      <path d="M0 0h24v24H0z" fill="none"/>
      <path d="M3 5H1v16c0 1.1.9 2 2 2h16v-2H3V5zm12 10h2V5h-2v4h-2V5h-2v6h4v4zm6-14H7c-1.1 0-2 .9-2 2v14c0 1.1.9 2 2 2h14c1.1 0 2-.9 2-2V3c0-1.1-.9-2-2-2zm0 16H7V3h14v14z"/>
    </g>

    <g id="filter-5">
      <path d="M0 0h24v24H0z" fill="none"/>
      <path d="M21 1H7c-1.1 0-2 .9-2 2v14c0 1.1.9 2 2 2h14c1.1 0 2-.9 2-2V3c0-1.1-.9-2-2-2zm0 16H7V3h14v14zM3 5H1v16c0 1.1.9 2 2 2h16v-2H3V5zm14 8v-2c0-1.11-.9-2-2-2h-2V7h4V5h-6v6h4v2h-4v2h4c1.1 0 2-.89 2-2z"/>
    </g>

    <g id="filter-6">
      <path d="M0 0h24v24H0z" fill="none"/>
      <path d="M3 5H1v16c0 1.1.9 2 2 2h16v-2H3V5zm18-4H7c-1.1 0-2 .9-2 2v14c0 1.1.9 2 2 2h14c1.1 0 2-.9 2-2V3c0-1.1-.9-2-2-2zm0 16H7V3h14v14zm-8-2h2c1.1 0 2-.89 2-2v-2c0-1.11-.9-2-2-2h-2V7h4V5h-4c-1.1 0-2 .89-2 2v6c0 1.11.9 2 2 2zm0-4h2v2h-2v-2z"/>
    </g>

    <g id="filter-7">
      <path d="M0 0h24v24H0z" fill="none"/>
      <path d="M3 5H1v16c0 1.1.9 2 2 2h16v-2H3V5zm18-4H7c-1.1 0-2 .9-2 2v14c0 1.1.9 2 2 2h14c1.1 0 2-.9 2-2V3c0-1.1-.9-2-2-2zm0 16H7V3h14v14zm-8-2l4-8V5h-6v2h4l-4 8h2z"/>
    </g>

    <g id="filter-8">
      <path d="M0 0h24v24H0z" fill="none"/>
      <path d="M3 5H1v16c0 1.1.9 2 2 2h16v-2H3V5zm18-4H7c-1.1 0-2 .9-2 2v14c0 1.1.9 2 2 2h14c1.1 0 2-.9 2-2V3c0-1.1-.9-2-2-2zm0 16H7V3h14v14zm-8-2h2c1.1 0 2-.89 2-2v-1.5c0-.83-.67-1.5-1.5-1.5.83 0 1.5-.67 1.5-1.5V7c0-1.11-.9-2-2-2h-2c-1.1 0-2 .89-2 2v1.5c0 .83.67 1.5 1.5 1.5-.83 0-1.5.67-1.5 1.5V13c0 1.11.9 2 2 2zm0-8h2v2h-2V7zm0 4h2v2h-2v-2z"/>
    </g>

    <g id="filter-9">
      <path d="M0 0h24v24H0z" fill="none"/>
      <path d="M3 5H1v16c0 1.1.9 2 2 2h16v-2H3V5zm18-4H7c-1.1 0-2 .9-2 2v14c0 1.1.9 2 2 2h14c1.1 0 2-.9 2-2V3c0-1.1-.9-2-2-2zm0 16H7V3h14v14zM15 5h-2c-1.1 0-2 .89-2 2v2c0 1.11.9 2 2 2h2v2h-4v2h4c1.1 0 2-.89 2-2V7c0-1.11-.9-2-2-2zm0 4h-2V7h2v2z"/>
    </g>

    <g id="filter-9-plus">
      <path d="M0 0h24v24H0z" fill="none"/>
      <path d="M3 5H1v16c0 1.1.9 2 2 2h16v-2H3V5zm11 7V8c0-1.11-.9-2-2-2h-1c-1.1 0-2 .89-2 2v1c0 1.11.9 2 2 2h1v1H9v2h3c1.1 0 2-.89 2-2zm-3-3V8h1v1h-1zm10-8H7c-1.1 0-2 .9-2 2v14c0 1.1.9 2 2 2h14c1.1 0 2-.9 2-2V3c0-1.1-.9-2-2-2zm0 8h-2V7h-2v2h-2v2h2v2h2v-2h2v6H7V3h14v6z"/>
    </g>

    <g id="list-view">
      <path d="M4 14h4v-4H4v4zm0 5h4v-4H4v4zM4 9h4V5H4v4zm5 5h12v-4H9v4zm0 5h12v-4H9v4zM9 5v4h12V5H9z"/>
      <path d="M0 0h24v24H0z" fill="none"/>
    </g>

    <g id="map-view">
      <path d="M20.5 3l-.16.03L15 5.1 9 3 3.36 4.9c-.21.07-.36.25-.36.48V20.5c0 .28.22.5.5.5l.16-.03L9 18.9l6 2.1 5.64-1.9c.21-.07.36-.25.36-.48V3.5c0-.28-.22-.5-.5-.5zM15 19l-6-2.11V5l6 2.11V19z"/>
      <path d="M0 0h24v24H0z" fill="none"/>
    </g>

    <g id="menu">
      <path d="M0 0h24v24H0z" fill="none"/>
      <path d="M3 18h18v-2H3v2zm0-5h18v-2H3v2zm0-7v2h18V6H3z"/>
    </g>

    <g id="my-location">
      <path d="M0 0h24v24H0z" fill="none"/>
      <path d="M12 8c-2.21 0-4 1.79-4 4s1.79 4 4 4 4-1.79 4-4-1.79-4-4-4zm8.94 3c-.46-4.17-3.77-7.48-7.94-7.94V1h-2v2.06C6.83 3.52 3.52 6.83 3.06 11H1v2h2.06c.46 4.17 3.77 7.48 7.94 7.94V23h2v-2.06c4.17-.46 7.48-3.77 7.94-7.94H23v-2h-2.06zM12 19c-3.87 0-7-3.13-7-7s3.13-7 7-7 7 3.13 7 7-3.13 7-7 7z"/>
    </g>
    
    <g id="location">
      <path d="M12 2C8.13 2 5 5.13 5 9c0 5.25 7 13 7 13s7-7.75 7-13c0-3.87-3.13-7-7-7zm0 9.5c-1.38 0-2.5-1.12-2.5-2.5s1.12-2.5 2.5-2.5 2.5 1.12 2.5 2.5-1.12 2.5-2.5 2.5z"/>
      <path d="M0 0h24v24H0z" fill="none"/>
    </g>

    <g id="person-pin">
      <path d="M19 2H5c-1.11 0-2 .9-2 2v14c0 1.1.89 2 2 2h4l3 3 3-3h4c1.1 0 2-.9 2-2V4c0-1.1-.9-2-2-2zm-7 3.3c1.49 0 2.7 1.21 2.7 2.7 0 1.49-1.21 2.7-2.7 2.7-1.49 0-2.7-1.21-2.7-2.7 0-1.49 1.21-2.7 2.7-2.7zM18 16H6v-.9c0-2 4-3.1 6-3.1s6 1.1 6 3.1v.9z"/>
      <path d="M0 0h24v24H0z" fill="none"/>
    </g>

    <g id="salary">
      <path d="M11.8 10.9c-2.27-.59-3-1.2-3-2.15 0-1.09 1.01-1.85 2.7-1.85 1.78 0 2.44.85 2.5 2.1h2.21c-.07-1.72-1.12-3.3-3.21-3.81V3h-3v2.16c-1.94.42-3.5 1.68-3.5 3.61 0 2.31 1.91 3.46 4.7 4.13 2.5.6 3 1.48 3 2.41 0 .69-.49 1.79-2.7 1.79-2.06 0-2.87-.92-2.98-2.1h-2.2c.12 2.19 1.76 3.42 3.68 3.83V21h3v-2.15c1.95-.37 3.5-1.5 3.5-3.55 0-2.84-2.43-3.81-4.7-4.4z"/>
      <path d="M0 0h24v24H0z" fill="none"/>
    </g>

    <g id="sort">
      <path d="M3 18h6v-2H3v2zM3 6v2h18V6H3zm0 7h12v-2H3v2z"/>
      <path d="M0 0h24v24H0z" fill="none"/>
    </g>

    <g id="work">
      <path d="M0 0h24v24H0z" fill="none"/>
      <path d="M20 6h-4V4c0-1.11-.89-2-2-2h-4c-1.11 0-2 .89-2 2v2H4c-1.11 0-1.99.89-1.99 2L2 19c0 1.11.89 2 2 2h16c1.11 0 2-.89 2-2V8c0-1.11-.89-2-2-2zm-6 0h-4V4h4v2z"/>
    </g>

  </defs>
</svg>
