<svg>
  <defs>
    <g id="briefcase">
      <path fill="#424242" d="M27,7h-6c-1.7,0-3,1.3-3,3v3h2v-3c0-0.6,0.4-1,1-1h6c0.6,0,1,0.4,1,1v3h2v-3C30,8.3,28.7,7,27,7z"/>
      <path fill="#E65100" d="M40,43H8c-2.2,0-4-1.8-4-4V15c0-2.2,1.8-4,4-4h32c2.2,0,4,1.8,4,4v24C44,41.2,42.2,43,40,43z"/>
      <path fill="#FF6E40" d="M40,28H8c-2.2,0-4-1.8-4-4v-9c0-2.2,1.8-4,4-4h32c2.2,0,4,1.8,4,4v9C44,26.2,42.2,28,40,28z"/>
      <path fill="#FFF3E0" d="M26,26h-4c-0.6,0-1-0.4-1-1v-2c0-0.6,0.4-1,1-1h4c0.6,0,1,0.4,1,1v2C27,25.6,26.6,26,26,26z"/>
    </g>
    
    <g id="arrow-up">
      <path d="M0 0h48v48H0V0z" fill="none"/>
      <path d="M8 24l2.82 2.82L22 15.66V40h4V15.66l11.18 11.18L40 24l-16-16-16 16z" />
    </g>

    <g id="categories">
      <path fill="#DD2C00" d="M26.053,13L11.171,27.857c-1.562,1.559-1.562,4.086,0,5.646L21.514,43.83c1.563,1.56,4.096,1.56,5.657,0  L42,28.974V16.994C42,14.788,40.262,13,38.053,13H26.053z M36,21c-1.104,0-2-0.896-2-2c0-1.106,0.896-2,2-2s2,0.894,2,2  C38,20.104,37.104,21,36,21"/>
      <path fill="#FF5722" d="M22.026,4L7.169,18.856c-1.559,1.56-1.559,4.087,0,5.647L17.495,34.83c1.56,1.56,4.089,1.56,5.647,0  L38,19.975V7.993C38,5.787,36.212,4,34.006,4H22.026z M32.026,11.957c-1.104,0-2-0.893-2-1.992c0-1.102,0.896-1.991,2-1.991  c1.104,0,2,0.89,2,1.991c0,1.1-0.912,2.009-2.017,2.009"/>
    </g>

    <g id="document">
      <g>
        <polygon fill="#90CAF9" points="40,45 8,45 8,3 30,3 40,13  "/>
      </g>
        <polygon fill="#E1F5FE" points="38.5,14 29,14 29,4.5 "/>
      <g>
        <rect x="16" y="21" fill="#1976D2" width="17" height="2"/>
        <rect x="16" y="25" fill="#1976D2" width="13" height="2"/>
        <rect x="16" y="29" fill="#1976D2" width="17" height="2"/>
        <rect x="16" y="33" fill="#1976D2" width="13" height="2"/>
      </g>
    </g>

    <g id="expiring">
      <circle fill="#00ACC1" cx="17" cy="17" r="14"/>
      <circle fill="#EEEEEE" cx="17" cy="17" r="11"/>
      <g>
        <rect x="16" y="8" width="2" height="9"/>
        <rect x="18.2" y="16" transform="matrix(-0.7071 0.7071 -0.7071 -0.7071 46.8342 19.3994)" width="2.4" height="6.8"/>
        <circle cx="17" cy="17" r="2"/>
      </g>
      <circle fill="#00ACC1" cx="17" cy="17" r="1"/>
      <path fill="#FFC107" d="M11.9,42l14.4-24.1c0.8-1.3,2.7-1.3,3.4,0L44.1,42c0.8,1.3-0.2,3-1.7,3H13.6C12.1,45,11.1,43.3,11.9,42z"/>
      <g>
        <path fill="#263238" d="M26.4,39.9c0-0.2,0-0.4,0.1-0.6s0.2-0.3,0.3-0.5s0.3-0.2,0.5-0.3s0.4-0.1,0.6-0.1s0.5,0,0.7,0.1   s0.4,0.2,0.5,0.3s0.2,0.3,0.3,0.5s0.1,0.4,0.1,0.6s0,0.4-0.1,0.6s-0.2,0.3-0.3,0.5s-0.3,0.2-0.5,0.3s-0.4,0.1-0.7,0.1   s-0.5,0-0.6-0.1s-0.4-0.2-0.5-0.3s-0.2-0.3-0.3-0.5S26.4,40.1,26.4,39.9z M29.2,36.8h-2.3L26.5,27h3L29.2,36.8z"/>
      </g>
    </g>

    <g id="external-link">
      <rect x="6" y="10" fill="#BBDEFB" width="32" height="32"/>
      <g>
        <polygon fill="#3F51B5" points="42,6 42,21 27,6  "/>
        <rect x="26.132" y="10.368" transform="matrix(0.7071 0.7071 -0.7071 0.7071 21.4601 -16.073)" fill="#3F51B5" width="8.001" height="15"/>
      </g>
    </g>

    <g id="search">
      <g>
        <rect x="34.6" y="28.1" transform="matrix(0.7071 -0.7071 0.7071 0.7071 -15.1544 36.5859)" fill="#616161" width="4" height="17"/>
        <circle fill="#616161" cx="20" cy="20" r="16"/>
      </g>
      <rect x="36.2" y="32.1" transform="matrix(0.7071 -0.7071 0.7071 0.7071 -15.8392 38.2393)" fill="#37474F" width="4" height="12.3"/>
      <circle fill="#64B5F6" cx="20" cy="20" r="13"/>
      <path fill="#BBDEFB" d="M26.9,14.2c-1.7-2-4.2-3.2-6.9-3.2s-5.2,1.2-6.9,3.2c-0.4,0.4-0.3,1.1,0.1,1.4c0.4,0.4,1.1,0.3,1.4-0.1  C16,13.9,17.9,13,20,13s4,0.9,5.4,2.5c0.2,0.2,0.5,0.4,0.8,0.4c0.2,0,0.5-0.1,0.6-0.2C27.2,15.3,27.2,14.6,26.9,14.2z"/>
    </g>

    <g id="settings">
      <path fill="#607D8B" d="M39.6,27.2c0.1-0.7,0.2-1.4,0.2-2.2s-0.1-1.5-0.2-2.2l4.5-3.2c0.4-0.3,0.6-0.9,0.3-1.4L40,10.8  c-0.3-0.5-0.8-0.7-1.3-0.4l-5,2.3c-1.2-0.9-2.4-1.6-3.8-2.2l-0.5-5.5c-0.1-0.5-0.5-0.9-1-0.9h-8.6c-0.5,0-1,0.4-1,0.9l-0.5,5.5  c-1.4,0.6-2.7,1.3-3.8,2.2l-5-2.3c-0.5-0.2-1.1,0-1.3,0.4l-4.3,7.4c-0.3,0.5-0.1,1.1,0.3,1.4l4.5,3.2c-0.1,0.7-0.2,1.4-0.2,2.2  s0.1,1.5,0.2,2.2L4,30.4c-0.4,0.3-0.6,0.9-0.3,1.4L8,39.2c0.3,0.5,0.8,0.7,1.3,0.4l5-2.3c1.2,0.9,2.4,1.6,3.8,2.2l0.5,5.5  c0.1,0.5,0.5,0.9,1,0.9h8.6c0.5,0,1-0.4,1-0.9l0.5-5.5c1.4-0.6,2.7-1.3,3.8-2.2l5,2.3c0.5,0.2,1.1,0,1.3-0.4l4.3-7.4  c0.3-0.5,0.1-1.1-0.3-1.4L39.6,27.2z M24,35c-5.5,0-10-4.5-10-10c0-5.5,4.5-10,10-10c5.5,0,10,4.5,10,10C34,30.5,29.5,35,24,35z"/>
      <path fill="#455A64" d="M24,13c-6.6,0-12,5.4-12,12c0,6.6,5.4,12,12,12s12-5.4,12-12C36,18.4,30.6,13,24,13z M24,30  c-2.8,0-5-2.2-5-5c0-2.8,2.2-5,5-5s5,2.2,5,5C29,27.8,26.8,30,24,30z"/>
    </g>

  </defs>
</svg>
