<svg id="job-marker-filtered" viewBox="0 0 512 512" xmlns="http://www.w3.org/2000/svg">
  <path fill="transparent" d=" M 0.00 0.00 L 512.00 0.00 L 512.00 512.00 L 0.00 512.00 L 0.00 0.00 Z" />
  <path fill="#E65100" fill-opacity="0.3" d=" M 250.15 17.27 C 283.73 15.48 317.79 23.43 347.01 40.09 C 376.34 56.64 400.79 81.71 416.60 111.44 C 430.15 136.69 437.36 165.28 437.53 193.93 C 437.86 228.98 430.36 263.86 417.20 296.28 C 400.14 338.85 374.94 377.67 346.64 413.58 C 322.97 443.03 297.09 470.73 269.04 496.06 C 266.30 498.41 263.74 500.98 260.83 503.13 C 259.53 504.14 257.73 503.33 256.77 502.26 C 228.52 477.56 202.48 450.37 178.58 421.45 C 153.56 390.87 130.95 358.10 113.38 322.63 C 96.75 289.02 84.63 252.66 82.05 215.06 C 80.05 191.90 81.66 168.29 88.22 145.93 C 99.21 107.29 123.89 72.78 156.72 49.68 C 183.95 30.30 216.77 18.94 250.15 17.27 Z" />
  <path fill="#F8F2E4" d=" M 245.11 59.19 C 271.98 56.40 299.67 61.71 323.46 74.57 C 349.74 88.56 371.17 111.43 383.39 138.59 C 394.80 163.51 398.19 191.93 393.37 218.88 C 388.32 247.35 373.81 274.01 352.77 293.82 C 330.68 314.73 301.43 328.03 271.08 330.48 C 242.75 333.04 213.65 326.41 189.30 311.68 C 164.09 296.68 143.98 273.27 132.98 246.06 C 122.30 220.07 120.17 190.74 126.58 163.41 C 132.63 137.65 146.40 113.78 165.73 95.70 C 187.17 75.18 215.59 62.20 245.11 59.19 Z" />

  <g fill-opacity="0.3" transform="scale(5,5) translate(28, 12)">
    <path fill="#424242" d="M27,7h-6c-1.7,0-3,1.3-3,3v3h2v-3c0-0.6,0.4-1,1-1h6c0.6,0,1,0.4,1,1v3h2v-3C30,8.3,28.7,7,27,7z"/>
    <path fill="#E65100" d="M40,43H8c-2.2,0-4-1.8-4-4V15c0-2.2,1.8-4,4-4h32c2.2,0,4,1.8,4,4v24C44,41.2,42.2,43,40,43z"/>
    <path fill="#FF6E40" d="M40,28H8c-2.2,0-4-1.8-4-4v-9c0-2.2,1.8-4,4-4h32c2.2,0,4,1.8,4,4v9C44,26.2,42.2,28,40,28z"/>
    <path fill="#FFF3E0" d="M26,26h-4c-0.6,0-1-0.4-1-1v-2c0-0.6,0.4-1,1-1h4c0.6,0,1,0.4,1,1v2C27,25.6,26.6,26,26,26z"/>
  </g>

  <circle cx="375" cy="120" r="100" fill="rgba(255, 243, 224, 1)" fill-opacity="0.9" />
  
  <g transform="scale(7,7) translate(42, 6)" fill="rgba(0,0,0,0.9)">
    <path d="M10 18h4v-2h-4v2zM3 6v2h18V6H3zm3 7h12v-2H6v2z"/>
    <path d="M0 0h24v24H0z" fill="none"/>
  </g>

</svg>