<svg xmlns="http://www.w3.org/2000/svg" viewBox="-1 0 273 229.73334" id="parks-logo">
  <g transform="matrix(1.3333333,0,0,-1.3333333,0,229.73333)" id="g10">
    <g transform="scale(0.1)" id="g12">
      <g id="g14">
        <g clip-path="url(#clipPath20)" id="g16">
          <path id="path152" style="fill:rgba(255,255,255,0.9);fill-rule:nonzero;stroke:none" d="m 323.871,1243.48 c 0.195,2 0.371,4 0.621,6.02 L 1.78125,1250.23 0,460.551 H 0.0234375 L 1.77734,1244.2 323.871,1243.48" />
          <path
             id="path154"
             style="fill:rgba(255,255,255,0.9);fill-rule:nonzero;stroke:none"
             d="m 1694.57,1240.41 380.26,-0.86 0.02,6.03 -380.25,0.85 c -8.65,-1.3 -17.68,-1.83 -23.98,-5.97 l 23.95,-0.05" /><path
             id="path156"
             style="fill:rgba(255,255,255,0.9);fill-rule:nonzero;stroke:none"
             d="m 880.176,472.949 c -35.039,78.641 -118.481,134.223 -184.449,194.36 -10.809,10.461 -16.161,49.8 -25.59,16.23 -44.41,9.293 -28.313,-72.891 -41.719,-79.859 -9.441,-2.309 -32.328,-34.719 -45.781,-53.231 -21.575,-8.058 -43.102,-8.058 -64.629,0 -6.699,18.512 -22.863,10.449 -39.055,8.141 -16.824,13 -24.906,27.91 -28.988,43.539 -12.262,46.871 11.453,100.25 -57.215,128.851 -13.402,4.676 -28.262,17.344 -43.031,0 -35,17.344 -8.102,55.575 -41.758,77.579 -4.047,-3.516 -9.426,-3.516 -12.106,-8.125 -13.937,2.168 -13.882,9.726 -13.41,17.714 -0.222,2.52 -0.047,5.215 0.106,7.93 -0.594,6.152 -3.766,11.551 -16.356,13.711 -24.187,3.457 -57.871,-33.516 -78.07,0 -1.316,26.649 -16.148,34.707 -44.437,30.086 -8.524,5.492 -10.469,11.52 -9.274,17.516 -2.75,12.48 13.391,25.668 17.484,34.379 -2.488,3.05 -10.488,4.531 -28.382,3.687 -8.645,9.477 -18.227,24.773 -16.743,37.977 -0.39,3.316 -0.32,6.589 0.575,9.679 48.488,10.379 -2.668,87.927 59.257,49.767 7.696,0.94 11.122,3.19 12.25,6.23 -1.976,7.6 -8.988,17.32 -7.199,25.6 -0.48,2.57 -0.527,5.1 0.321,7.47 10.761,35.89 40.371,60.23 84.82,53.26 6.031,-4.23 6.465,-8.85 5.609,-13.54 1.133,-4.78 -1.117,-9.78 -2.019,-14.65 0.441,-1.83 1.359,-3.63 3.136,-5.35 21.543,4.57 25.614,30.06 53.875,24.24 28.2,-8.81 72.188,-9.31 69.356,-44.28 0.148,-1.73 0.199,-3.54 0.066,-5.48 18.45,-4 33.184,13.89 54.434,11.6 7.363,0 17.109,0.07 22.336,5.04 -10.36,2.32 -12.543,8.5 -11.442,15.58 -1.871,9.12 6.227,21.94 9.375,29.44 -2.308,0.55 -8.203,-1.79 -20.269,-8.61 -26.906,1.11 -10.758,65.93 -52.481,30.03 -20.211,4.67 -36.386,30.16 -44.464,49.81 0.418,1.68 0.562,3.14 0.656,4.55 -0.203,0.49 -0.461,1 -0.656,1.48 0.257,1.02 0.265,1.86 0.398,2.78 -1.723,8.91 -11.117,12.1 -20.602,16.67 -0.777,4.24 -0.89,8.89 -0.769,13.67 -0.227,4.8 0.039,9.88 0.535,15.06 L 1.77734,1244.2 0.0234375,460.551 881.309,458.582 c -0.403,4.797 -0.68,9.547 -1.133,14.367" /><path
             id="path158"
             style="fill:rgba(255,255,255,0.9);fill-rule:nonzero;stroke:none"
             d="m 1665.09,1228.64 c -0.18,-0.38 -0.14,-0.68 -0.27,-1.03 2.88,-5.53 13.41,-7.5 16.44,-12.68 0.35,-5.08 0.69,-10.64 0.52,-16.11 0.46,-17.61 -2.46,-36.37 -26.06,-37.31 -4.84,4.15 -8.29,2.33 -11.85,0.13 8.67,-7.82 12.72,-18.75 11.74,-29.27 0.71,-8.1 -1.31,-16.31 -6.65,-22.94 -29.95,-12.91 -80.63,11.91 -83.64,-24.02 0.06,-1.19 -0.01,-2.21 0.12,-3.51 10.78,2.26 28.31,-16.23 41.79,-3.45 41.73,-35.95 22.91,31.18 61.96,25.39 2.68,24.33 14.77,39.41 41.67,47.5 31.01,-3.5 39.1,-35.9 71.38,-39.38 8.45,-3.86 9.79,-8.75 8.54,-13.97 2.74,-8.65 -8.54,-19.26 -8.54,-27.88 -6.55,-2.84 -13.93,-3.46 -19.36,-7.83 11.42,-7.97 14.08,-20.56 13.6,-34.1 0.58,-13.41 -2.88,-28.309 -4.38,-40.825 23.99,16.575 47.86,-5.187 51.86,-28.171 -0.37,-0.672 -0.58,-1.36 -0.91,-2.032 0.37,-1.32 0.68,-2.652 0.91,-3.984 -3.04,-5.441 -4.34,-11.07 -4.67,-16.805 0.94,-17.004 8.83,-34.812 7.91,-51.883 0.52,-9.453 -1.25,-18.726 -7.61,-27.589 6.82,-8.434 11.47,-19.211 10.48,-30.278 0.51,-5.945 -0.44,-12.078 -3.44,-18.054 -1.92,-18.36 -35.98,-25.286 -40.28,-39.426 1.18,-4.188 4.84,-9.012 12.05,-14.793 0.59,-2.676 0.54,-4.961 0.12,-7.051 3.42,-20.156 -26.73,-20.488 -30.14,-37.641 0.12,-0.898 0.17,-1.738 0.42,-2.707 -0.21,-0.113 -0.44,-0.242 -0.65,-0.339 -0.02,-1.75 0.12,-3.59 0.65,-5.68 -20.22,-10.453 -49.8,-30.102 -78.1,-13.902 -1.84,-2.211 -2.54,-4.872 -2.78,-7.739 0.17,-3.011 0.37,-6.07 0.15,-9.019 0.27,-5.141 0.28,-10.301 -2.76,-14.492 -18.87,-11.571 -41.77,0 -61.92,0 -23.46,33.949 -89.75,-17.52 -86.23,25.128 -0.41,3.801 0.01,8.692 1.44,14.961 -11.89,7.379 -25.78,8 -31.01,-6.507 -0.19,-0.813 -0.3,-1.59 -0.4,-2.372 3.46,-22.218 45.24,-25.039 41.33,-49.511 0.88,-5.27 -0.61,-11.668 -5.92,-19.887 -18.85,-12.691 -41.75,12.719 -51.14,-3.492 0,-14.461 -21.9,-43.078 -49,-69.399 -27.1,-26.332 -108.56,-45.14 -116.64,-32.39 -2.5,4.711 -3.04,9.879 -2.55,15.238 -1.18,13.992 7.65,30.063 8.95,43.633 -0.9,7.797 -5.67,14.379 -18.5,18.66 -17.51,-13.891 -44.43,-11.594 -52.53,8.098 0.24,1.8 0.39,3.539 0.47,5.211 -0.13,0.289 -0.35,0.5 -0.47,0.808 0.22,1.641 0.34,3.199 0.43,4.731 -1.44,21.789 -18.72,28.332 -42.18,11.191 -13.47,-9.223 -37.67,-16.191 -41.73,3.488 -2.68,5.45 -3.32,10.661 -2.74,15.7 -2.11,21.023 20.99,38.921 23.37,57.812 -0.28,2.109 -0.76,4.231 -1.73,6.379 -59.26,-19.711 -110.45,-52.09 -152.18,-97.219 -8.77,-45.66 -12.22,-91.871 -12.65,-138.449 -0.01,-3.102 0.02,-6.23 0.04,-9.344 l 1041.26,-2.34 1.75,783.652 -380.26,0.86 c -11.66,-1.76 -24.21,-1.87 -29.48,-11.77" /><path
             id="path160"
             style="fill:rgba(255,255,255,0.9);fill-rule:nonzero;stroke:none"
             d="m 1704.17,1248.58 c 34.99,70.51 -74.03,99.52 -61.93,166.6 0,18.53 -24.26,22 -37.68,27.79 -4.1,17.35 13.42,20.8 25.58,30.1 8.08,35.84 -47.15,17.31 -55.23,49.73 -34.98,3.51 -67.32,-15.06 -99.68,-24.26 -10.7,-22.02 20.26,-35.93 -6.69,-47.51 -20.21,-12.73 4.07,-57.82 -32.33,-41.65 -18.86,10.38 -5.36,34.76 -4.02,49.77 -22.89,8.11 -20.21,42.83 -53.81,41.65 -12.15,27.79 44.35,22 21.49,45.11 -44.45,27.82 26.95,24.33 29.66,46.31 -5.4,3.55 -5.4,8.12 -9.46,11.56 -16.18,11.6 -40.36,19.67 -57.88,8.16 -5.39,24.26 -39.06,10.38 -55.21,21.94 -29.59,-12.68 -21.56,-49.72 -32.33,-74.01 -25.56,20.75 8.11,54.34 -25.56,74.01 -39.08,3.49 -40.43,42.83 -64.63,59.01 -30.99,-4.66 -24.28,31.28 -52.51,30.1 -28.3,-5.79 -16.12,-35.86 -28.3,-52.04 -16.15,6.91 -8.06,27.75 -26.91,30.06 -20.17,-41.66 -75.4,-8.12 -92.924,-55.58 -13.429,-12.74 0,-38.16 -22.871,-43.9 -30.961,-31.29 26.969,-24.35 29.629,-47.51 -12.136,-4.64 -26.926,-2.31 -39.066,-3.48 -17.5,-11.51 -24.223,-31.19 -16.141,-49.74 -12.121,-6.94 -30.929,-8.12 -41.75,-8.12 48.469,39.36 -38.988,74.09 0,116.91 -8.09,44 -67.289,37.06 -94.207,61.36 -30.992,-12.74 -61.914,-6.99 -80.832,-37.07 -9.402,-11.56 -6.691,-28.92 6.758,-35.89 -48.473,-34.68 -20.199,53.24 -78.078,22.01 -22.871,-6.96 -18.84,-27.78 -18.84,-41.65 -12.117,8.07 -25.609,10.43 -36.402,-2.36 18.922,-34.67 -28.215,-28.87 -44.387,-49.68 -25.602,-5.88 -29.621,-30.13 -13.473,-45.17 29.645,-4.62 65.949,-45.15 84.821,-4.62 -17.551,-43.98 39.058,-33.55 64.601,-50.92 13.477,-10.42 0,-25.46 0,-38.21 -20.16,0 -40.371,-38.2 -55.16,-8.07 -21.57,69.4 -49.82,-43.96 -68.672,16.2 -25.59,-2.31 -64.601,30.08 -76.726,-5.81 -26.942,21.98 6.726,44 16.125,63.64 -5.399,12.79 -14.829,20.85 -29.598,25.47 -10.813,-12.68 -44.449,-11.56 -41.738,-35.85 -10.782,-13.92 10.746,-53.26 -18.871,-47.45 -12.09,-8.13 -29.59,-17.4 -22.848,-33.6 4,-33.54 -48.524,-34.71 -57.91,-69.38 1.617,-11.31 -1.727,-27.29 -3.688,-43.04 l 1370.108,-3.07 c 3.32,0.5 6.58,1.11 9.57,2.15" /><path
             id="path162"
             style="fill:rgba(255,255,255,0.9);fill-rule:nonzero;stroke:none"
             d="m 1031.79,458.238 c 0,-2.008 0.02,-4.008 0.03,-6.008 h 0.02 c -0.02,2 -0.01,4 -0.02,6.008 h -0.03" /><path
             id="path164"
             style="fill:rgba(255,255,255,0.9);fill-rule:nonzero;stroke:none"
             d="m 996.477,135.789 -34.602,10.359 10.41,179.981 h 23.672 v 2.41 -2.41 h 17.833 c 0,-145.367 -17.313,-190.34 -17.313,-190.34 z m -114.215,316.77 c 7.441,-98.84 4.734,-193.707 1.254,-289.161 l 12.601,7.883 c -3.273,-49.832 -75.058,-55.32 -110.758,-69.23 l 50.254,31.41 C 749.949,117.09 650.168,124.77 566.477,112.102 c 1.332,-3.473 -5.415,-5.801 -2.676,-10.364 74.054,2.25 133.254,-5.8161 203.273,-3.5075 -1.336,-15.0391 -2.664,-40.5117 25.594,-38.211 20.199,-31.2109 -32.313,-8.0586 -41.73,-31.2109 14.8,-20.82032 37.699,4.6133 61.929,-2.3203 48.449,-26.636738 98.27,1.1328 150.781,8.0703 v 11.582 c -64.609,25.4414 43.072,4.6406 45.772,38.1797 98.25,9.2383 191.18,16.1917 288.15,19.6677 12.08,1.172 8.06,11.621 2.65,16.192 -82.11,1.211 -183.08,-6.899 -251.74,39.359 -3.48,98.102 -15.74,196.152 -16.64,292.691 h -0.02 l -149.558,0.329" /><path
             id="path166"
             style="fill:rgba(255,255,255,0.9);fill-rule:nonzero;stroke:none"
             d="m 166.605,1016.87 c 12.161,1.47 13.833,6.17 12.25,12.24 -1.128,-3.04 -4.554,-5.29 -12.25,-6.23 -61.925,38.16 -10.769,-39.388 -59.257,-49.767 -0.895,-3.09 -0.965,-6.363 -0.575,-9.679 0.137,1.226 0.235,2.468 0.575,3.652 48.488,10.391 -2.668,87.944 59.257,49.784" /><path
             id="path168"
             style="fill:rgba(255,255,255,0.9);fill-rule:nonzero;stroke:none"
             d="m 1548.52,637.469 c 3.91,24.472 -37.87,27.293 -41.33,49.511 -3.52,-25.628 37.81,-28.679 41.33,-49.511" /><path
             id="path170"
             style="fill:rgba(255,255,255,0.9);fill-rule:nonzero;stroke:none"
             d="m 1332.22,571.172 c -1.3,-13.57 -10.13,-29.641 -8.95,-43.633 1.34,14.652 10.42,30.781 8.95,43.633" /><path
             id="path172"
             style="fill:rgba(255,255,255,0.9);fill-rule:nonzero;stroke:none"
             d="m 1681.26,1208.92 c 0.22,-3.22 0.43,-6.64 0.52,-10.1 0.17,5.47 -0.17,11.03 -0.52,16.11 -3.03,5.18 -13.56,7.15 -16.44,12.68 -3.76,-10.58 12.52,-12 16.44,-18.69" /><path
             id="path174"
             style="fill:rgba(255,255,255,0.9);fill-rule:nonzero;stroke:none"
             d="m 1819.29,936.363 c -0.96,-16.82 6.96,-34.629 7.91,-51.883 0.92,17.071 -6.97,34.879 -7.91,51.883" /><path
             id="path176"
             style="fill:rgba(255,255,255,0.9);fill-rule:nonzero;stroke:none"
             d="m 1538.6,695.859 c -1.43,-6.269 -1.85,-11.16 -1.44,-14.961 0.32,3.934 1.18,8.563 2.77,14.204 -0.44,0.289 -0.89,0.488 -1.33,0.757" /><path
             id="path178"
             style="fill:rgba(255,255,255,0.9);fill-rule:nonzero;stroke:none"
             d="m 344.309,1195.3 c 0.195,-0.48 0.453,-0.99 0.656,-1.48 0.097,1.57 -0.004,2.97 -0.258,4.26 -0.133,-0.92 -0.141,-1.76 -0.398,-2.78" /><path
             id="path180"
             style="fill:rgba(255,255,255,0.9);fill-rule:nonzero;stroke:none"
             d="m 1688.07,670.262 c 0.22,2.949 0.02,6.008 -0.15,9.019 -0.23,-2.859 -0.02,-5.941 0.15,-9.019" /><path
             id="path182"
             style="fill:rgba(255,255,255,0.9);fill-rule:nonzero;stroke:none"
             d="m 282.551,826.078 c -0.153,-2.715 -0.328,-5.41 -0.106,-7.93 0.157,2.657 0.352,5.352 0.106,7.93" /><path
             id="path184"
             style="fill:rgba(255,255,255,0.9);fill-rule:nonzero;stroke:none"
             d="m 1798.4,748.324 c 0.08,-0.371 0.05,-0.676 0.12,-1.035 0.42,2.09 0.47,4.375 -0.12,7.051 -7.21,5.781 -10.87,10.605 -12.05,14.793 -1.67,-5.488 1.13,-12.059 12.05,-20.809" /><path
             id="path186"
             style="fill:rgba(255,255,255,0.9);fill-rule:nonzero;stroke:none"
             d="m 256.797,1109.43 c 3.422,-2.41 5,-4.93 5.609,-7.53 0.856,4.69 0.422,9.31 -5.609,13.54 -44.449,6.97 -74.059,-17.37 -84.82,-53.26 -0.848,-2.37 -0.801,-4.9 -0.321,-7.47 0.106,0.48 0.153,0.98 0.321,1.45 10.761,35.89 40.371,60.23 84.82,53.27" /><path
             id="path188"
             style="fill:rgba(255,255,255,0.9);fill-rule:nonzero;stroke:none"
             d="m 151.898,921.77 c -4.093,-8.711 -20.234,-21.899 -17.484,-34.379 2.793,13.992 22.828,27.832 17.484,34.379" /><path
             id="path190"
             style="fill:rgba(255,255,255,0.9);fill-rule:nonzero;stroke:none"
             d="m 1830.07,826.613 c 0.99,11.067 -3.66,21.844 -10.48,30.278 -0.77,-1.063 -1.43,-2.141 -2.33,-3.196 6.76,-7.324 11.93,-16.933 12.81,-27.082" /><path
             id="path192"
             style="fill:rgba(255,255,255,0.9);fill-rule:nonzero;stroke:none"
             d="m 461.523,1118.04 c -3.148,-7.5 -11.246,-20.32 -9.375,-29.44 1.985,12.68 14.497,28.2 9.375,29.44" /><path
             id="path194"
             style="fill:rgba(255,255,255,0.9);fill-rule:nonzero;stroke:none"
             d="m 324.492,1243.48 1346.128,-3.02 c 6.3,4.14 15.33,4.67 23.98,5.97 l -1370.108,3.07 c -0.25,-2.02 -0.426,-4.02 -0.621,-6.02 h 0.621" /><path
             id="path196"
             style="fill:rgba(255,255,255,0.9);fill-rule:nonzero;stroke:none"
             d="m 1776.48,1028.18 c 0.48,13.54 -2.18,26.13 -13.6,34.1 -1.29,-1.04 -2.5,-2.21 -3.52,-3.76 12.52,-6.66 16.58,-17.84 17.12,-30.34" /><path
             id="path198"
             style="fill:rgba(255,255,255,0.9);fill-rule:nonzero;stroke:none"
             d="m 1031.79,458.238 h 0.03 c -0.02,3.114 -0.05,6.242 -0.04,9.344 -0.03,-3.102 0.02,-6.23 0.01,-9.344" /><path
             id="path200"
             style="fill:rgba(255,255,255,0.9);fill-rule:nonzero;stroke:none"
             d="m 1655.61,1132.37 c 0.98,10.52 -3.07,21.45 -11.74,29.27 -1.4,-0.87 -2.83,-1.79 -4.35,-2.45 9.79,-6.49 15.19,-16.57 16.09,-26.82" /><path
             id="path202"
             style="fill:rgba(255,255,255,0.9);fill-rule:nonzero;stroke:none"
             d="m 441.254,1061.96 c 9.445,0 22.91,0 25.57,10.47 -1.176,0.14 -2.219,0.36 -3.234,0.59 -5.227,-4.97 -14.973,-5.04 -22.336,-5.04 -21.25,2.29 -35.984,-15.6 -54.434,-11.6 -0.125,-1.89 -0.312,-3.83 -0.73,-5.93 18.797,-4.68 33.629,13.82 55.164,11.51" /><path
             id="path204"
             style="fill:rgba(255,255,255,0.9);fill-rule:nonzero;stroke:none"
             d="m 1261.19,603.949 c 0.12,-0.308 0.34,-0.519 0.47,-0.808 0.1,1.941 0.07,3.789 -0.04,5.539 -0.09,-1.532 -0.21,-3.09 -0.43,-4.731" /><path
             id="path206"
             style="fill:rgba(255,255,255,0.9);fill-rule:nonzero;stroke:none"
             d="m 323.871,1243.48 c -0.496,-5.18 -0.762,-10.26 -0.535,-15.06 0.121,4.9 0.516,9.94 1.156,15.06 h -0.621" /><path
             id="path208"
             style="fill:rgba(255,255,255,0.9);fill-rule:nonzero;stroke:none"
             d="m 1823.05,957.152 c 0.33,0.672 0.54,1.36 0.91,2.032 -4,22.984 -27.87,44.746 -51.86,28.171 -0.26,-2.203 -0.49,-4.359 -0.6,-6.39 22.79,16.363 45.61,-2.227 51.55,-23.813" /><path
             id="path210"
             style="fill:rgba(255,255,255,0.9);fill-rule:nonzero;stroke:none"
             d="m 1198.34,696.871 c -2.38,-18.891 -25.48,-36.789 -23.37,-57.812 2.39,20.632 25.95,38.492 23.37,57.812" /><path
             id="path212"
             style="fill:rgba(255,255,255,0.9);fill-rule:nonzero;stroke:none"
             d="m 263.523,1075.88 c 21.543,4.58 25.614,30.05 53.875,24.24 26.473,-8.27 66.86,-9.23 69.356,-38.26 2.832,34.97 -41.156,35.47 -69.356,44.28 -28.261,5.82 -32.332,-19.67 -53.875,-24.24 -1.777,1.72 -2.695,3.52 -3.136,5.35 -0.731,-3.94 -0.551,-7.79 3.136,-11.37" /><path
             id="path214"
             style="fill:rgba(255,255,255,0.9);fill-rule:nonzero;stroke:none"
             d="m 1768.8,706.941 c -0.25,0.969 -0.3,1.809 -0.42,2.707 -0.19,-0.937 -0.21,-1.988 -0.23,-3.046 0.21,0.097 0.44,0.226 0.65,0.339" /><path
             id="path216"
             style="fill:rgba(255,255,255,0.9);fill-rule:nonzero;stroke:none"
             d="m 1565.44,1075.88 c 10.78,2.27 28.31,-16.22 41.79,-3.45 41.73,-35.94 22.91,31.19 61.96,25.39 2.68,24.34 14.77,39.41 41.67,47.5 31.01,-3.49 39.1,-35.89 71.38,-39.39 5.09,-2.32 7.61,-5.02 8.54,-7.94 1.25,5.22 -0.09,10.11 -8.54,13.97 -32.28,3.48 -40.37,35.88 -71.38,39.38 -26.9,-8.09 -38.99,-23.17 -41.67,-47.5 -39.05,5.79 -20.23,-61.34 -61.96,-25.39 -13.48,-12.78 -31.01,5.71 -41.79,3.45 -0.13,1.3 -0.06,2.32 -0.12,3.51 -0.23,-2.82 -0.26,-5.91 0.12,-9.53" /><path
             id="path218"
             style="fill:rgba(255,255,255,0.9);fill-rule:nonzero;stroke:none"
             d="m 883.516,163.398 -47.903,-29.937 c 16.321,3.121 32.184,7.019 47.262,12.211 0.223,5.91 0.426,11.816 0.641,17.726" /><path
             id="path220"
             style="fill:rgba(255,255,255,0.9);fill-rule:nonzero;stroke:none"
             d="m 896.117,171.281 -12.601,-7.883 c -0.215,-5.91 -0.418,-11.816 -0.641,-17.726 -15.078,-5.192 -30.941,-9.09 -47.262,-12.211 l -50.254,-31.41 c 35.7,13.91 107.485,19.398 110.758,69.23" /><path
             id="path222"
             style="fill:rgba(255,255,255,0.9);fill-rule:nonzero;stroke:none"
             d="m 995.957,322.52 v -99.321 102.93 h -23.672 l -10.41,-179.981 34.602,-10.359 c 0,0 17.313,44.973 17.313,190.34 h -17.833 v -3.609" /><path
             id="path224"
             style="fill:none;stroke:#eee;stroke-width:30;stroke-linecap:butt;stroke-linejoin:miter;stroke-miterlimit:10;stroke-dasharray:none;stroke-opacity:1"
             d="m 995.957,322.52 v -99.321 102.93 h -23.672 l -10.41,-179.981 34.602,-10.359 c 0,0 17.313,44.973 17.313,190.34 h -17.833 z" /><path
             id="path226"
             style="fill:rgba(255,255,255,0.9);fill-rule:nonzero;stroke:none"
             d="m 881.309,458.582 c 0.171,-2.023 0.316,-4.012 0.476,-6.023 h 0.477 c -0.153,2 -0.321,4 -0.477,6.023 h -0.476" /><path
             id="path228"
             style="fill:rgba(255,255,255,0.9);fill-rule:nonzero;stroke:none"
             d="m 1655.72,1167.52 c -6.76,5.79 -10.8,0 -16.2,-2.32 1.6,-1.06 2.98,-2.32 4.35,-3.56 3.56,2.2 7.01,4.02 11.85,-0.13 23.6,0.94 26.52,19.7 26.06,37.31 -0.47,-15.62 -5.14,-30.46 -26.06,-31.3" /><path
             id="path230"
             style="fill:rgba(255,255,255,0.9);fill-rule:nonzero;stroke:none"
             d="m 1565.32,1085.41 c 3.01,35.93 53.69,11.11 83.64,24.02 5.34,6.63 7.36,14.84 6.65,22.94 -0.57,-6.05 -2.64,-11.94 -6.65,-16.93 -31.46,-13.55 -85.73,14.43 -83.64,-30.03" /><path
             id="path232"
             style="fill:rgba(255,255,255,0.9);fill-rule:nonzero;stroke:none"
             d="m 260.387,1087.25 c 0.902,4.87 3.152,9.87 2.019,14.65 -0.89,-4.92 -3.164,-9.92 -2.019,-14.65" /><path
             id="path234"
             style="fill:rgba(255,255,255,0.9);fill-rule:nonzero;stroke:none"
             d="m 386.82,1056.38 c 0.133,1.94 0.082,3.75 -0.066,5.48 -0.137,-1.74 -0.285,-3.48 -0.664,-5.4 0.25,-0.06 0.48,-0.02 0.73,-0.08" /><path
             id="path236"
             style="fill:rgba(255,255,255,0.9);fill-rule:nonzero;stroke:none"
             d="m 123.516,931.473 c -7.348,8.062 -15.391,20.339 -16.743,31.961 -1.484,-13.204 8.098,-28.5 16.743,-37.977 17.894,0.844 25.894,-0.637 28.382,-3.687 3.247,6.898 -1.082,10.992 -28.382,9.703" /><path
             id="path238"
             style="fill:rgba(255,255,255,0.9);fill-rule:nonzero;stroke:none"
             d="m 452.148,1088.6 c -1.101,-7.08 1.082,-13.26 11.442,-15.58 1.472,1.4 2.648,3.12 3.234,5.43 -9.597,1.23 -13.644,5.12 -14.676,10.15" /><path
             id="path240"
             style="fill:rgba(255,255,255,0.9);fill-rule:nonzero;stroke:none"
             d="m 266.195,845.805 c -24.187,3.461 -57.871,-33.516 -78.07,0 -1.316,26.648 -16.148,34.711 -44.437,30.086 -5.665,3.652 -8.407,7.539 -9.274,11.5 -1.195,-5.996 0.75,-12.024 9.274,-17.516 28.289,4.621 43.121,-3.437 44.437,-30.086 20.199,-33.516 53.883,3.457 78.07,0 12.59,-2.16 15.762,-7.559 16.356,-13.711 0.476,8.418 0.23,16.883 -16.356,19.727" /><path
             id="path242"
             style="fill:rgba(255,255,255,0.9);fill-rule:nonzero;stroke:none"
             d="m 695.727,673.32 c -10.809,10.461 -16.161,49.809 -25.59,16.231 -44.41,9.301 -28.313,-72.891 -41.719,-79.84 -9.441,-2.32 -32.328,-34.742 -45.781,-53.242 -21.575,-8.047 -43.102,-8.047 -64.629,0 -6.699,18.5 -22.863,10.453 -39.055,8.133 -16.824,13.019 -24.906,27.91 -28.988,43.546 -12.262,46.864 11.453,100.243 -57.215,128.856 -13.402,4.668 -28.262,17.336 -43.031,0 -35,17.336 -8.102,55.578 -41.758,77.57 -4.047,-3.496 -9.426,-3.496 -12.106,-8.125 -10.324,1.61 -12.921,6.192 -13.41,11.699 -0.472,-7.988 -0.527,-15.546 13.41,-17.714 2.68,4.609 8.059,4.609 12.106,8.125 33.656,-22.004 6.758,-60.235 41.758,-77.579 14.769,17.344 29.629,4.676 43.031,0 68.668,-28.601 44.953,-81.98 57.215,-128.851 4.082,-15.629 12.164,-30.539 28.988,-43.539 16.192,2.308 32.356,10.371 39.055,-8.141 21.527,-8.058 43.054,-8.058 64.629,0 13.453,18.512 36.34,50.922 45.781,53.231 13.406,6.968 -2.691,89.152 41.719,79.859 9.429,33.57 14.781,-5.769 25.59,-16.23 65.968,-60.137 149.41,-115.719 184.449,-194.36 0.453,-4.82 0.73,-9.57 1.133,-14.367 h 0.476 c -0.539,6.789 -0.969,13.547 -1.609,20.387 -35.039,78.652 -118.481,134.23 -184.449,194.351" /><path
             id="path244"
             style="fill:rgba(255,255,255,0.9);fill-rule:nonzero;stroke:none"
             d="m 324.105,1220.77 c -0.445,2.43 -0.652,5.02 -0.769,7.65 -0.121,-4.78 -0.008,-9.43 0.769,-13.67 9.485,-4.57 18.879,-7.76 20.602,-16.67 1.949,13.72 -9.258,17.22 -20.602,22.69" /><path
             id="path246"
             style="fill:rgba(255,255,255,0.9);fill-rule:nonzero;stroke:none"
             d="m 1665.09,1234.66 c -1.36,-2.93 -1.25,-5.2 -0.27,-7.05 0.13,0.35 0.09,0.65 0.27,1.03 5.27,9.9 17.82,10.01 29.48,11.77 l -23.95,0.05 c -2.21,-1.45 -4.16,-3.23 -5.53,-5.8" /><path
             id="path248"
             style="fill:rgba(255,255,255,0.9);fill-rule:nonzero;stroke:none"
             d="m 441.254,1115.44 c -26.906,1.13 -10.758,65.94 -52.481,30.04 -19.718,4.56 -35.546,28.9 -43.808,48.34 -0.094,-1.41 -0.238,-2.87 -0.656,-4.55 8.078,-19.65 24.253,-45.14 44.464,-49.81 41.723,35.9 25.575,-28.92 52.481,-30.03 12.066,6.82 17.961,9.16 20.269,8.61 3.133,7.46 1.344,9.62 -20.269,-2.6" /><path
             id="path250"
             style="fill:rgba(255,255,255,0.9);fill-rule:nonzero;stroke:none"
             d="m 171.656,1054.71 c -1.789,-8.28 5.223,-18 7.199,-25.6 2.379,6.37 -5.48,16.32 -7.199,25.6" /><path
             id="path252"
             style="fill:rgba(255,255,255,0.9);fill-rule:nonzero;stroke:none"
             d="m 1507.59,695.359 c -0.72,-3.078 -0.8,-5.847 -0.4,-8.379 0.1,0.782 0.21,1.559 0.4,2.372 5.23,14.507 19.12,13.886 31.01,6.507 0.38,1.672 0.8,3.403 1.33,5.262 -12.16,8.16 -26.92,9.289 -32.34,-5.762" /><path
             id="path254"
             style="fill:rgba(255,255,255,0.9);fill-rule:nonzero;stroke:none"
             d="m 1491.46,620.121 c 0,-14.473 -21.9,-43.101 -49,-69.41 -27.1,-26.332 -108.56,-45.141 -116.64,-32.402 -1.55,2.921 -2.28,6.031 -2.55,9.23 -0.49,-5.359 0.05,-10.527 2.55,-15.238 8.08,-12.75 89.54,6.058 116.64,32.39 27.1,26.321 49,54.938 49,69.399 9.39,16.211 32.29,-9.199 51.14,3.492 5.31,8.219 6.8,14.617 5.92,19.887 -0.64,-3.989 -2.48,-8.539 -5.92,-13.86 -18.85,-12.687 -41.75,12.7 -51.14,-3.488" /><path
             id="path256"
             style="fill:rgba(255,255,255,0.9);fill-rule:nonzero;stroke:none"
             d="m 1623.39,661.801 c -22.22,32.148 -82.86,-12.321 -86.23,19.097 -3.52,-42.648 62.77,8.821 86.23,-25.128 20.15,0 43.05,-11.571 61.92,0 3.04,4.191 3.03,9.351 2.76,14.492 -0.23,-3.032 -0.92,-5.934 -2.76,-8.461 -18.87,-11.582 -41.77,0 -61.92,0" /><path
             id="path258"
             style="fill:rgba(255,255,255,0.9);fill-rule:nonzero;stroke:none"
             d="m 1219.44,625.879 c -13.47,-9.219 -37.67,-16.168 -41.73,3.5 -1.63,3.312 -2.42,6.519 -2.74,9.68 -0.58,-5.039 0.06,-10.25 2.74,-15.7 4.06,-19.679 28.26,-12.711 41.73,-3.488 23.46,17.141 40.74,10.598 42.18,-11.191 1.51,26.5 -16.69,35.832 -42.18,17.199" /><path
             id="path260"
             style="fill:rgba(255,255,255,0.9);fill-rule:nonzero;stroke:none"
             d="m 1196.61,709.281 c -59.26,-19.73 -110.45,-52.09 -152.18,-97.242 -9.15,-47.617 -12.46,-95.84 -12.65,-144.457 0.43,46.578 3.88,92.789 12.65,138.449 41.73,45.129 92.92,77.508 152.18,97.219 0.97,-2.148 1.45,-4.27 1.73,-6.379 0.52,4.07 0.17,8.188 -1.73,12.41" /><path
             id="path262"
             style="fill:rgba(255,255,255,0.9);fill-rule:nonzero;stroke:none"
             d="m 1313.72,595.84 c -17.25,-13.668 -43.52,-11.559 -52.06,7.301 -0.08,-1.672 -0.23,-3.411 -0.47,-5.211 8.1,-19.692 35.02,-21.989 52.53,-8.098 12.83,-4.281 17.6,-10.863 18.5,-18.66 0.98,10.398 -2.48,19.34 -18.5,24.668" /><path
             id="path264"
             style="fill:rgba(255,255,255,0.9);fill-rule:nonzero;stroke:none"
             d="m 1690.7,693.051 c -3.08,-3.711 -3.05,-8.629 -2.78,-13.77 0.24,2.867 0.94,5.528 2.78,7.739 28.3,-16.2 57.88,3.449 78.1,13.902 -0.53,2.09 -0.67,3.93 -0.65,5.68 -20.2,-10.532 -49.44,-29.614 -77.45,-13.551" /><path
             id="path266"
             style="fill:rgba(255,255,255,0.9);fill-rule:nonzero;stroke:none"
             d="m 1786.35,769.133 c 4.3,14.14 38.36,21.066 40.28,39.426 3,5.976 3.95,12.109 3.44,18.054 -0.36,-4.011 -1.44,-8.066 -3.44,-12.039 -2.17,-20.781 -45.51,-26.914 -40.28,-45.441" /><path
             id="path268"
             style="fill:rgba(255,255,255,0.9);fill-rule:nonzero;stroke:none"
             d="m 1819.59,856.891 c 6.36,8.863 8.13,18.136 7.61,27.589 -0.46,-8.5 -3.1,-16.82 -9.94,-24.765 0.82,-0.891 1.56,-1.871 2.33,-2.824" /><path
             id="path270"
             style="fill:rgba(255,255,255,0.9);fill-rule:nonzero;stroke:none"
             d="m 1759.36,1064.54 c 1.29,-0.7 2.4,-1.48 3.52,-2.26 5.43,4.37 12.81,4.99 19.36,7.83 0,8.62 11.28,19.23 8.54,27.88 -1.75,-7.26 -8.54,-15.15 -8.54,-21.85 -8.09,-3.53 -17.52,-3.53 -22.88,-11.6" /><path
             id="path272"
             style="fill:rgba(255,255,255,0.9);fill-rule:nonzero;stroke:none"
             d="m 1772.1,987.355 c 1.5,12.516 4.96,27.415 4.38,40.825 -0.5,-14.17 -4.34,-29.325 -4.98,-41.196 0.2,0.141 0.4,0.235 0.6,0.371" /><path
             id="path274"
             style="fill:rgba(255,255,255,0.9);fill-rule:nonzero;stroke:none"
             d="m 1819.29,936.363 c 0.33,5.735 1.63,11.364 4.67,16.805 -0.23,1.332 -0.54,2.664 -0.91,3.984 -3.23,-6.714 -4.15,-13.679 -3.76,-20.789" /><path
             id="path276"
             style="fill:rgba(255,255,255,0.9);fill-rule:nonzero;stroke:none"
             d="m 1768.38,709.648 c 3.41,17.153 33.56,17.485 30.14,37.641 -3.26,-16.113 -32.96,-16.719 -30.14,-37.641" /><path
             id="path278"
             style="fill:rgba(255,255,255,0.9);fill-rule:nonzero;stroke:none"
             d="m 1031.79,458.238 -150.005,0.344 c 0.156,-2.023 0.324,-4.023 0.477,-6.023 l 149.558,-0.329 c -0.01,2 -0.03,4 -0.03,6.008" /><path
             id="path280"
             style="fill:rgba(255,255,255,0.9);fill-rule:nonzero;stroke:none"
             d="m 1041.24,1025.02 c 1.03,1.23 2.23,2.34 3.19,3.62 -15.48,9.87 -19.44,23.53 -19.87,38.26 -0.42,-15.86 2.11,-30.84 16.68,-41.88" /><path
             id="path282"
             style="fill:rgba(255,255,255,0.9);fill-rule:nonzero;stroke:none"
             d="m 993.246,1067.77 c 25.604,15.05 4.055,35.85 29.654,52.08 2.26,-5.62 3.16,-11.72 3.37,-18.08 0.21,8.52 -0.4,16.73 -3.37,24.1 -25.599,-16.23 -4.05,-37.04 -29.654,-52.08 -13.301,-9.39 -16.769,-19.95 -15.828,-30.84 0.742,8.75 5,17.17 15.828,24.82" /><path
             id="path284"
             style="fill:rgba(255,255,255,0.9);fill-rule:nonzero;stroke:none"
             d="m 944.109,1022.07 c -0.265,-10.77 1.207,-22.621 1.481,-33.785 0.289,10.828 -1.192,22.675 -1.481,33.785" /><path
             id="path286"
             style="fill:rgba(255,255,255,0.9);fill-rule:nonzero;stroke:none"
             d="m 944.785,1036.79 h -18.84 c 0.586,-1.84 0.942,-3.95 1.321,-6.02 h 16.945 c 0.109,2.05 0.281,4.07 0.574,6.02" /><path
             id="path288"
             style="fill:rgba(255,255,255,0.9);fill-rule:nonzero;stroke:none"
             d="m 1055.24,784.211 c 28.28,-3.27 52.92,27.101 79.76,10.605 1.25,1.243 2.5,2.442 3.69,3.586 -28.29,21.934 -53.88,-11.601 -83.45,-8.175 -17.1,6.269 -23.12,20.207 -26.1,33.957 -0.27,-0.606 -0.63,-1.133 -0.87,-1.758 2.69,-15.02 8.09,-31.289 26.97,-38.215" /><path
             id="path290"
             style="fill:rgba(255,255,255,0.9);fill-rule:nonzero;stroke:none"
             d="m 1067.33,861.977 c 0,19.707 -20.54,38.347 -22.65,56.996 -2.34,-18.848 18.41,-37.582 22.08,-57.289 0.19,0.089 0.39,0.199 0.57,0.293" /><path
             id="path292"
             style="fill:rgba(255,255,255,0.9);fill-rule:nonzero;stroke:none"
             d="m 1125.21,748.324 c 9.44,-13.886 31.02,-19.629 43.07,-9.219 1.37,8.067 10.78,10.43 18.86,11.602 1.65,-3.379 2.45,-6.184 2.88,-8.73 0.91,3.652 0.22,8.386 -2.88,14.746 -8.08,-1.172 -17.49,-3.535 -18.86,-11.602 -12.05,-10.41 -33.63,-4.668 -43.07,9.219 -3.65,3.426 -5.51,6.972 -6.17,10.527 -0.99,-5.558 0.46,-11.191 6.17,-16.543" /><path
             id="path294"
             style="fill:rgba(255,255,255,0.9);fill-rule:nonzero;stroke:none"
             d="m 1099.62,1008.71 c 0.13,-0.32 0.15,-0.61 0.24,-0.92 0.63,2.23 0.71,4.51 -0.24,6.94 -5.41,48.63 -32.29,-5.71 -41.72,-16.183 -36.43,-40.828 -45.48,-93.563 -45.29,-148.383 0.5,52.652 10.2,103.031 45.29,142.367 9.43,10.469 36.31,64.809 41.72,16.179" /><path
             id="path296"
             style="fill:rgba(255,255,255,0.9);fill-rule:nonzero;stroke:none"
             d="m 896.992,874.867 c -0.445,-6.199 -2.465,-12.305 -7.387,-18.652 1.192,-0.371 2.114,-0.953 2.918,-1.621 4,6.804 5.012,13.429 4.469,20.273" /><path
             id="path298"
             style="fill:rgba(255,255,255,0.9);fill-rule:nonzero;stroke:none"
             d="m 909.281,857.836 c 0.16,19.48 -4.652,38.976 -10.242,57.355 -11.883,0 -21.519,-5.609 -16.738,-11.351 2.664,3.09 9.242,5.336 16.738,5.336 5.016,-16.485 9.484,-33.871 10.242,-51.34" /><path
             id="path300"
             style="fill:rgba(255,255,255,0.9);fill-rule:nonzero;stroke:none"
             d="m 845.137,812.289 c -12.117,-16.223 -20.16,6.914 -36.328,0 1.91,-1.465 3.558,-3.086 5.101,-4.785 12.891,0.957 20.453,-15.645 31.227,-1.231 72.054,-55.195 57.531,-153.011 64.101,-229.691 0.176,-0.133 0.367,-0.293 0.543,-0.434 -8.062,77.551 9.43,179.403 -64.644,236.141" /><path
             id="path302"
             style="fill:rgba(255,255,255,0.9);fill-rule:nonzero;stroke:none"
             d="m 838.594,705.449 c -3.121,-16.398 -27.856,-31.719 -32.465,-45.961 0.609,-0.566 1.32,-1.168 1.945,-1.75 8.371,14.762 33.313,30.672 30.52,47.711" /><path
             id="path304"
             style="fill:rgba(255,255,255,0.9);fill-rule:nonzero;stroke:none"
             d="m 824.977,728.91 c 0.136,-0.098 0.214,-0.187 0.351,-0.273 0.672,9.863 1.668,20.867 1.469,31.699 -0.199,-11.008 -1.336,-21.953 -1.82,-31.426" /><path
             id="path306"
             style="fill:rgba(255,255,255,0.9);fill-rule:nonzero;stroke:none"
             d="m 1044.43,1022.62 c -1.19,0.76 -2.13,1.59 -3.19,2.4 -11.93,-14.29 -27.93,-25.438 -45.283,-40.387 0,17.267 -16.809,38.367 -18.539,58.317 -1.836,-21.66 18.539,-45.325 18.539,-64.341 18.843,16.243 36.333,27.831 48.473,44.011" /><path
             id="path308"
             style="fill:rgba(255,255,255,0.9);fill-rule:nonzero;stroke:none"
             d="m 1026.27,1101.77 c -0.29,-11.46 -2.04,-23.48 -1.71,-34.87 0.3,11.6 2.07,23.63 1.71,34.87" /><path
             id="path310"
             style="fill:rgba(255,255,255,0.9);fill-rule:nonzero;stroke:none"
             d="m 1041.24,1025.02 c -14.57,11.04 -17.1,26.02 -16.68,41.88 -0.33,11.39 1.42,23.41 1.71,34.87 -0.21,6.36 -1.11,12.46 -3.37,18.08 -25.599,-16.23 -4.05,-37.03 -29.654,-52.08 -10.828,-7.65 -15.086,-16.07 -15.828,-24.82 1.73,-19.95 18.539,-41.05 18.539,-58.317 17.353,14.949 33.353,26.097 45.283,40.387" /><path
             id="path312"
             style="fill:rgba(255,255,255,0.9);fill-rule:nonzero;stroke:none"
             d="m 925.945,1030.77 c 2.258,-7.02 2.789,-16.06 2.832,-25.69 0.129,9.31 -0.129,18.16 -1.511,25.69 h -1.321" /><path
             id="path314"
             style="fill:rgba(255,255,255,0.9);fill-rule:nonzero;stroke:none"
             d="m 931.328,956.898 c -2.262,7.004 -2.793,16.047 -2.836,25.668 -0.168,-11.871 0.113,-23.222 2.836,-31.683 12.613,7.82 14.633,21.926 14.262,37.402 -0.352,-13.055 -3.309,-24.59 -14.262,-31.387" /><path
             id="path316"
             style="fill:rgba(255,255,255,0.9);fill-rule:nonzero;stroke:none"
             d="m 944.785,1030.77 h -0.574 c -0.164,-2.82 -0.172,-5.73 -0.102,-8.7 0.079,2.99 0.254,5.91 0.676,8.7" /><path
             id="path318"
             style="fill:rgba(255,255,255,0.9);fill-rule:nonzero;stroke:none"
             d="m 945.59,988.285 c -0.274,11.164 -1.746,23.015 -1.481,33.785 -0.07,2.97 -0.062,5.88 0.102,8.7 h -16.945 c 1.382,-7.53 1.64,-16.38 1.511,-25.69 -0.105,-7.514 -0.32,-15.162 -0.285,-22.514 0.043,-9.621 0.574,-18.664 2.836,-25.668 10.953,6.797 13.91,18.332 14.262,31.387" /><path
             id="path320"
             style="fill:rgba(255,255,255,0.9);fill-rule:nonzero;stroke:none"
             d="m 1028.27,828.449 c 0.25,-1.414 0.56,-2.84 0.87,-4.265 7.32,16.191 25.18,25.121 38.19,31.777 0,1.918 -0.21,3.82 -0.57,5.723 -13.44,-6.864 -31.84,-16.114 -38.49,-33.235" /><path
             id="path322"
             style="fill:rgba(255,255,255,0.9);fill-rule:nonzero;stroke:none"
             d="m 1057.9,945.332 c -11.18,-8.859 -14.21,-17.609 -13.22,-26.359 0.84,6.746 4.6,13.511 13.22,20.336 25.59,8.109 -6.74,46.242 34.97,49.773 3.88,6.629 8.9,12.148 6.99,18.708 -1.17,-4.17 -4.35,-8.173 -6.99,-12.688 -41.71,-3.536 -9.38,-41.661 -34.97,-49.77" /><path
             id="path324"
             style="fill:rgba(255,255,255,0.9);fill-rule:nonzero;stroke:none"
             d="m 1022.91,682.648 c 0.18,50.676 -10.1,110.227 -10.3,167.516 -0.53,-56.859 9.68,-116.391 10.3,-167.516" /><path
             id="path326"
             style="fill:rgba(255,255,255,0.9);fill-rule:nonzero;stroke:none"
             d="m 1119.04,764.867 c 1.79,10.137 11.81,20.02 19.65,27.52 -1.24,0.957 -2.46,1.679 -3.69,2.429 -8.65,-8.543 -17.92,-19.324 -15.96,-29.949" /><path
             id="path328"
             style="fill:rgba(255,255,255,0.9);fill-rule:nonzero;stroke:none"
             d="m 1131.94,720.82 c -9.41,-17.398 -36.35,5.805 -48.45,-13.89 -14.81,-17.379 -36.4,-27.809 -60.58,-27.809 0.01,-2.012 0.02,-4.039 0,-6.012 24.18,0 45.77,10.43 60.58,27.801 12.1,19.699 39.04,-3.512 48.45,13.899 14.67,12.578 62.27,2.492 58.08,27.168 -4.2,-17.043 -44.76,-9.727 -58.08,-21.157" /><path
             id="path330"
             style="fill:rgba(255,255,255,0.9);fill-rule:nonzero;stroke:none"
             d="m 1083.49,706.93 c 12.1,19.695 39.04,-3.508 48.45,13.89 13.32,11.43 53.88,4.114 58.08,21.157 -0.43,2.546 -1.23,5.351 -2.88,8.73 -8.08,-1.172 -17.49,-3.535 -18.86,-11.602 -12.05,-10.41 -33.63,-4.667 -43.07,9.219 -5.71,5.352 -7.16,10.985 -6.17,16.543 -1.96,10.625 7.31,21.406 15.96,29.949 -26.84,16.496 -51.48,-13.875 -79.76,-10.605 -18.88,6.926 -24.28,23.195 -26.97,38.215 0.24,0.625 0.6,1.152 0.87,1.758 -0.31,1.425 -0.62,2.851 -0.87,4.265 6.65,17.121 25.05,26.371 38.49,33.235 -3.67,19.707 -24.42,38.441 -22.08,57.289 -0.99,8.75 2.04,17.5 13.22,26.359 25.59,8.109 -6.74,46.234 34.97,49.77 2.64,4.515 5.82,8.518 6.99,12.688 -0.09,0.31 -0.11,0.6 -0.24,0.92 -5.41,48.63 -32.29,-5.71 -41.72,-16.179 -35.09,-39.336 -44.79,-89.715 -45.29,-142.367 0.2,-57.289 10.48,-116.84 10.3,-167.516 0,-1.168 0.01,-2.367 0,-3.527 24.18,0 45.77,10.43 60.58,27.809" /><path
             id="path332"
             style="fill:rgba(255,255,255,0.9);fill-rule:nonzero;stroke:none"
             d="m 896.238,834.574 c -0.191,-7.832 -0.863,-14.433 9.528,-8.691 3.062,10.547 3.98,21.269 3.515,31.953 -0.066,-8.684 -1.023,-17.363 -3.515,-25.938 -7.481,-4.14 -9.207,-1.836 -9.528,2.676" /><path
             id="path334"
             style="fill:rgba(255,255,255,0.9);fill-rule:nonzero;stroke:none"
             d="m 892.523,854.594 c -0.851,-1.457 -1.769,-2.918 -2.918,-4.395 5.098,-1.594 6.352,-6.191 6.594,-11.133 0.156,5.586 0.403,12.176 -3.676,15.528" /><path
             id="path336"
             style="fill:rgba(255,255,255,0.9);fill-rule:nonzero;stroke:none"
             d="m 893.617,891.824 c 1.598,-5.941 2.945,-11.523 3.375,-16.957 0.531,7.348 -1.18,14.817 -3.375,22.977 -6.055,1.847 -9.594,3.929 -11.316,5.996 -3.082,-3.57 -0.934,-8.278 11.316,-12.016" /><path
             id="path338"
             style="fill:rgba(255,255,255,0.9);fill-rule:nonzero;stroke:none"
             d="m 896.992,874.867 c 0.543,-6.844 -0.469,-13.469 -4.469,-20.273 4.079,-3.352 3.832,-9.942 3.676,-15.528 -0.043,-1.632 -0.051,-3.144 0.039,-4.492 0.321,-4.512 2.047,-6.816 9.528,-2.676 2.492,8.575 3.449,17.254 3.515,25.938 -0.758,17.469 -5.226,34.855 -10.242,51.34 -7.496,0 -14.074,-2.246 -16.738,-5.336 1.722,-2.067 5.261,-4.149 11.316,-5.996 2.195,-8.16 3.906,-15.629 3.375,-22.977" /><path
             id="path340"
             style="fill:rgba(255,255,255,0.9);fill-rule:nonzero;stroke:none"
             d="m 825.328,728.637 c -0.137,-1.973 -0.262,-3.887 -0.351,-5.746 8.789,-5.93 12.683,-11.75 13.617,-17.442 1.426,7.5 -1.692,15.231 -13.266,23.188" /><path
             id="path342"
             style="fill:rgba(255,255,255,0.9);fill-rule:nonzero;stroke:none"
             d="m 806.129,653.48 c 28.25,-26.628 71.355,-56.691 103.652,-83.339 -0.219,2.109 -0.355,4.308 -0.543,6.441 -31.535,25.977 -73.062,55.098 -101.164,81.156 -0.808,-1.429 -1.492,-2.847 -1.945,-4.258" /><path
             id="path344"
             style="fill:rgba(255,255,255,0.9);fill-rule:nonzero;stroke:none"
             d="m 808.809,806.273 c 14.019,-10.761 17.656,-28.085 17.988,-45.937 0.316,17.461 -1.824,35.039 -12.887,47.168 -1.613,-0.117 -3.301,-0.469 -5.101,-1.231" /><path
             id="path346"
             style="fill:rgba(255,255,255,0.9);fill-rule:nonzero;stroke:none"
             d="m 845.137,806.273 c -10.774,-14.414 -18.336,2.188 -31.227,1.231 11.063,-12.129 13.203,-29.707 12.887,-47.168 0.199,-10.832 -0.797,-21.836 -1.469,-31.699 11.574,-7.957 14.692,-15.688 13.266,-23.188 2.793,-17.039 -22.149,-32.949 -30.52,-47.711 28.102,-26.058 69.629,-55.179 101.164,-81.156 -6.57,76.68 7.953,174.496 -64.101,229.691" /></g></g></g></g></svg>