<svg xmlns="http://www.w3.org/2000/svg" viewBox="0 0 710.8125 215.375" id="parks-logo">
  <g
    transform="matrix(1.25,0,0,-1.25,0,215.375)"
    id="g10">
    <g
    transform="scale(0.1,0.1)"
    id="g12">
      <path
    id="path14"
    style="fill:#fff;fill-opacity:0.9;fill-rule:nonzero;stroke:none"
    d="m 4100.98,120.43 c 0,-2.391 0.21,-4.989 0.8,-7.192 3,-12.156 13.77,-20.5388 26.15,-20.5388 18.56,0 29.34,15.1528 29.34,37.3128 0,19.367 -9.98,35.929 -28.54,35.929 -11.98,0 -23.35,-8.382 -26.74,-21.562 -0.4,-2.391 -1.01,-4.981 -1.01,-7.18 l 0,-16.769 z m -17.56,25.742 c 0,12.387 -0.19,22.367 -0.8,31.547 l 15.77,0 1,-16.571 0.4,0 c 6.98,11.981 18.55,18.75 34.13,18.75 23.55,0 41.11,-19.75 41.11,-49.089 0,-34.7192 -21.35,-51.8871 -43.91,-51.8871 -12.97,0 -23.95,5.5898 -29.74,15.1562 l -0.4,0 0,-52.4765 -17.56,0 0,104.5704" />
      <path
    id="path16"
    style="fill:#fff;fill-opacity:0.9;fill-rule:nonzero;stroke:none"
    d="m 4247.9,130.41 c -19.16,0.399 -40.92,-2.988 -40.92,-21.762 0,-11.5699 7.58,-16.7496 16.36,-16.7496 12.78,0 20.96,7.9805 23.75,16.1606 0.6,1.8 0.81,3.8 0.81,5.589 l 0,16.762 z m 17.15,-26.14 c 0,-8.3911 0.4,-16.5708 1.4,-23.1489 l -15.76,0 -1.6,12.1602 -0.6,0 c -5.19,-7.5704 -15.77,-14.3594 -29.54,-14.3594 -19.56,0 -29.54,13.7773 -29.54,27.7381 0,23.352 20.76,36.129 58.09,35.93 l 0,1.988 c 0,7.981 -2.2,22.551 -21.97,22.363 -9.18,0 -18.55,-2.601 -25.34,-7.191 l -3.99,11.781 c 7.98,4.989 19.76,8.367 31.93,8.367 29.74,0 36.92,-20.148 36.92,-39.507 l 0,-36.121" /><path
    id="path18"
    style="fill:#fff;fill-opacity:0.9;fill-rule:nonzero;stroke:none"
    d="m 4293.41,147.582 c 0,11.367 -0.19,21.148 -0.79,30.137 l 15.36,0 0.8,-18.969 0.6,0 c 4.39,12.969 15.18,21.148 26.94,21.148 1.8,0 3.2,-0.187 4.8,-0.589 l 0,-16.36 c -1.99,0.199 -3.79,0.391 -6.19,0.391 -12.38,0 -21.16,-9.371 -23.55,-22.352 -0.4,-2.59 -0.6,-5.379 -0.6,-8.379 l 0,-51.4879 -17.56,0 0.19,66.4609" /><path
    id="path20"
    style="fill:#fff;fill-opacity:0.9;fill-rule:nonzero;stroke:none"
    d="m 4376.84,133.398 0.4,0 c 2.4,3.403 5.6,7.793 8.39,10.981 l 28.54,33.34 20.95,0 -37.32,-39.731 42.52,-56.8669 -21.36,0 -33.13,46.4999 -8.99,-10.18 0,-36.3199 -17.56,0 0,141.6879 17.56,0 0,-89.411" /><path
    id="path22"
    style="fill:#fff;fill-opacity:0.9;fill-rule:nonzero;stroke:none"
    d="m 4450.51,98.8789 c 5.39,-3.1875 14.57,-6.7891 23.35,-6.7891 12.57,0 18.57,6.1915 18.57,14.3792 0,8.383 -4.99,12.972 -17.77,17.75 -17.57,6.39 -25.75,15.769 -25.75,27.34 0,15.57 12.77,28.339 33.33,28.339 9.79,0 18.37,-2.578 23.56,-5.968 l -4.19,-12.578 c -3.8,2.187 -10.78,5.589 -19.77,5.589 -10.37,0 -15.97,-5.992 -15.97,-13.179 0,-8.172 5.6,-11.774 18.17,-16.563 16.57,-6.179 25.35,-14.57 25.35,-29.14 0,-17.1606 -13.38,-29.1371 -35.93,-29.1371 -10.57,0 -20.36,2.7969 -27.15,6.789 l 4.2,13.168" /><path
    id="path24"
    style="fill:#fff;fill-opacity:0.9;fill-rule:nonzero;stroke:none"
    d="m 4537.34,78.9219 c -6.79,0 -11.57,5.3867 -11.57,12.5781 0,7.1719 4.99,12.559 11.97,12.559 6.98,0 11.78,-5.1801 11.78,-12.559 0,-7.1914 -4.8,-12.5781 -11.98,-12.5781 l -0.2,0" /><path
    id="path26"
    style="fill:#fff;fill-opacity:0.9;fill-rule:nonzero;stroke:none"
    d="m 4571.47,147.582 c 0,11.367 -0.2,21.148 -0.79,30.137 l 15.36,0 0.8,-18.969 0.6,0 c 4.39,12.969 15.17,21.148 26.94,21.148 1.8,0 3.19,-0.187 4.79,-0.589 l 0,-16.36 c -1.99,0.199 -3.78,0.391 -6.19,0.391 -12.37,0 -21.15,-9.371 -23.54,-22.352 -0.4,-2.59 -0.61,-5.379 -0.61,-8.379 l 0,-51.4879 -17.56,0 0.2,66.4609" /><path
    id="path28"
    style="fill:#fff;fill-opacity:0.9;fill-rule:nonzero;stroke:none"
    d="m 4686.45,130.41 c -19.16,0.399 -40.92,-2.988 -40.92,-21.762 0,-11.5699 7.58,-16.7496 16.37,-16.7496 12.77,0 20.96,7.9805 23.75,16.1606 0.6,1.8 0.8,3.8 0.8,5.589 l 0,16.762 z m 17.16,-26.14 c 0,-8.3911 0.4,-16.5708 1.39,-23.1489 l -15.76,0 -1.6,12.1602 -0.59,0 c -5.2,-7.5704 -15.78,-14.3594 -29.55,-14.3594 -19.56,0 -29.54,13.7773 -29.54,27.7381 0,23.352 20.77,36.129 58.09,35.93 l 0,1.988 c 0,7.981 -2.2,22.551 -21.96,22.363 -9.18,0 -18.56,-2.601 -25.34,-7.191 l -4,11.781 c 7.99,4.989 19.77,8.367 31.93,8.367 29.74,0 36.93,-20.148 36.93,-39.507 l 0,-36.121" /><path
    id="path30"
    style="fill:#fff;fill-opacity:0.9;fill-rule:nonzero;stroke:none"
    d="m 4731.76,81.1211 17.5586,0 0,141.688 -17.5586,0 0,-141.688 z" /><path
    id="path32"
    style="fill:#fff;fill-opacity:0.9;fill-rule:nonzero;stroke:none"
    d="m 4839.74,139 c 0.21,10.969 -4.59,28.539 -24.15,28.539 -17.96,0 -25.55,-16.367 -26.94,-28.539 l 51.09,0 z m -51.29,-12.57 c 0.4,-23.758 15.36,-33.5394 32.93,-33.5394 12.58,0 20.36,2.1914 26.75,4.7891 l 3.19,-12.3789 c -6.19,-2.7891 -16.97,-6.1797 -32.33,-6.1797 -29.54,0 -47.5,19.7578 -47.5,48.6879 0,29.339 17.36,52.3 45.5,52.3 31.53,0 39.71,-27.738 39.71,-45.507 0,-3.582 -0.19,-6.383 -0.59,-8.383 l -67.66,0.211" /><path
    id="path34"
    style="fill:#fff;fill-opacity:0.9;fill-rule:nonzero;stroke:none"
    d="m 4878.48,81.1211 0,96.5979 17.56,0 0,-96.5979 -17.56,0 z m 8.38,114.3479 c -6.58,0 -10.98,5.203 -10.98,11.39 0,6.18 4.59,11.172 11.38,11.172 6.79,0 11.18,-4.992 11.18,-11.172 0,-6.187 -4.39,-11.39 -11.37,-11.39 l -0.21,0" /><path
    id="path36"
    style="fill:#fff;fill-opacity:0.9;fill-rule:nonzero;stroke:none"
    d="m 4990.26,139.789 c 0,2.801 -0.21,5.391 -1.01,7.793 -3.19,10.367 -11.57,18.758 -24.54,18.758 -16.77,0 -28.74,-14.168 -28.74,-36.731 0,-18.757 9.78,-34.7301 28.54,-34.7301 10.97,0 20.76,6.7931 24.34,18.1721 1.01,2.789 1.41,6.187 1.41,9.371 l 0,17.367 z m 17.56,-44.4999 c 0,-22.3594 -4.59,-35.7305 -13.77,-44.3086 -9.58,-8.5899 -23.16,-11.5821 -35.33,-11.5821 -11.58,0 -24.35,2.793 -32.13,7.9805 l 4.39,13.582 c 6.39,-4.1992 16.37,-7.7812 28.34,-7.7812 17.96,0 31.13,9.3789 31.13,33.9219 l 0,10.5781 -0.4,0 c -5.18,-8.9883 -15.76,-16.1602 -30.73,-16.1602 -23.95,0 -41.11,20.3595 -41.11,47.2895 0,32.742 21.35,51.089 43.7,51.089 16.77,0 25.75,-8.566 30.15,-16.558 l 0.39,0 0.6,14.379 15.57,0 c -0.61,-6.789 -0.8,-14.571 -0.8,-26.348 l 0,-56.0819" /><path
    id="path38"
    style="fill:#fff;fill-opacity:0.9;fill-rule:nonzero;stroke:none"
    d="m 5036.77,222.809 17.56,0 0,-60.27 0.4,0 c 2.79,5 7.19,9.59 12.58,12.383 5.19,3.187 11.38,4.976 17.96,4.976 12.98,0 33.73,-7.968 33.73,-41.296 l 0,-57.4809 -17.56,0 0,55.4809 c 0,15.769 -5.79,28.726 -22.35,28.726 -11.38,0 -20.16,-7.969 -23.56,-17.547 -0.99,-2.402 -1.2,-4.992 -1.2,-8.383 l 0,-58.2769 -17.56,0 0,141.6879" /><path
    id="path40"
    style="fill:#fff;fill-opacity:0.9;fill-rule:nonzero;stroke:none"
    d="m 5147.55,151.559 c 0,10.191 -0.2,18.171 -0.8,26.16 l 15.57,0 1.01,-15.77 0.39,0 c 4.79,8.981 15.96,17.949 31.93,17.949 13.38,0 34.13,-7.968 34.13,-41.109 l 0,-57.6679 -17.56,0 0,55.6799 c 0,15.57 -5.79,28.738 -22.35,28.738 -11.38,0 -20.36,-8.18 -23.56,-17.957 -0.8,-2.203 -1.2,-5.391 -1.2,-8.184 l 0,-58.2769 -17.56,0 0,70.4379" /><path
    id="path42"
    style="fill:#fff;fill-opacity:0.9;fill-rule:nonzero;stroke:none"
    d="m 5327.2,84.5117 c -4.59,-2.2031 -14.77,-5.5898 -27.74,-5.5898 -29.14,0 -48.1,19.75 -48.1,49.5001 0,29.738 20.35,51.476 51.89,51.476 10.38,0 19.56,-2.578 24.35,-5.179 l -3.99,-13.367 c -4.19,2.187 -10.78,4.589 -20.36,4.589 -22.15,0 -34.12,-16.562 -34.12,-36.722 0,-22.36 14.36,-36.1292 33.52,-36.1292 9.98,0 16.56,2.3985 21.55,4.5899 l 3,-13.168" /><path
    id="path44"
    style="fill:#fff;fill-opacity:0.9;fill-rule:nonzero;stroke:none"
    d="m 5353.35,78.9219 c -6.78,0 -11.57,5.3867 -11.57,12.5781 0,7.1719 4.99,12.559 11.97,12.559 6.99,0 11.78,-5.1801 11.78,-12.559 0,-7.1914 -4.79,-12.5781 -11.97,-12.5781 l -0.21,0" /><path
    id="path46"
    style="fill:#fff;fill-opacity:0.9;fill-rule:nonzero;stroke:none"
    d="m 5452.36,139.789 c 0,2.801 -0.21,5.391 -1.01,7.793 -3.19,10.367 -11.57,18.758 -24.54,18.758 -16.77,0 -28.74,-14.168 -28.74,-36.731 0,-18.757 9.78,-34.7301 28.54,-34.7301 10.97,0 20.76,6.7931 24.35,18.1721 1,2.789 1.4,6.187 1.4,9.371 l 0,17.367 z m 17.56,-44.4999 c 0,-22.3594 -4.59,-35.7305 -13.77,-44.3086 -9.58,-8.5899 -23.16,-11.5821 -35.33,-11.5821 -11.58,0 -24.35,2.793 -32.13,7.9805 l 4.39,13.582 c 6.39,-4.1992 16.36,-7.7812 28.34,-7.7812 17.96,0 31.13,9.3789 31.13,33.9219 l 0,10.5781 -0.4,0 c -5.18,-8.9883 -15.76,-16.1602 -30.73,-16.1602 -23.95,0 -41.11,20.3595 -41.11,47.2895 0,32.742 21.35,51.089 43.7,51.089 16.77,0 25.75,-8.566 30.14,-16.558 l 0.4,0 0.6,14.379 15.57,0 c -0.6,-6.789 -0.8,-14.571 -0.8,-26.348 l 0,-56.0819" /><path
    id="path48"
    style="fill:#fff;fill-opacity:0.9;fill-rule:nonzero;stroke:none"
    d="m 5538.78,92.0898 c 16.77,0 29.35,15.7622 29.35,37.7302 0,16.352 -8.18,36.918 -28.95,36.918 -20.55,0 -29.53,-19.156 -29.53,-37.519 0,-21.16 11.98,-37.1292 28.94,-37.1292 l 0.19,0 z m -0.59,-13.1679 c -25.95,0 -46.3,19.1601 -46.3,49.6991 0,32.328 21.35,51.277 47.9,51.277 27.73,0 46.5,-20.148 46.5,-49.488 0,-35.9217 -24.95,-51.4881 -47.9,-51.4881 l -0.2,0" /><path
    id="path50"
    style="fill:#fff;fill-opacity:0.9;fill-rule:nonzero;stroke:none"
    d="m 5613.85,177.719 18.96,-54.09 c 3.19,-8.981 5.79,-16.969 7.78,-24.9571 l 0.61,0 c 2.19,7.9881 4.99,15.9761 8.18,24.9571 l 18.76,54.09 18.36,0 -37.92,-96.5979 -16.77,0 -36.72,96.5979 18.76,0" /><path
    id="path52"
    style="fill:#fff;fill-opacity:0.9;fill-rule:nonzero;stroke:none"
    d="m 2546.8,1224.76 c -0.78,-15.97 -1.17,-33.01 -1.17,-51.1 l 0,-95.07 c 0,-33.41 0.99,-52.11 2.99,-56.1 1.99,-3.99 8.55,-6 19.65,-6 l 11.49,0 0,-10.49 c -19.63,0.77 -35.13,1.17 -46.45,1.17 -10,0 -27.69,-0.4 -53.1,-1.17 l 0,10.49 14.97,0 c 7,0 11.48,0.87 13.49,2.58 2,1.72 3.27,5.22 3.84,10.49 0.54,5.26 1.16,21.39 1.81,48.36 l 0,88.91 -0.49,34.47 c -0.21,14.32 -1.76,23.08 -4.58,26.3 -2.83,3.22 -9.74,4.83 -20.73,4.83 l -8.31,0 0,10.49 c 13.86,-0.55 31.46,-0.84 52.76,-0.84 12.56,0 26.47,0.34 41.8,1 10.09,0.45 17.75,0.68 22.96,0.68 26.87,0 46.41,-4.89 58.63,-14.66 12.07,-9.77 18.13,-22.97 18.13,-39.63 0,-12.09 -3.48,-23.72 -10.49,-34.87 -7,-11.16 -16.9,-20.12 -29.73,-26.89 -12.8,-6.78 -26.48,-10.16 -41.02,-10.16 -6.66,0 -14.99,1.06 -24.98,3.16 l -3.31,12.5 c 9.75,-2.45 17.91,-3.67 24.46,-3.67 15.32,0 27.48,4.64 36.45,13.9 9,9.27 13.5,21.95 13.5,38.04 0,15.55 -4.81,27.67 -14.39,36.38 -9.63,8.71 -23.92,13.08 -42.89,13.08 -10.76,0 -22.52,-2.06 -35.29,-6.18" /><path
    id="path54"
    style="fill:#fff;fill-opacity:0.9;fill-rule:nonzero;stroke:none"
    d="m 2790.2,1095.24 c -30.86,-6.64 -50.45,-12.88 -58.78,-18.69 -8.3,-5.81 -12.47,-14.81 -12.47,-26.99 0,-8.19 2.39,-14.76 7.16,-19.68 4.76,-4.93 10.92,-7.39 18.49,-7.39 8.31,0 16.27,2.32 23.88,6.97 7.59,4.65 14.84,11.57 21.72,20.77 l -0.31,36.86 0.31,8.15 z m -87.73,26.47 0.15,11.16 -0.15,11.48 18.16,10.33 c 8.2,4.66 15.38,7.88 21.54,9.66 6.17,1.78 12.74,2.66 19.74,2.66 15.29,0 27.65,-3.44 37.03,-10.31 9.39,-6.88 15.02,-15.64 16.9,-26.28 1.34,-7.98 2.17,-27.77 2.5,-59.37 0.21,-29.82 0.89,-46.29 2.01,-49.39 1.09,-3.1 3.88,-4.66 8.31,-4.66 l 13,0 0,-10.99 c -12.67,0.77 -21.5,1.16 -26.49,1.16 -6.21,0 -14.52,-0.39 -24.97,-1.16 l 0.18,14.8 c 0,4.78 -0.06,9.6 -0.18,14.48 L 2755.73,1009 c -3.1,-2.33 -6.15,-3.98 -9.14,-4.92 -3.01,-0.93 -7.14,-1.42 -12.5,-1.42 -14.31,0 -25.25,3.53 -32.78,10.57 -7.55,7.03 -11.33,16.49 -11.33,28.35 0,11.17 2.68,20.96 8.07,29.32 5.39,8.37 13.04,14.55 22.97,18.55 9.96,3.97 33,9.19 69.18,15.61 -0.22,14.1 -3.33,24.65 -9.32,31.64 -7.54,8.77 -18.31,13.15 -32.3,13.15 -5.33,0 -10.31,-0.66 -14.99,-1.95 -4.66,-1.31 -8.99,-3.27 -12.96,-5.88 -3.23,-7.93 -6.18,-15.53 -8.85,-22.8 l -9.31,2.49" /><path
    id="path56"
    style="fill:#fff;fill-opacity:0.9;fill-rule:nonzero;stroke:none"
    d="m 2912.23,1129.22 c 4.44,4.2 9.31,9.75 14.51,16.63 6.25,8.1 12.02,13.67 17.37,16.64 5.35,3.01 10.98,4.5 16.86,4.5 6.13,0 10.78,-0.71 14.03,-2.16 1.57,-0.67 2.34,-1.72 2.34,-3.16 l -0.18,-1.67 c -1.77,-8.99 -2.75,-21.59 -2.99,-37.79 l -7.5,0 c -2.53,5.67 -5.53,9.66 -9.05,11.99 -3.48,2.32 -7.64,3.49 -12.54,3.49 -6.51,0 -12.57,-2.22 -18.14,-6.65 -5.6,-4.43 -9.35,-10.63 -11.18,-18.63 -1.93,-7.98 -2.85,-23.65 -2.85,-47.05 0,-15.39 0.61,-28.37 1.81,-38.9 0.48,-3.89 1.56,-6.33 3.35,-7.31 4.23,-2.33 10.41,-3.49 18.64,-3.49 l 10.01,0 0,-9.66 c -17.01,0.77 -33.08,1.16 -48.3,1.16 -14.75,0 -29.35,-0.39 -43.79,-1.16 l 0,9.66 15.99,1.32 c 5.66,0.45 9.23,1.52 10.73,3.17 1.51,1.65 2.48,7.05 2.9,16.15 0.78,15.99 1.18,34.96 1.18,56.94 0,26.74 -1.04,42.45 -3.15,47.12 -1.45,3 -6,4.49 -13.66,4.49 l -13.99,0 0,9.67 c 10.78,1.21 20.37,2.79 28.8,4.73 8.45,1.95 15.93,4.41 22.48,7.42 1.57,0.76 2.84,1.15 3.83,1.15 1.23,0 2.06,-0.33 2.49,-1 0.45,-0.66 0.68,-2.17 0.68,-4.52 l -0.68,-33.08" /><path
    id="path58"
    style="fill:#fff;fill-opacity:0.9;fill-rule:nonzero;stroke:none"
    d="m 3047.43,1089.41 0,-21.15 c 0,-27.96 0.9,-43.72 2.76,-47.27 1.82,-3.56 7.4,-5.33 16.73,-5.33 l 10.14,0 0,-9.66 -9.01,0.33 c -16.01,0.56 -26.58,0.84 -31.69,0.84 l -44.38,-1.17 0,9.66 9.84,0 c 8.54,0 13.59,1.6 15.15,4.85 1.55,3.21 2.33,19.06 2.33,47.55 l 0,99.46 c 0,36.81 -0.82,57.46 -2.51,61.9 -0.98,2.69 -5.31,4 -12.98,4 l -14.14,0 0,9.66 c 9.36,0 22.69,2.31 40.06,6.9 l 16.86,5.26 c 1.79,0 2.68,-1.12 2.68,-3.34 l -0.83,-16.66 c -0.23,-4.22 -0.57,-27.45 -1.01,-69.67 l 0,-66.83 2.17,-1.17 c 10.07,7.55 18.67,14.33 25.75,20.32 3.66,3.1 11.99,10.86 24.95,23.3 l 23.94,22.48 33.57,0 0,-9.66 -5.97,0 c -3.9,0 -8.89,-1.83 -14.96,-5.48 -12.11,-7.21 -32.06,-22.35 -59.89,-45.4 20.83,-21.66 33.66,-34.65 38.43,-39 22.16,-20.43 35.54,-32.49 40.09,-36.15 2.79,-2.27 5.13,-3.81 7.12,-4.62 2.03,-0.82 4.83,-1.45 8.52,-1.87 l 0,-7.49 c -9.66,-4.33 -20.25,-7.89 -31.76,-10.66 -6.54,5.33 -22.01,20.2 -46.39,44.62 -17.85,17.88 -32.33,31.69 -43.4,41.45 l -2.17,0" /><path
    id="path60"
    style="fill:#fff;fill-opacity:0.9;fill-rule:nonzero;stroke:none"
    d="m 3198.75,1056.95 0,-10.86 c 0,-8.71 0.81,-14.1 2.35,-16.23 2.88,-3.56 8.52,-7.01 16.89,-10.36 8.4,-3.34 17.03,-5.01 25.91,-5.01 11.43,0 20.75,3.08 27.96,9.26 7.23,6.16 10.81,13.53 10.81,22.09 0,6.76 -2.09,12.22 -6.3,16.32 -4.25,4.12 -12.27,7.4 -24.15,9.84 -22.1,4.44 -36.67,8.33 -43.8,11.66 -7.09,3.34 -12.42,7.77 -15.96,13.34 -3.58,5.55 -5.35,12.28 -5.35,20.16 0,14.78 5.37,26.78 16.11,36.01 10.7,9.22 25.93,13.83 45.57,13.83 15.6,0 31.08,-3.11 46.57,-9.32 -0.98,-7.55 -1.73,-20.21 -2.35,-37.97 l -9.99,0 c -0.22,9.77 -1.27,16.2 -3.17,19.32 -2.58,4.11 -7.18,7.82 -13.95,11.16 -6.75,3.32 -13.92,4.99 -21.61,4.99 -10.06,0 -18.09,-2.58 -24.15,-7.76 -6.01,-5.16 -9.07,-11.63 -9.07,-19.41 0,-7.45 2.4,-13.06 7.21,-16.84 4.75,-3.89 17.96,-8 39.59,-12.34 16,-3.22 26.53,-6.21 31.62,-8.98 5.12,-2.78 9.24,-7 12.34,-12.64 3.12,-5.66 4.66,-12.16 4.66,-19.47 0,-14.97 -6.4,-27.9 -19.25,-38.76 -12.77,-10.87 -29.91,-16.32 -51.35,-16.32 -13.63,0 -28.94,2.14 -45.93,6.4 -3.02,0.78 -4.52,1.93 -4.52,3.5 l 0.52,2.34 c 0.44,1.66 0.83,4.62 1.15,8.85 1,10.78 1.51,19.18 1.51,25.19 l -0.17,8.01 10.3,0" /><path
    id="path62"
    style="fill:#fff;fill-opacity:0.9;fill-rule:nonzero;stroke:none"
    d="m 3384.58,1053.12 4.65,-5 c -6.33,-15.42 -13.16,-29.32 -20.52,-41.71 -7.41,-12.375 -17.21,-26.222 -29.43,-41.535 l -13.98,-7.156 -4.98,5.152 c 9.65,14.887 16.73,28.363 21.22,40.479 4.5,12.09 7.53,25.18 9.08,39.28 12.87,3.1 24.2,6.6 33.96,10.49" /><path
    id="path64"
    style="fill:#fff;fill-opacity:0.9;fill-rule:nonzero;stroke:none"
    d="m 2589.71,797.258 c 10.89,-15.653 24.38,-33.856 40.48,-54.61 l 31.96,-41.457 c 5.65,-7.109 9.43,-11.152 11.32,-12.14 1.88,-1.012 3.82,-1.512 5.81,-1.512 l 4.34,0 0,-10.488 c -9.21,0.781 -17.25,1.168 -24.14,1.168 -6.33,0 -12.99,-0.387 -19.99,-1.168 l -58.91,79.594 c -11,14.636 -22.77,28.953 -35.32,42.949 l 1.69,5.664 c 6.43,-0.559 11.2,-0.84 14.31,-0.84 18.53,0 33.02,4.781 43.54,14.316 10.47,9.547 15.72,22.301 15.72,38.293 0,14.325 -4.45,25.504 -13.31,33.551 -8.9,8.051 -21.72,12.07 -38.46,12.07 -11.67,0 -23.37,-2.168 -35.13,-6.5 -1.35,-17.64 -2,-36.507 -2,-56.593 l 0,-80.434 c 0,-39.16 0.94,-60.902 2.83,-65.172 1.89,-4.269 7.99,-6.41 18.3,-6.41 l 12.98,0 0,-10.488 c -18.4,0.781 -33.66,1.168 -45.77,1.168 -9.54,0 -26.81,-0.387 -51.77,-1.168 l 0,10.488 12.48,0 c 9.56,0 15.2,2.09 16.99,6.25 1.77,4.16 2.65,26.063 2.65,65.664 l 0,80.102 c 0,34.402 -1.02,53.664 -3.08,57.769 -2.05,4.106 -8.74,6.156 -20.05,6.156 l -8.99,0 0,10.489 c 20.63,-0.778 36.4,-1.16 47.27,-1.16 7.32,0 17.88,0.281 31.64,0.82 15.99,0.562 27.47,0.84 34.46,0.84 19.21,0 33.78,-2.02 43.7,-6.078 9.95,-4.063 17.49,-9.903 22.66,-17.575 5.14,-7.648 7.72,-16.804 7.72,-27.453 0,-15.668 -5.62,-29.472 -16.88,-41.465 -11.27,-11.992 -27.6,-20.199 -49.05,-24.64" /><path
    id="path66"
    style="fill:#fff;fill-opacity:0.9;fill-rule:nonzero;stroke:none"
    d="m 2727.73,770.117 c 17.21,-0.777 36.2,-1.172 56.96,-1.172 8.32,0 16.37,0.395 24.11,1.172 l 0,9.321 c 0,9.773 -1.93,19.042 -5.81,27.808 -2.43,5.434 -6.73,9.965 -12.8,13.574 -6.11,3.598 -13.17,5.414 -21.15,5.414 -12.43,0 -22.38,-4.55 -29.81,-13.656 -7.42,-9.098 -11.27,-23.238 -11.5,-42.461 m -0.32,-12.476 c 0.55,-21.868 6.16,-38.469 16.79,-49.789 10.63,-11.321 24.61,-16.981 41.9,-16.981 7.73,0 15.46,1.27 23.08,3.84 7.66,2.539 15.23,6.367 22.78,11.48 l 2.83,-2.511 -5.32,-13.969 c -9.22,-5.332 -18.7,-9.332 -28.48,-11.992 -9.74,-2.668 -19.8,-4.008 -30.11,-4.008 -22.54,0 -40.73,7.141 -54.53,21.41 -13.83,14.258 -20.73,33.594 -20.73,58.027 0,18.653 3.88,34.786 11.65,48.438 5.09,9.004 14.53,17.32 28.3,24.98 13.77,7.657 27.13,11.485 40.12,11.485 19.65,0 35.21,-5.766 46.7,-17.317 11.49,-11.535 17.22,-27.683 17.22,-48.449 l -0.33,-9.82 c -7.32,-1.777 -14.28,-2.949 -20.94,-3.496 -11.85,-0.899 -28.31,-1.328 -49.36,-1.328 l -41.57,0" /><path
    id="path68"
    style="fill:#fff;fill-opacity:0.9;fill-rule:nonzero;stroke:none"
    d="m 2984.3,700.699 4.51,-4 -6.84,-10.648 c -7.55,-4.102 -15.3,-7.199 -23.32,-9.25 -7.97,-2.051 -16.15,-3.09 -24.46,-3.09 -16.31,0 -30.17,3.109 -41.56,9.32 -11.35,6.231 -20.13,15.219 -26.37,26.989 -6.22,11.761 -9.32,25.746 -9.32,41.957 0,14.316 2.39,26.777 7.14,37.371 4.8,10.597 11.48,18.894 20.08,24.89 8.6,6 19.33,11.867 32.2,17.649 9.13,4.109 19.28,6.164 30.46,6.164 8.57,0 15.92,-0.696 22.1,-2.09 6.14,-1.398 12.77,-3.867 19.89,-7.434 -2.78,-14.675 -4.27,-29.394 -4.51,-44.089 l -10.48,0 0,8.32 c 0,7.105 -1.02,12.137 -3.1,15.078 -2.04,2.937 -6.74,5.848 -14.06,8.738 -7.31,2.891 -15.32,4.328 -23.98,4.328 -14.98,0 -26.51,-4.574 -34.61,-13.711 -8.1,-9.16 -12.15,-22.824 -12.15,-41.007 0,-23.379 5.98,-42.11 17.96,-56.204 10.78,-12.73 24.66,-19.101 41.63,-19.101 6.67,0 13.23,0.82 19.65,2.5 6.43,1.641 12.81,4.09 19.14,7.32" /><path
    id="path70"
    style="fill:#fff;fill-opacity:0.9;fill-rule:nonzero;stroke:none"
    d="m 3063.88,800.277 c 4.46,4.207 9.31,9.746 14.53,16.621 6.23,8.114 12.01,13.672 17.37,16.661 5.32,2.996 10.94,4.492 16.83,4.492 6.14,0 10.79,-0.727 14.06,-2.168 1.56,-0.664 2.34,-1.731 2.34,-3.164 l -0.2,-1.66 c -1.74,-8.989 -2.77,-21.606 -2.98,-37.793 l -7.5,0 c -2.56,5.664 -5.55,9.656 -9.04,11.992 -3.49,2.312 -7.66,3.484 -12.55,3.484 -6.51,0 -12.58,-2.215 -18.17,-6.64 -5.59,-4.422 -9.34,-10.633 -11.18,-18.622 -1.9,-7.992 -2.83,-23.656 -2.83,-47.05 0,-15.41 0.6,-28.379 1.82,-38.91 0.45,-3.891 1.56,-6.34 3.32,-7.321 4.23,-2.328 10.45,-3.488 18.65,-3.488 l 10,0 0,-9.66 c -16.98,0.769 -33.06,1.16 -48.3,1.16 -14.74,0 -29.33,-0.391 -43.77,-1.16 l 0,9.66 15.98,1.34 c 5.66,0.429 9.25,1.48 10.73,3.148 1.52,1.66 2.48,7.051 2.92,16.153 0.77,15.992 1.17,34.957 1.17,56.949 0,26.734 -1.04,42.449 -3.16,47.105 -1.43,2.992 -6,4.504 -13.64,4.504 l -14,0 0,9.66 c 10.77,1.211 20.38,2.793 28.8,4.746 8.44,1.93 15.93,4.395 22.48,7.403 1.55,0.777 2.84,1.172 3.82,1.172 1.22,0 2.06,-0.332 2.5,-1.008 0.46,-0.672 0.68,-2.18 0.68,-4.52 l -0.68,-33.086" /><path
    id="path72"
    style="fill:#fff;fill-opacity:0.9;fill-rule:nonzero;stroke:none"
    d="m 3170.94,770.117 c 17.21,-0.777 36.19,-1.172 56.95,-1.172 8.32,0 16.36,0.395 24.14,1.172 l 0,9.321 c 0,9.773 -1.95,19.042 -5.83,27.808 -2.45,5.434 -6.73,9.965 -12.84,13.574 -6.08,3.598 -13.14,5.414 -21.12,5.414 -12.45,0 -22.35,-4.55 -29.81,-13.656 -7.44,-9.098 -11.27,-23.238 -11.49,-42.461 m -0.33,-12.476 c 0.55,-21.868 6.17,-38.469 16.79,-49.789 10.62,-11.321 24.63,-16.981 41.9,-16.981 7.74,0 15.45,1.27 23.1,3.84 7.65,2.539 15.21,6.367 22.78,11.48 l 2.83,-2.511 -5.33,-13.969 c -9.24,-5.332 -18.73,-9.332 -28.48,-11.992 -9.77,-2.668 -19.81,-4.008 -30.13,-4.008 -22.55,0 -40.72,7.141 -54.53,21.41 -13.8,14.258 -20.74,33.594 -20.74,58.027 0,18.653 3.89,34.786 11.66,48.438 5.11,9.004 14.54,17.32 28.31,24.98 13.78,7.657 27.14,11.485 40.13,11.485 19.65,0 35.2,-5.766 46.7,-17.317 11.49,-11.535 17.22,-27.683 17.22,-48.449 l -0.33,-9.82 c -7.31,-1.777 -14.31,-2.949 -20.95,-3.496 -11.85,-0.899 -28.29,-1.328 -49.35,-1.328 l -41.58,0" /><path
    id="path74"
    style="fill:#fff;fill-opacity:0.9;fill-rule:nonzero;stroke:none"
    d="m 3404.19,766.293 c -30.83,-6.641 -50.43,-12.871 -58.75,-18.691 -8.34,-5.801 -12.51,-14.817 -12.51,-26.981 0,-8.223 2.39,-14.762 7.16,-19.68 4.78,-4.941 10.92,-7.402 18.48,-7.402 8.31,0 16.3,2.32 23.9,6.973 7.62,4.66 14.82,11.578 21.72,20.777 l -0.33,36.848 0.33,8.156 z m -87.74,26.465 0.16,11.16 -0.16,11.492 18.16,10.317 c 8.22,4.668 15.39,7.878 21.56,9.668 6.14,1.757 12.73,2.656 19.73,2.656 15.32,0 27.64,-3.438 37.05,-10.313 9.35,-6.875 15,-15.644 16.9,-26.281 1.29,-7.969 2.15,-27.773 2.47,-59.363 0.24,-29.824 0.92,-46.293 2.01,-49.395 1.1,-3.109 3.88,-4.668 8.31,-4.668 l 13,0 0,-10.98 c -12.67,0.769 -21.47,1.168 -26.48,1.168 -6.2,0 -14.54,-0.399 -24.97,-1.168 l 0.17,14.808 c 0,4.782 -0.05,9.59 -0.17,14.469 l -34.48,-26.289 c -3.08,-2.328 -6.14,-3.961 -9.13,-4.898 -3,-0.942 -7.17,-1.43 -12.49,-1.43 -14.34,0 -25.27,3.539 -32.8,10.57 -7.56,7.028 -11.33,16.481 -11.33,28.34 0,11.192 2.71,20.977 8.1,29.332 5.35,8.363 13.03,14.535 22.96,18.535 9.94,3.989 32.98,9.203 69.17,15.625 -0.22,14.094 -3.32,24.653 -9.32,31.633 -7.56,8.77 -18.3,13.156 -32.31,13.156 -5.33,0 -10.31,-0.664 -14.99,-1.957 -4.65,-1.297 -8.98,-3.257 -12.96,-5.867 -3.23,-7.937 -6.16,-15.535 -8.82,-22.812 l -9.34,2.492" /><path
    id="path76"
    style="fill:#fff;fill-opacity:0.9;fill-rule:nonzero;stroke:none"
    d="m 3525.08,807.91 0,-65.359 c 0,-17.012 0.55,-27.903 1.64,-32.672 1.13,-4.789 3.37,-8.5 6.74,-11.188 3.39,-2.66 7.7,-3.992 12.93,-3.992 3.22,0 6.35,0.653 9.41,1.903 3.04,1.289 6.06,3.207 9.07,5.769 l 4.81,-5.789 -16.24,-19.043 c -3.54,-1.219 -7,-2.148 -10.34,-2.82 -3.36,-0.66 -6.59,-1 -9.7,-1 -8.24,0 -15.21,1.48 -20.9,4.41 -5.7,2.949 -9.83,6.769 -12.38,11.5 -2.57,4.723 -3.86,11.84 -3.86,21.383 l 0.68,32.136 0,63.258 c -8.53,0 -17.37,-0.379 -26.49,-1.148 l 0,7.168 c 9.55,3.648 18.38,7.48 26.49,11.472 -0.13,15.872 -0.56,33.071 -1.36,51.614 12.95,5.437 22.26,9.828 27.97,13.148 l 4.36,-3.32 c -0.89,-8.668 -1.85,-29.152 -2.83,-61.442 13.54,0 24.56,0.168 33.15,0.5 l 13.3,0.665 -1.85,-17.153 -6.8,0.168 -31.98,-0.168 -5.82,0" /><path
    id="path78"
    style="fill:#fff;fill-opacity:0.9;fill-rule:nonzero;stroke:none"
    d="m 3624.15,912.477 c 5.09,0 9.48,-1.868 13.12,-5.59 3.67,-3.707 5.51,-8.188 5.51,-13.399 0,-5.218 -1.84,-9.66 -5.51,-13.32 -3.64,-3.668 -8.03,-5.488 -13.12,-5.488 -5.24,0 -9.68,1.82 -13.35,5.488 -3.65,3.66 -5.48,8.102 -5.48,13.32 0,5.211 1.83,9.692 5.48,13.399 3.67,3.722 8.11,5.59 13.35,5.59 m 13.31,-73.762 3.99,-2.5 c -0.79,-8.32 -1.28,-17.481 -1.49,-27.481 -0.8,-32.394 -1.19,-56.328 -1.19,-71.742 0,-14.433 0.51,-26.754 1.51,-36.961 0.47,-4 1.5,-6.769 3.16,-8.332 1.67,-1.551 5.67,-2.711 11.99,-3.488 l 11.33,-1.5 0,-9.66 c -16.21,0.781 -30.96,1.168 -44.27,1.168 -13.13,0 -26.32,-0.387 -39.64,-1.168 l 0,9.66 14.31,1.5 c 5.54,0.437 8.97,1.469 10.26,3.09 1.25,1.609 2.07,6.98 2.38,16.097 0.56,14.133 0.85,33.61 0.85,58.422 0,17.258 -0.29,30.559 -0.85,39.907 -0.21,3.433 -1.17,5.878 -2.9,7.343 -1.73,1.446 -5.59,2.157 -11.57,2.157 l -12.48,0 0,9.66 c 13.53,1.98 23.47,3.789 29.87,5.429 6.4,1.661 14.65,4.442 24.74,8.399" /><path
    id="path80"
    style="fill:#fff;fill-opacity:0.9;fill-rule:nonzero;stroke:none"
    d="m 3716.85,768.715 c 0,-22.895 4.69,-42.481 14.09,-58.754 9.38,-16.27 22.89,-24.41 40.54,-24.41 13.42,0 24.27,5.097 32.54,15.308 8.28,10.243 12.41,25.746 12.41,46.528 0,16.797 -2.44,31.308 -7.32,43.593 -4.9,12.262 -11.33,21.219 -19.34,26.836 -7.97,5.614 -16.93,8.418 -26.8,8.418 -8.76,0 -16.67,-2.226 -23.7,-6.679 -7.05,-4.438 -12.27,-10.371 -15.57,-17.825 -4.56,-10.125 -6.85,-21.121 -6.85,-33.015 m -31.29,-11.738 c 0,15.308 3.55,29.16 10.67,41.531 7.09,12.383 17.05,22.062 29.88,29.055 12.82,6.992 27.38,10.488 43.7,10.488 23.66,0 42.59,-6.992 56.78,-20.981 14.21,-13.98 21.3,-32.632 21.3,-55.933 0,-27.532 -9.25,-49.399 -27.81,-65.598 -16.52,-14.551 -36.33,-21.828 -59.45,-21.828 -22.17,0 -40.24,7.48 -54.17,22.41 -13.92,14.93 -20.9,35.199 -20.9,60.856" /><path
    id="path82"
    style="fill:#fff;fill-opacity:0.9;fill-rule:nonzero;stroke:none"
    d="m 3919.81,806.242 25.19,22.317 c 3.01,2.664 6.19,4.609 9.49,5.82 7.35,2.461 14.68,3.672 22.03,3.672 11.88,0 22.17,-2.422 30.86,-7.246 8.65,-4.825 14.88,-11.094 18.68,-18.813 3.77,-7.711 5.63,-19.781 5.63,-36.219 l -0.64,-52.429 c 0,-18.094 0.77,-28.524 2.28,-31.313 2.11,-3.551 6.19,-5.312 12.28,-5.312 l 11.89,0 0,-9.668 c -11.83,0.769 -22.08,1.168 -30.72,1.168 -8.41,0 -17.42,-0.399 -27.04,-1.168 2.1,21.64 3.16,50.89 3.16,87.734 0,14.887 -1.31,25.41 -3.92,31.645 -2.63,6.211 -7.02,11.211 -13.16,14.976 -6.2,3.774 -13.61,5.664 -22.29,5.664 -10.8,0 -19.92,-2.711 -27.44,-8.164 -7.5,-5.426 -12.14,-11.433 -13.95,-17.965 -1.11,-4.336 -1.66,-15.664 -1.66,-33.976 0,-20.313 0.15,-39.164 0.5,-56.613 0.12,-5.211 0.92,-8.493 2.35,-9.821 2.81,-2.543 7.36,-3.812 13.75,-3.812 l 11.88,0 0,-9.668 c -18.79,0.769 -33.73,1.168 -44.87,1.168 -11.81,0 -25.22,-0.399 -40.23,-1.168 l 0,9.668 12,0 c 8.22,0 13.01,1.91 14.43,5.722 1.34,3.821 2.08,26.86 2.08,69.094 0,18.953 -0.26,33.809 -0.7,44.57 -0.2,3.528 -1.09,5.965 -2.66,7.297 -1.54,1.344 -5.92,2 -13.15,2 l -12,0 0,9.661 c 9.55,1.113 18.06,2.617 25.6,4.492 7.5,1.89 15.99,4.785 25.4,8.66 0.97,0.441 1.92,0.676 2.81,0.676 1.76,0 2.66,-1.289 2.66,-3.828 l -0.18,-6.34 -0.34,-22.481" /><path
    id="path84"
    style="fill:#fff;fill-opacity:0.9;fill-rule:nonzero;stroke:none"
    d="m 4188.69,771.445 c -3.54,1.371 -6.85,2.375 -9.94,2.981 -3.1,0.683 -6.07,0.969 -8.87,0.969 -6.21,0 -11.83,-1.055 -16.89,-3.204 -1.41,-0.746 -3.29,-3.378 -5.47,-7.929 -4.37,-9.082 -8.38,-20.688 -11.92,-34.77 -3.55,-14.062 -5.35,-26.41 -5.35,-37.133 0,-2.847 0.43,-4.898 1.31,-6.109 0.82,-1.23 1.81,-1.781 3,-1.781 3.29,0 9.34,4.16 18.02,12.562 8.77,8.418 15.67,17.071 20.67,26.028 6.76,12.043 11.85,28.175 15.44,48.386 m 18.34,15.801 2.82,-1.797 c -7.85,-27.144 -13.91,-51.289 -18.2,-72.32 -2.44,-12.109 -3.7,-20.098 -3.7,-23.859 0,-1.52 0.36,-2.711 1,-3.508 0.64,-0.782 1.46,-1.172 2.59,-1.172 2.63,0 8.61,3.82 17.85,11.488 l 1.46,-5.387 c -8.64,-7.632 -16.92,-13.66 -24.89,-18.191 -3.89,-2.191 -7.29,-3.25 -10.16,-3.25 -2.17,0 -3.75,0.629 -4.79,1.859 -1.03,1.25 -1.55,3.25 -1.55,6.071 0,6.531 2.69,20.16 8.06,40.902 l -0.94,0.078 c -11.38,-16.441 -23.42,-29.75 -36.22,-39.898 -8.63,-6.891 -14.94,-10.352 -18.95,-10.352 -2.36,0 -4.29,1.211 -5.59,3.602 -2.05,3.668 -3.05,9 -3.05,15.949 0,11.801 2.4,25.918 7.17,42.277 4.75,16.36 9.62,28.047 14.6,35.008 3.74,5.258 11.09,10.891 21.94,16.875 6.81,3.774 13.9,5.625 21.27,5.625 3.19,0 6.62,-0.348 10.24,-1.012 3.66,-0.714 7.48,-1.769 11.6,-3.175 l 7.44,4.187" /><path
    id="path86"
    style="fill:#fff;fill-opacity:0.9;fill-rule:nonzero;stroke:none"
    d="m 4224.96,759.855 -1.9,4.993 c 12.86,9.343 23.01,15.945 30.36,19.785 3.32,1.758 6.32,2.613 8.92,2.613 1.87,0 3.29,-0.547 4.27,-1.637 1,-1.132 1.51,-2.812 1.51,-5.078 0,-1.664 -0.28,-4.004 -0.8,-7.035 l -9.38,-41.473 c 6.91,11.106 15.07,21.067 24.38,29.922 9.3,8.809 18.18,15.246 26.68,19.289 8.45,4.043 15.11,6.012 19.9,6.012 2.19,0 3.88,-0.641 5.15,-2.027 1.28,-1.352 1.91,-3.281 1.91,-5.774 0,-2.215 -0.21,-4.675 -0.84,-7.285 -0.74,-4.258 -4.6,-20.469 -11.31,-48.699 -5.01,-20.859 -7.56,-33.082 -7.56,-36.602 0,-2.39 1.24,-3.578 3.72,-3.578 2.45,0 7.01,2.367 13.81,7.141 l 7.54,5.058 2.13,-4.789 c -19.69,-15.211 -32.78,-22.769 -39.24,-22.769 -2.27,0 -4.04,0.808 -5.36,2.379 -1.43,1.539 -2.11,3.73 -2.11,6.519 0,4.711 2.65,17.168 7.91,37.43 7.44,28.301 11.17,45.762 11.17,52.371 0,1.684 -0.42,3.012 -1.24,3.91 -0.83,0.914 -2.02,1.407 -3.44,1.407 -4.69,0 -11.27,-3.333 -19.65,-9.973 -12.04,-9.531 -21.44,-20.891 -28.11,-34.141 -6.69,-13.265 -11.93,-31.996 -15.74,-56.312 -4.41,-0.551 -10.14,-1.742 -17.07,-3.59 l -1.96,2.058 c 5.86,19.481 10.95,40.418 15.16,62.883 3.27,17.239 4.86,28.235 4.86,32.95 0,1.671 -0.32,2.941 -0.99,3.757 -0.62,0.879 -1.59,1.282 -2.79,1.282 -2.99,0 -9.66,-3.661 -19.89,-10.997" /><path
    id="path88"
    style="fill:#fff;fill-opacity:0.9;fill-rule:nonzero;stroke:none"
    d="m 4442.9,770.609 c -8.69,4.215 -16.65,6.309 -23.79,6.309 -6.47,0 -11.69,-1.086 -15.69,-3.293 -2.38,-1.379 -4.66,-4.121 -6.84,-8.289 -4.84,-9.172 -8.94,-20.551 -12.4,-34.023 -3.45,-13.512 -5.18,-24.532 -5.18,-33.094 0,-5.891 0.47,-9.68 1.47,-11.418 1.02,-1.699 2.45,-2.582 4.39,-2.582 4.85,0 11.05,2.972 18.67,8.972 10.34,8.258 19.03,19.039 26.04,32.34 6.96,13.282 11.42,28.321 13.33,45.078 m -10.15,62.887 0.67,4.945 c 16.8,2.227 29.9,5.821 39.33,10.75 l 3.02,-2.617 c -6.73,-28.222 -15.24,-67.629 -25.48,-118.269 -4.67,-22.594 -6.98,-35.496 -6.98,-38.703 0,-1.942 0.29,-3.25 0.86,-4.051 0.54,-0.821 1.36,-1.231 2.38,-1.231 3.6,0 10.36,3.91 20.24,11.59 l 3.04,-4.262 c -19.54,-15.839 -32.5,-23.726 -39.03,-23.726 -1.73,0 -3.21,0.707 -4.33,2.199 -1.18,1.391 -1.78,3.539 -1.78,6.309 0,2.718 0.42,6.211 1.2,10.55 0.84,4.321 3.34,15.329 7.47,33.059 -9.92,-16.23 -20.99,-28.91 -33.35,-38.219 -12.31,-9.289 -21.18,-13.898 -26.68,-13.898 -3.18,0 -5.79,1.687 -7.75,5.039 -2.58,4.25 -3.84,10.617 -3.84,19.199 0,17.309 3.68,34.953 11.02,52.883 5.35,13.066 13.33,23.348 23.98,30.918 10.61,7.519 20.48,11.285 29.73,11.285 5.1,0 11.51,-1.004 19.15,-3.101 l 4.57,27.925 c 1.43,8.325 2.2,13.672 2.2,16.164 0,2.071 -0.73,3.399 -2.1,3.977 -1.89,0.777 -7.74,1.199 -17.54,1.285" /><path
    id="path90"
    style="fill:#fff;fill-opacity:0.9;fill-rule:nonzero;stroke:none"
    d="m 2671.04,519.52 -1.32,29.628 c -9.88,6.571 -20.24,11.454 -31.04,14.661 -10.84,3.211 -22.13,4.82 -33.89,4.82 -29.98,0 -53.96,-9.098 -72,-27.297 -18.05,-18.191 -27.07,-42.562 -27.07,-73.094 0,-21.418 4.58,-40.5 13.74,-57.258 9.18,-16.781 22.18,-30.019 39.04,-39.808 16.87,-9.762 34.71,-14.641 53.44,-14.641 14.88,0 29.6,1.719 44.12,5.168 10.9,2.539 21.83,7.871 32.81,15.981 l 3.48,-3.328 c -2.31,-5.114 -4.48,-10.282 -6.47,-15.5 -13.01,-6.43 -26.08,-11.293 -39.21,-14.551 -13.16,-3.27 -26.39,-4.91 -39.71,-4.91 -27.32,0 -51.32,5.257 -72,15.808 -20.72,10.539 -36.63,25.11 -47.7,43.711 -11.09,18.59 -16.65,39.59 -16.65,63.02 0,23.41 5.59,44.359 16.79,62.851 11.23,18.457 27.08,32.778 47.56,42.949 20.47,10.141 45.64,15.219 75.5,15.219 15.65,0 33.95,-2.539 54.93,-7.648 10.45,-2.449 18.92,-4.27 25.48,-5.492 -4.99,-11.879 -7.88,-28.649 -8.66,-50.289 l -11.17,0" /><path
    id="path92"
    style="fill:#fff;fill-opacity:0.9;fill-rule:nonzero;stroke:none"
    d="m 2838.54,342.719 1.85,29.961 -9.8,-10.66 c -7.67,-8.329 -15.47,-14.168 -23.39,-17.559 -7.93,-3.379 -17.67,-5.082 -29.35,-5.082 -9.95,0 -18.56,2.109 -25.74,6.332 -7.23,4.211 -12.43,9.68 -15.71,16.398 -3.28,6.711 -4.91,17.332 -4.91,31.879 0,7.543 0.17,16.321 0.5,26.313 l 0.49,26.801 c 0,18.757 -0.53,29.187 -1.56,31.289 -1.07,2.121 -4.58,3.168 -10.6,3.168 l -14.79,0 0,9.16 c 15.13,1.332 29.09,4.109 41.89,8.332 l 13.86,5.148 c 1.9,0 2.86,-1.379 2.86,-4.148 l -1.18,-16.981 c -1.55,-23.539 -2.33,-45.39 -2.33,-65.609 0,-20.191 0.84,-33.102 2.5,-38.699 1.66,-5.614 5.12,-10.262 10.45,-13.992 5.35,-3.711 11.81,-5.571 19.45,-5.571 10.31,0 19.73,3.321 28.32,9.981 8.61,6.672 14.21,13.379 16.88,20.16 1.42,3.871 2.16,15.57 2.16,35.121 0,32.848 -0.61,50.719 -1.85,53.609 -1.09,2.328 -6.09,3.489 -15,3.489 l -13.12,0 0,9.16 c 11.41,1.332 21.14,2.902 29.13,4.66 7.99,1.769 16.43,4.449 25.3,7.992 1.11,0.559 2.12,0.828 3.01,0.828 1.88,0 2.81,-1.051 2.81,-3.16 l -0.66,-15.469 c -1.68,-37.961 -2.5,-71.371 -2.5,-100.242 0,-16.199 0.82,-25.457 2.5,-27.797 2.43,-3.441 7.72,-5.16 15.82,-5.16 l 9.66,0 0,-9.652 c -13.87,0.781 -25.64,1.16 -35.31,1.16 -7.22,0 -14.4,-0.379 -21.64,-1.16" /><path
    id="path94"
    style="fill:#fff;fill-opacity:0.9;fill-rule:nonzero;stroke:none"
    d="m 2970.75,589.961 c -1.89,-32.539 -2.83,-61.949 -2.83,-88.262 l 0,-85.57 c 0,-33.957 0.72,-53.219 2.14,-57.77 0.78,-2.328 4.44,-3.828 11.01,-4.5 l 14.13,-1.488 0,-9.66 c -12.11,0.777 -23.67,1.18 -34.72,1.18 -12.19,0 -28.22,-0.403 -48.01,-1.18 l 0,9.66 14.3,1.168 c 6.33,0.539 9.94,2.16 10.83,4.82 1.45,4.332 2.16,24.02 2.16,59.102 l 0,85.078 -0.16,31.973 -0.49,21.808 c 0,5.442 -0.62,8.77 -1.84,9.989 -1.79,1.773 -5.49,2.671 -11.13,2.671 l -13.67,0 0,9.989 c 23.14,2.101 41.64,6.422 55.45,12.992 l 2.83,-2" /><path
    id="path96"
    style="fill:#fff;fill-opacity:0.9;fill-rule:nonzero;stroke:none"
    d="m 3065.47,473.578 0,-65.379 c 0,-16.988 0.56,-27.89 1.66,-32.668 1.11,-4.801 3.35,-8.519 6.75,-11.172 3.4,-2.668 7.68,-4.019 12.9,-4.019 3.22,0 6.36,0.64 9.41,1.93 3.05,1.289 6.08,3.199 9.07,5.742 l 4.83,-5.762 -16.22,-19.039 c -3.55,-1.223 -7.04,-2.172 -10.36,-2.832 -3.37,-0.649 -6.58,-0.988 -9.73,-0.988 -8.22,0 -15.2,1.461 -20.86,4.398 -5.71,2.949 -9.83,6.781 -12.4,11.5 -2.58,4.699 -3.85,11.84 -3.85,21.383 l 0.67,32.137 0,63.261 c -8.55,0 -17.37,-0.379 -26.46,-1.172 l 0,7.172 c 9.54,3.649 18.35,7.5 26.46,11.481 -0.1,15.871 -0.58,33.09 -1.33,51.621 12.91,5.437 22.24,9.828 27.94,13.148 l 4.34,-3.32 c -0.88,-8.66 -1.81,-29.141 -2.82,-61.449 13.54,0 24.6,0.179 33.14,0.508 l 13.31,0.66 -1.83,-17.141 -6.83,0.172 -31.96,-0.172 -5.83,0" /><path
    id="path98"
    style="fill:#fff;fill-opacity:0.9;fill-rule:nonzero;stroke:none"
    d="m 3254.59,342.719 1.86,29.961 -9.8,-10.66 c -7.66,-8.329 -15.45,-14.168 -23.36,-17.559 -7.94,-3.379 -17.72,-5.082 -29.36,-5.082 -9.97,0 -18.58,2.109 -25.76,6.332 -7.22,4.211 -12.43,9.68 -15.68,16.398 -3.31,6.711 -4.94,17.332 -4.94,31.879 0,7.543 0.18,16.321 0.51,26.313 l 0.49,26.801 c 0,18.757 -0.55,29.187 -1.56,31.289 -1.08,2.121 -4.6,3.168 -10.59,3.168 l -14.79,0 0,9.16 c 15.12,1.332 29.07,4.109 41.86,8.332 l 13.9,5.148 c 1.86,0 2.79,-1.379 2.79,-4.148 l -1.14,-16.981 c -1.56,-23.539 -2.35,-45.39 -2.35,-65.609 0,-20.191 0.85,-33.102 2.51,-38.699 1.66,-5.614 5.13,-10.262 10.47,-13.992 5.33,-3.711 11.78,-5.571 19.46,-5.571 10.29,0 19.71,3.321 28.3,9.981 8.58,6.672 14.22,13.379 16.85,20.16 1.47,3.871 2.19,15.57 2.19,35.121 0,32.848 -0.63,50.719 -1.86,53.609 -1.11,2.328 -6.1,3.489 -14.97,3.489 l -13.13,0 0,9.16 c 11.42,1.332 21.09,2.902 29.13,4.66 7.98,1.769 16.41,4.449 25.29,7.992 1.14,0.559 2.09,0.828 3.02,0.828 1.86,0 2.8,-1.051 2.8,-3.16 l -0.65,-15.469 c -1.65,-37.961 -2.5,-71.371 -2.5,-100.242 0,-16.199 0.85,-25.457 2.5,-27.797 2.45,-3.441 7.69,-5.16 15.81,-5.16 l 9.66,0 0,-9.652 c -13.87,0.781 -25.64,1.16 -35.31,1.16 -7.19,0 -14.43,-0.379 -21.65,-1.16" /><path
    id="path100"
    style="fill:#fff;fill-opacity:0.9;fill-rule:nonzero;stroke:none"
    d="m 3383.47,465.922 c 4.43,4.219 9.28,9.769 14.51,16.637 6.26,8.121 12,13.66 17.4,16.64 5.3,3.012 10.93,4.512 16.81,4.512 6.13,0 10.8,-0.723 14.05,-2.16 1.55,-0.692 2.35,-1.723 2.35,-3.172 l -0.17,-1.66 c -1.81,-8.989 -2.79,-21.598 -3.02,-37.809 l -7.49,0 c -2.55,5.668 -5.55,9.668 -9.03,11.988 -3.51,2.332 -7.68,3.512 -12.53,3.512 -6.54,0 -12.6,-2.219 -18.19,-6.66 -5.62,-4.441 -9.33,-10.641 -11.2,-18.621 -1.88,-7.969 -2.8,-23.68 -2.8,-47.051 0,-15.418 0.59,-28.379 1.81,-38.879 0.45,-3.898 1.54,-6.34 3.33,-7.32 4.22,-2.34 10.42,-3.5 18.62,-3.5 l 10.01,0 0,-9.66 c -16.98,0.781 -33.05,1.172 -48.28,1.172 -14.74,0 -29.35,-0.391 -43.79,-1.172 l 0,9.66 16,1.312 c 5.64,0.45 9.24,1.508 10.73,3.168 1.5,1.661 2.48,7.051 2.91,16.153 0.77,16 1.17,34.976 1.17,56.937 0,26.75 -1.07,42.461 -3.17,47.129 -1.46,2.981 -6,4.481 -13.66,4.481 l -13.98,0 0,9.66 c 10.77,1.23 20.39,2.82 28.8,4.742 8.44,1.937 15.94,4.418 22.47,7.418 1.56,0.762 2.86,1.16 3.85,1.16 1.21,0 2.06,-0.34 2.49,-1 0.44,-0.668 0.69,-2.148 0.69,-4.519 l -0.69,-33.098" /><path
    id="path102"
    style="fill:#fff;fill-opacity:0.9;fill-rule:nonzero;stroke:none"
    d="m 3566.63,431.961 c -30.87,-6.66 -50.46,-12.902 -58.8,-18.699 -8.29,-5.821 -12.45,-14.821 -12.45,-26.981 0,-8.222 2.36,-14.75 7.13,-19.722 4.75,-4.899 10.94,-7.36 18.49,-7.36 8.31,0 16.27,2.332 23.89,6.992 7.61,4.629 14.82,11.528 21.74,20.75 l -0.37,36.86 0.37,8.16 z m -87.76,26.461 0.17,11.156 -0.17,11.5 18.14,10.313 c 8.21,4.668 15.4,7.879 21.59,9.648 6.14,1.77 12.7,2.672 19.72,2.672 15.32,0 27.66,-3.449 37.02,-10.332 9.37,-6.867 15.04,-15.617 16.91,-26.25 1.32,-7.981 2.18,-27.797 2.5,-59.367 0.24,-29.84 0.9,-46.293 1.98,-49.403 1.11,-3.097 3.91,-4.668 8.33,-4.668 l 12.99,0 0,-10.98 c -12.64,0.777 -21.46,1.168 -26.47,1.168 -6.2,0 -14.53,-0.391 -24.95,-1.168 l 0.14,14.82 c 0,4.778 -0.05,9.571 -0.14,14.457 l -34.49,-26.277 c -3.11,-2.332 -6.16,-3.973 -9.15,-4.91 -2.98,-0.93 -7.15,-1.422 -12.47,-1.422 -14.34,0 -25.26,3.531 -32.81,10.543 -7.53,7.047 -11.32,16.488 -11.32,28.359 0,11.188 2.69,20.989 8.08,29.328 5.36,8.352 13.03,14.551 22.96,18.539 9.95,3.973 32.99,9.18 69.2,15.633 -0.26,14.09 -3.36,24.629 -9.35,31.617 -7.53,8.774 -18.29,13.161 -32.28,13.161 -5.34,0 -10.34,-0.668 -15,-1.938 -4.67,-1.34 -9.01,-3.269 -12.99,-5.883 -3.22,-7.937 -6.16,-15.547 -8.8,-22.816 l -9.34,2.5" /><path
    id="path104"
    style="fill:#fff;fill-opacity:0.9;fill-rule:nonzero;stroke:none"
    d="m 3691.98,589.961 c -1.89,-32.539 -2.83,-61.949 -2.83,-88.262 l 0,-85.57 c 0,-33.957 0.72,-53.219 2.15,-57.77 0.79,-2.328 4.47,-3.828 11,-4.5 l 14.15,-1.488 0,-9.66 c -12.11,0.777 -23.69,1.18 -34.73,1.18 -12.17,0 -28.21,-0.403 -48.02,-1.18 l 0,9.66 14.32,1.168 c 6.35,0.539 9.94,2.16 10.83,4.82 1.46,4.332 2.17,24.02 2.17,59.102 l 0,85.078 -0.17,31.973 -0.5,21.808 c 0,5.442 -0.61,8.77 -1.83,9.989 -1.77,1.773 -5.51,2.671 -11.16,2.671 l -13.66,0 0,9.989 c 23.17,2.101 41.66,6.422 55.45,12.992 l 2.83,-2" /><path
    id="path106"
    style="fill:#fff;fill-opacity:0.9;fill-rule:nonzero;stroke:none"
    d="m 3941.37,462.922 c 10.87,-15.652 24.39,-33.863 40.47,-54.621 l 31.98,-41.449 c 5.65,-7.114 9.43,-11.141 11.29,-12.153 1.91,-1.008 3.85,-1.488 5.84,-1.488 l 4.35,0 0,-10.5 c -9.2,0.777 -17.28,1.168 -24.17,1.168 -6.29,0 -12.96,-0.391 -19.96,-1.168 l -58.96,79.59 c -10.96,14.66 -22.74,28.969 -35.26,42.961 l 1.64,5.648 c 6.44,-0.558 11.23,-0.828 14.33,-0.828 18.55,0 33.02,4.77 43.55,14.316 10.47,9.543 15.69,22.301 15.69,38.301 0,14.313 -4.42,25.492 -13.3,33.531 -8.88,8.051 -21.7,12.071 -38.44,12.071 -11.66,0 -23.39,-2.172 -35.13,-6.469 -1.37,-17.66 -2.01,-36.531 -2.01,-56.621 l 0,-80.422 c 0,-39.18 0.94,-60.91 2.84,-65.168 1.86,-4.293 7.99,-6.41 18.31,-6.41 l 12.98,0 0,-10.5 c -18.42,0.777 -33.7,1.168 -45.79,1.168 -9.54,0 -26.79,-0.391 -51.76,-1.168 l 0,10.5 12.46,0 c 9.55,0 15.22,2.07 16.98,6.25 1.81,4.141 2.69,26.039 2.69,65.668 l 0,80.082 c 0,34.41 -1.05,53.668 -3.08,57.777 -2.09,4.102 -8.76,6.153 -20.08,6.153 l -8.97,0 0,10.488 c 20.62,-0.777 36.39,-1.168 47.25,-1.168 7.34,0 17.89,0.269 31.64,0.828 15.98,0.563 27.48,0.84 34.48,0.84 19.22,0 33.76,-2.027 43.72,-6.07 9.91,-4.059 17.45,-9.918 22.63,-17.571 5.16,-7.656 7.74,-16.816 7.74,-27.476 0,-15.641 -5.65,-29.461 -16.9,-41.453 -11.27,-11.989 -27.59,-20.207 -49.05,-24.637" /><path
    id="path108"
    style="fill:#fff;fill-opacity:0.9;fill-rule:nonzero;stroke:none"
    d="m 4079.41,435.781 c 17.21,-0.781 36.17,-1.172 56.93,-1.172 8.32,0 16.38,0.391 24.14,1.172 l 0,9.321 c 0,9.769 -1.92,19.039 -5.81,27.808 -2.46,5.43 -6.74,9.949 -12.81,13.559 -6.14,3.613 -13.17,5.429 -21.17,5.429 -12.42,0 -22.36,-4.546 -29.81,-13.668 -7.43,-9.101 -11.25,-23.25 -11.47,-42.449 m -0.34,-12.492 c 0.56,-21.859 6.18,-38.457 16.77,-49.769 10.66,-11.329 24.64,-16.989 41.94,-16.989 7.72,0 15.43,1.27 23.07,3.809 7.67,2.558 15.24,6.398 22.8,11.519 l 2.84,-2.5 -5.35,-14 c -9.2,-5.32 -18.71,-9.32 -28.49,-11.988 -9.76,-2.66 -19.78,-3.992 -30.11,-3.992 -22.54,0 -40.73,7.133 -54.54,21.391 -13.8,14.269 -20.72,33.609 -20.72,58.031 0,18.64 3.88,34.801 11.63,48.449 5.12,8.988 14.55,17.309 28.3,24.98 13.77,7.649 27.18,11.481 40.17,11.481 19.66,0 35.2,-5.781 46.69,-17.32 11.47,-11.539 17.21,-27.692 17.21,-48.442 l -0.32,-9.84 c -7.31,-1.769 -14.3,-2.929 -20.96,-3.5 -11.84,-0.879 -28.3,-1.32 -49.35,-1.32 l -41.58,0" /><path
    id="path110"
    style="fill:#fff;fill-opacity:0.9;fill-rule:nonzero;stroke:none"
    d="m 4226.42,393.648 0,-10.867 c 0,-8.679 0.76,-14.109 2.33,-16.222 2.88,-3.528 8.53,-7.008 16.9,-10.368 8.36,-3.339 16.99,-4.98 25.89,-4.98 11.44,0 20.76,3.059 27.98,9.258 7.21,6.152 10.8,13.519 10.8,22.09 0,6.773 -2.09,12.203 -6.31,16.312 -4.22,4.109 -12.26,7.391 -24.15,9.82 -22.07,4.457 -36.69,8.34 -43.78,11.68 -7.09,3.34 -12.45,7.777 -15.99,13.359 -3.55,5.551 -5.32,12.27 -5.32,20.149 0,14.75 5.38,26.769 16.08,36 10.72,9.223 25.92,13.832 45.61,13.832 15.55,0 31.04,-3.109 46.53,-9.332 -0.94,-7.547 -1.74,-20.199 -2.37,-37.957 l -9.96,0 c -0.22,9.769 -1.27,16.207 -3.16,19.316 -2.56,4.114 -7.2,7.84 -13.97,11.16 -6.74,3.313 -13.91,5 -21.57,5 -10.06,0 -18.12,-2.589 -24.18,-7.796 -5.99,-5.141 -9.06,-11.614 -9.06,-19.383 0,-7.457 2.4,-13.059 7.17,-16.848 4.79,-3.883 17.97,-7.992 39.64,-12.312 15.99,-3.207 26.5,-6.219 31.62,-9 5.09,-2.758 9.24,-6.981 12.31,-12.649 3.12,-5.672 4.67,-12.148 4.67,-19.469 0,-14.972 -6.39,-27.882 -19.23,-38.73 -12.81,-10.902 -29.94,-16.332 -51.37,-16.332 -13.62,0 -28.95,2.152 -45.93,6.383 -3,0.789 -4.51,1.949 -4.51,3.5 l 0.5,2.34 c 0.46,1.636 0.84,4.628 1.18,8.867 1.01,10.769 1.48,19.172 1.48,25.203 l -0.15,7.976 10.32,0" /><path
    id="path112"
    style="fill:#fff;fill-opacity:0.9;fill-rule:nonzero;stroke:none"
    d="m 4388.91,434.391 c 0,-22.911 4.69,-42.512 14.07,-58.77 9.38,-16.262 22.89,-24.41 40.56,-24.41 13.43,0 24.26,5.098 32.53,15.32 8.26,10.219 12.39,25.739 12.39,46.5 0,16.821 -2.43,31.328 -7.27,43.61 -4.94,12.269 -11.36,21.211 -19.35,26.82 -7.99,5.621 -16.93,8.43 -26.81,8.43 -8.78,0 -16.67,-2.219 -23.74,-6.672 -7.03,-4.438 -12.24,-10.379 -15.53,-17.84 -4.58,-10.117 -6.85,-21.109 -6.85,-32.988 m -31.3,-11.762 c 0,15.32 3.55,29.16 10.66,41.531 7.11,12.379 17.06,22.051 29.89,29.059 12.82,6.992 27.37,10.492 43.71,10.492 23.64,0 42.57,-6.992 56.76,-20.981 14.23,-14 21.32,-32.628 21.32,-55.941 0,-27.519 -9.28,-49.391 -27.82,-65.598 -16.54,-14.531 -36.35,-21.812 -59.43,-21.812 -22.21,0 -40.24,7.473 -54.18,22.402 -13.94,14.918 -20.91,35.207 -20.91,60.848" /><path
    id="path114"
    style="fill:#fff;fill-opacity:0.9;fill-rule:nonzero;stroke:none"
    d="m 4671.63,342.719 1.8,29.961 -9.79,-10.66 c -7.65,-8.329 -15.45,-14.168 -23.34,-17.559 -7.95,-3.379 -17.71,-5.082 -29.37,-5.082 -9.96,0 -18.56,2.109 -25.74,6.332 -7.24,4.211 -12.45,9.68 -15.71,16.398 -3.25,6.711 -4.93,17.332 -4.93,31.879 0,7.543 0.19,16.321 0.49,26.313 l 0.51,26.801 c 0,18.757 -0.51,29.187 -1.58,31.289 -1.04,2.121 -4.58,3.168 -10.57,3.168 l -14.8,0 0,9.16 c 15.15,1.332 29.12,4.109 41.89,8.332 l 13.87,5.148 c 1.91,0 2.83,-1.379 2.83,-4.148 l -1.16,-16.981 c -1.55,-23.539 -2.33,-45.39 -2.33,-65.609 0,-20.191 0.84,-33.102 2.51,-38.699 1.65,-5.614 5.1,-10.262 10.45,-13.992 5.31,-3.711 11.78,-5.571 19.45,-5.571 10.3,0 19.73,3.321 28.3,9.981 8.6,6.672 14.21,13.379 16.85,20.16 1.46,3.871 2.17,15.57 2.17,35.121 0,32.848 -0.56,50.719 -1.8,53.609 -1.12,2.328 -6.13,3.489 -14.98,3.489 l -13.17,0 0,9.16 c 11.42,1.332 21.14,2.902 29.13,4.66 8,1.769 16.43,4.449 25.32,7.992 1.08,0.559 2.09,0.828 2.99,0.828 1.89,0 2.82,-1.051 2.82,-3.16 l -0.64,-15.469 c -1.69,-37.961 -2.53,-71.371 -2.53,-100.242 0,-16.199 0.84,-25.457 2.53,-27.797 2.42,-3.441 7.67,-5.16 15.78,-5.16 l 9.66,0 0,-9.652 c -13.86,0.781 -25.63,1.16 -35.26,1.16 -7.25,0 -14.45,-0.379 -21.65,-1.16" /><path
    id="path116"
    style="fill:#fff;fill-opacity:0.9;fill-rule:nonzero;stroke:none"
    d="m 4800.46,465.922 c 4.47,4.219 9.32,9.769 14.55,16.637 6.23,8.121 11.99,13.66 17.36,16.64 5.32,3.012 10.97,4.512 16.84,4.512 6.15,0 10.79,-0.723 14.03,-2.16 1.56,-0.692 2.34,-1.723 2.34,-3.172 l -0.16,-1.66 c -1.8,-8.989 -2.77,-21.598 -3,-37.809 l -7.51,0 c -2.56,5.668 -5.55,9.668 -9.04,11.988 -3.49,2.332 -7.65,3.512 -12.53,3.512 -6.53,0 -12.57,-2.219 -18.18,-6.66 -5.57,-4.441 -9.33,-10.641 -11.18,-18.621 -1.9,-7.969 -2.83,-23.68 -2.83,-47.051 0,-15.418 0.59,-28.379 1.82,-38.879 0.44,-3.898 1.57,-6.34 3.35,-7.32 4.2,-2.34 10.42,-3.5 18.66,-3.5 l 9.95,0 0,-9.66 c -16.95,0.781 -33.06,1.172 -48.26,1.172 -14.76,0 -29.38,-0.391 -43.8,-1.172 l 0,9.66 15.98,1.312 c 5.67,0.45 9.24,1.508 10.75,3.168 1.49,1.661 2.47,7.051 2.92,16.153 0.77,16 1.14,34.976 1.14,56.937 0,26.75 -1.05,42.461 -3.14,47.129 -1.45,2.981 -6,4.481 -13.67,4.481 l -13.98,0 0,9.66 c 10.78,1.23 20.35,2.82 28.81,4.742 8.42,1.937 15.91,4.418 22.49,7.418 1.54,0.762 2.81,1.16 3.8,1.16 1.26,0 2.09,-0.34 2.49,-1 0.46,-0.668 0.69,-2.148 0.69,-4.519 l -0.69,-33.098" /><path
    id="path118"
    style="fill:#fff;fill-opacity:0.9;fill-rule:nonzero;stroke:none"
    d="m 5000.76,366.359 4.48,-4.007 -6.83,-10.653 c -7.5,-4.097 -15.3,-7.187 -23.29,-9.238 -8,-2.051 -16.13,-3.082 -24.47,-3.082 -16.3,0 -30.17,3.101 -41.53,9.312 -11.37,6.231 -20.19,15.219 -26.38,26.981 -6.21,11.769 -9.33,25.769 -9.33,41.969 0,14.32 2.41,26.781 7.15,37.371 4.76,10.597 11.49,18.898 20.04,24.886 8.61,5.993 19.38,11.883 32.25,17.653 9.09,4.09 19.25,6.16 30.46,6.16 8.54,0 15.9,-0.699 22.05,-2.109 6.15,-1.391 12.79,-3.821 19.88,-7.422 -2.75,-14.668 -4.26,-29.379 -4.48,-44.078 l -10.48,0 0,8.32 c 0,7.098 -1.05,12.117 -3.06,15.066 -2.08,2.934 -6.78,5.864 -14.07,8.742 -7.33,2.879 -15.34,4.329 -23.98,4.329 -14.98,0 -26.54,-4.59 -34.65,-13.707 -8.08,-9.161 -12.15,-22.813 -12.15,-41.012 0,-23.371 6.02,-42.121 17.99,-56.168 10.76,-12.762 24.64,-19.141 41.62,-19.141 6.65,0 13.2,0.84 19.64,2.52 6.43,1.66 12.82,4.09 19.14,7.308" /><path
    id="path120"
    style="fill:#fff;fill-opacity:0.9;fill-rule:nonzero;stroke:none"
    d="m 5058.87,435.781 c 17.23,-0.781 36.18,-1.172 56.95,-1.172 8.33,0 16.36,0.391 24.16,1.172 l 0,9.321 c 0,9.769 -1.96,19.039 -5.87,27.808 -2.41,5.43 -6.69,9.949 -12.83,13.559 -6.1,3.613 -13.11,5.429 -21.13,5.429 -12.4,0 -22.35,-4.546 -29.76,-13.668 -7.47,-9.101 -11.28,-23.25 -11.52,-42.449 m -0.32,-12.492 c 0.56,-21.859 6.14,-38.457 16.8,-49.769 10.59,-11.329 24.59,-16.989 41.85,-16.989 7.77,0 15.47,1.27 23.13,3.809 7.63,2.558 15.22,6.398 22.78,11.519 l 2.79,-2.5 -5.3,-14 c -9.22,-5.32 -18.7,-9.32 -28.5,-11.988 -9.75,-2.66 -19.79,-3.992 -30.1,-3.992 -22.53,0 -40.71,7.133 -54.53,21.391 -13.82,14.269 -20.73,33.609 -20.73,58.031 0,18.64 3.9,34.801 11.65,48.449 5.12,8.988 14.53,17.309 28.3,24.98 13.78,7.649 27.14,11.481 40.15,11.481 19.62,0 35.22,-5.781 46.67,-17.32 11.5,-11.539 17.25,-27.692 17.25,-48.442 l -0.33,-9.84 c -7.32,-1.769 -14.27,-2.929 -20.96,-3.5 -11.83,-0.879 -28.29,-1.32 -49.36,-1.32 l -41.56,0" /><path
    id="path122"
    style="fill:#fff;fill-opacity:0.9;fill-rule:nonzero;stroke:none"
    d="m 5205.89,393.648 0,-10.867 c 0,-8.679 0.78,-14.109 2.31,-16.222 2.91,-3.528 8.54,-7.008 16.93,-10.368 8.36,-3.339 16.97,-4.98 25.87,-4.98 11.44,0 20.77,3.059 27.97,9.258 7.23,6.152 10.82,13.519 10.82,22.09 0,6.773 -2.12,12.203 -6.31,16.312 -4.23,4.109 -12.27,7.391 -24.15,9.82 -22.11,4.457 -36.69,8.34 -43.8,11.68 -7.09,3.34 -12.44,7.777 -15.96,13.359 -3.57,5.551 -5.34,12.27 -5.34,20.149 0,14.75 5.37,26.769 16.1,36 10.71,9.223 25.92,13.832 45.58,13.832 15.58,0 31.09,-3.109 46.55,-9.332 -0.96,-7.547 -1.73,-20.199 -2.33,-37.957 l -10,0 c -0.22,9.769 -1.27,16.207 -3.17,19.316 -2.52,4.114 -7.17,7.84 -13.96,11.16 -6.75,3.313 -13.91,5 -21.56,5 -10.1,0 -18.15,-2.589 -24.18,-7.796 -6.02,-5.141 -9.04,-11.614 -9.04,-19.383 0,-7.457 2.36,-13.059 7.15,-16.848 4.75,-3.883 17.97,-7.992 39.63,-12.312 15.96,-3.207 26.55,-6.219 31.64,-9 5.09,-2.758 9.19,-6.981 12.31,-12.649 3.11,-5.672 4.65,-12.148 4.65,-19.469 0,-14.972 -6.4,-27.882 -19.2,-38.73 -12.84,-10.902 -29.97,-16.332 -51.38,-16.332 -13.67,0 -28.97,2.152 -45.95,6.383 -3,0.789 -4.51,1.949 -4.51,3.5 l 0.5,2.34 c 0.45,1.636 0.83,4.628 1.17,8.867 0.97,10.769 1.5,19.172 1.5,25.203 l -0.16,7.976 10.32,0" /><path
    id="path124"
    style="fill:#fff;fill-opacity:0.9;fill-rule:nonzero;stroke:none"
    d="m 2243.44,56.9609 0,23.918 c 0,2.582 -0.84,7.582 -2.5,15.0195 -0.76,3.75 -2.67,6.8206 -5.75,9.2036 -3.11,2.378 -6.66,3.546 -10.66,3.546 -5.94,0 -10.46,-1.867 -13.66,-5.617 -3.17,-3.7497 -4.74,-10.8005 -4.74,-21.1599 l 0,-24.9102 37.31,0 z M 2352.59,0 l -183.51,0 0,94.5117 c 0,17.5193 1.49,30.9183 4.49,40.1993 3.01,9.258 8.6,16.73 16.73,22.398 8.13,5.68 18.04,8.52 29.7,8.52 10.21,0 18.98,-2.168 26.37,-6.52 7.39,-4.347 13.37,-10.32 17.97,-17.918 2.92,-4.839 5.34,-11.48 7.27,-19.921 2.25,6.761 4.49,11.679 6.74,14.769 1.52,2.09 4.74,5.102 9.68,9.063 4.92,3.976 8.71,6.617 11.38,7.968 l 53.18,27.461 0,-64.082 -56.09,-30.3201 c -7.26,-3.8398 -11.96,-7.2578 -14.13,-10.2695 -2.83,-4.0781 -4.26,-8.7305 -4.26,-13.8906 l 0,-5.0079 74.48,0 0,-56.9609" /><path
    id="path126"
    style="fill:#fff;fill-opacity:0.9;fill-rule:nonzero;stroke:none"
    d="m 2282.62,299.75 -65.98,-20.27 65.98,-20.039 0,40.309 z m 39.68,11.762 0,-64.391 30.28,-8.949 0,-57.891 -183.51,68.957 0,61.883 183.51,68.961 0,-59.383 -30.28,-9.187" /><path
    id="path128"
    style="fill:#fff;fill-opacity:0.9;fill-rule:nonzero;stroke:none"
    d="m 2169.07,398.109 0,56.7 138.33,0 0,88.511 45.18,0 0,-145.211 -183.51,0" /><path
    id="path130"
    style="fill:#fff;fill-opacity:0.9;fill-rule:nonzero;stroke:none"
    d="m 2169.07,568.988 0,151.973 39.18,0 0,-95.141 29.17,0 0,88.258 37.42,0 0,-88.258 36.2,0 0,97.903 41.54,0 0,-154.735 -183.51,0" /><path
    id="path132"
    style="fill:#fff;fill-opacity:0.9;fill-rule:nonzero;stroke:none"
    d="m 2169.07,756.527 183.512,0 0,56.8359 -183.512,0 0,-56.8359 z" /><path
    id="path134"
    style="fill:#fff;fill-opacity:0.9;fill-rule:nonzero;stroke:none"
    d="m 2286.12,946.305 -38.18,0 0,87.645 78.23,0 c 11.44,-16.79 19.23,-31.61 23.35,-44.512 4.14,-12.903 6.21,-28.192 6.21,-45.879 0,-21.786 -3.72,-39.543 -11.15,-53.274 -7.42,-13.73 -18.48,-24.371 -33.16,-31.93 -14.7,-7.55 -31.56,-11.324 -50.58,-11.324 -20.05,0 -37.46,4.133 -52.28,12.395 -14.8,8.269 -26.05,20.371 -33.73,36.301 -5.93,12.441 -8.89,29.179 -8.89,50.199 0,20.293 1.83,35.465 5.5,45.519 3.68,10.055 9.36,18.405 17.09,25.035 7.72,6.63 17.5,11.62 29.35,14.97 l 9.78,-54.723 c -6.93,-2.25 -12.24,-6.071 -15.9,-11.461 -3.69,-5.371 -5.52,-12.243 -5.52,-20.59 0,-12.43 4.33,-22.352 12.98,-29.731 8.62,-7.379 22.29,-11.082 40.98,-11.082 19.87,0 34.07,3.742 42.57,11.211 8.5,7.473 12.78,17.883 12.78,31.231 0,6.351 -0.92,12.402 -2.77,18.148 -1.84,5.766 -4.96,12.356 -9.38,19.781 l -17.28,0 0,-37.929" /><path
    id="path136"
    style="fill:#fff;fill-opacity:0.9;fill-rule:nonzero;stroke:none"
    d="m 2169.07,1067.86 0,56.72 64.23,0 0,61.97 -64.23,0 0,56.96 183.51,0 0,-56.96 -74.23,0 0,-61.97 74.23,0 0,-56.72 -183.51,0" /><path
    id="path138"
    style="fill:#fff;fill-opacity:0.9;fill-rule:nonzero;stroke:none"
    d="M 2073.08,455.898 0,460.551 1.78125,1250.22 2074.85,1245.57 2073.08,455.898" /><path
    id="path140"
    style="fill:#57ac35;fill-opacity:1;fill-rule:nonzero;stroke:none"
    d="m 1184.46,1692.88 c 24.2,-16.18 25.55,-55.52 64.63,-59 33.67,-19.68 0,-53.27 25.56,-74.02 10.77,24.29 2.74,61.32 32.33,74.02 16.15,-11.57 49.82,2.3 55.21,-21.95 17.52,11.52 41.7,3.45 57.88,-8.16 4.06,-3.43 4.06,-8.02 9.46,-11.56 -2.71,-21.98 -74.11,-18.49 -29.66,-46.31 22.86,-23.11 -33.64,-17.32 -21.49,-45.11 33.6,1.19 30.92,-33.54 53.81,-41.65 -1.34,-15.01 -14.84,-39.39 4.02,-49.78 36.4,-16.16 12.12,28.93 32.33,41.66 26.95,11.57 -4.01,25.49 6.69,47.51 32.36,9.2 64.7,27.77 99.68,24.26 8.08,-32.41 63.31,-13.89 55.23,-49.73 -12.16,-9.3 -29.68,-12.74 -25.58,-30.1 13.42,-5.8 37.68,-9.26 37.68,-27.79 -12.1,-67.08 96.92,-96.08 61.93,-166.6 -13.47,-4.69 -32.3,-1.18 -39.08,-13.92 -5.37,-11.61 12.12,-12.81 16.17,-19.72 1.35,-19.64 2.7,-46.29 -25.54,-47.42 -6.76,5.79 -10.8,0 -16.2,-2.32 17.53,-11.59 21.52,-34.72 9.44,-49.76 -32.3,-13.91 -88.83,16.18 -83.52,-33.54 10.78,2.26 28.31,-16.23 41.79,-3.46 41.73,-35.94 22.91,31.19 61.96,25.39 2.68,24.34 14.77,39.42 41.67,47.5 31.01,-3.48 39.1,-35.89 71.38,-39.37 20.2,-9.22 0,-24.31 0,-35.82 -8.09,-3.52 -17.52,-3.52 -22.88,-11.61 28.31,-15.04 13.45,-53.21 12.14,-77.543 24.19,17.353 48.43,-4.629 52.46,-27.793 -17.46,-31.223 20.21,-68.258 -6.7,-99.481 10.73,-11.613 17.51,-28.976 9.37,-45.14 -2.67,-25.477 -67.27,-28.934 -28.23,-60.243 5.39,-24.297 -36.32,-20.761 -29.6,-47.39 -20.22,-10.461 -49.8,-30.11 -78.1,-13.899 -6.74,-8.101 1.33,-22.011 -5.39,-31.25 -18.87,-11.582 -41.77,0 -61.92,0 -25.61,37.071 -102.34,-27.75 -83.46,39.328 -12.16,8.153 -26.92,9.289 -32.34,-5.757 -8.08,-34.68 61.92,-30.114 35.01,-71.75 -18.85,-12.704 -41.75,12.699 -51.14,-3.5 0,-14.454 -21.9,-43.09 -49,-69.403 -27.1,-26.32 -108.56,-45.129 -116.64,-32.398 -13.46,25.48 29.6,63.648 -12.1,77.527 -17.51,-13.879 -44.43,-11.566 -52.53,8.102 4.04,30.101 -14.78,41.66 -41.75,21.941 -13.47,-9.223 -37.67,-16.18 -41.73,3.488 -14.78,30.129 30.95,53.243 18.9,79.903 -59.26,-19.723 -110.45,-52.09 -152.18,-97.231 -28.24,-147.031 -1.37,-299.722 4.05,-452.5 68.66,-46.261 169.63,-38.14 251.74,-39.351 5.41,-4.59 9.43,-15.02 -2.65,-16.192 -96.97,-3.476 -189.9,-10.4489 -288.15,-19.6677 -2.7,-33.5508 -110.381,-12.75 -45.772,-38.1914 l 0,-11.5781 c -52.511,-6.9492 -102.332,-34.710956 -150.781,-8.082 -24.23,6.9531 -47.129,-18.50005 -61.929,2.332 9.417,23.1484 61.929,0 41.73,31.2109 -28.258,-2.2929 -26.93,23.168 -25.594,38.2071 -70.019,-2.2969 -129.219,5.7692 -203.273,3.5112 -2.738,4.559 4.008,6.891 2.676,10.36 99.632,15.082 222.16,1.18 316.398,33.558 4.055,109.961 8.063,218.692 -2.699,333.321 -35.039,78.633 -118.481,134.222 -184.449,194.34 -10.809,10.461 -16.161,49.82 -25.59,16.23 -44.41,9.313 -28.313,-72.891 -41.719,-79.848 -9.441,-2.312 -32.328,-34.73 -45.781,-53.222 -21.574,-8.071 -43.102,-8.071 -64.629,0 -6.699,18.492 -22.863,10.429 -39.055,8.121 -16.824,13.012 -24.906,27.91 -28.988,43.539 -12.262,46.871 11.453,100.25 -57.215,128.863 -13.402,4.668 -28.262,17.328 -43.031,0 -35,17.328 -8.102,55.571 -41.758,77.571 -4.047,-3.504 -9.426,-3.504 -12.106,-8.118 -29.66,4.614 4.024,33.578 -29.66,39.36 -24.187,3.457 -57.871,-33.535 -78.07,0 -1.316,26.64 -16.148,34.711 -44.437,30.078 -37.68,24.281 52.539,59.012 -20.172,55.578 -9.45,10.363 -20.192,27.723 -16.168,41.641 48.488,10.382 -2.668,87.928 59.257,49.768 28.274,3.42 0,24.29 5.372,39.31 10.761,35.88 40.371,60.23 84.82,53.25 14.82,-10.4 -4.008,-23.13 6.726,-33.54 21.543,4.57 25.614,30.06 53.875,24.25 29.598,-9.26 76.727,-9.26 68.692,-49.69 18.797,-4.66 33.629,13.84 55.164,11.52 9.445,0 22.91,0 25.57,10.46 -44.406,5.72 29.664,68.22 -25.57,37 -26.906,1.12 -10.758,65.95 -52.481,30.04 -20.21,4.67 -36.386,30.15 -44.464,49.82 4.058,16.19 -8.094,19.64 -20.204,25.46 -4.027,22.01 6.731,53.2 4.075,71.78 9.386,34.67 61.91,35.84 57.91,69.38 -6.742,16.2 10.758,25.48 22.848,33.59 29.617,-5.8 8.089,33.55 18.871,47.46 -2.711,24.29 30.925,23.17 41.738,35.85 14.769,-4.62 24.199,-12.68 29.598,-25.47 -9.399,-19.64 -43.067,-41.66 -16.125,-63.64 12.125,35.89 51.136,3.5 76.726,5.8 18.852,-60.14 47.102,53.21 68.672,-16.19 14.789,-30.13 35,8.08 55.16,8.08 0,12.74 13.477,27.78 0,38.2 -25.543,17.37 -82.152,6.94 -64.601,50.92 -18.872,-40.53 -55.176,0 -84.821,4.62 -16.148,15.03 -12.129,39.29 13.473,45.17 16.172,20.81 63.309,15.01 44.387,49.68 10.793,12.79 24.285,10.43 36.402,2.36 0,13.87 -4.031,34.68 18.84,41.65 57.879,31.23 29.605,-56.69 78.078,-22.01 -13.449,6.97 -16.16,24.33 -6.758,35.9 18.918,30.07 49.84,24.33 80.832,37.07 26.918,-24.31 86.117,-17.37 94.207,-61.37 -38.988,-42.83 48.469,-77.55 0,-116.91 10.821,0 29.629,1.19 41.75,8.12 -8.082,18.55 -1.359,38.23 16.141,49.73 12.14,1.18 26.93,-1.15 39.066,3.49 -2.66,23.15 -60.59,16.22 -29.629,47.51 22.871,5.74 9.442,31.16 22.871,43.9 17.524,47.46 72.754,13.92 92.924,55.58 18.85,-2.32 10.76,-23.16 26.91,-30.05 12.18,16.17 0,46.23 28.3,52.03 28.23,1.18 21.52,-34.77 52.51,-30.1" /><path
    id="path142"
    style="fill:#fff;fill-opacity:0.9;fill-rule:nonzero;stroke:none"
    d="m 1044.43,1028.63 c -12.14,-16.18 -29.63,-27.77 -48.473,-44.009 0,26.689 -40.387,62.549 -2.711,89.159 25.604,15.04 4.055,35.85 29.654,52.08 12.12,-30.11 -14.81,-74.07 21.53,-97.23" /><path
    id="path144"
    style="fill:#fff;fill-opacity:0.9;fill-rule:nonzero;stroke:none"
    d="m 944.785,1036.77 c -4.008,-26.64 10.781,-64.844 -13.457,-79.883 -6.711,20.82 1.317,59.023 -5.383,79.883 l 18.84,0" /><path
    id="path146"
    style="fill:#fff;fill-opacity:0.9;fill-rule:nonzero;stroke:none"
    d="m 1092.87,995.09 c -41.71,-3.535 -9.38,-41.66 -34.97,-49.774 -34.99,-27.742 9.43,-54.402 9.43,-83.351 -13.49,-6.891 -32.32,-16.16 -39.06,-33.524 2.69,-15.019 8.09,-31.308 26.97,-38.222 29.57,-3.43 55.16,30.097 83.45,8.164 -12.14,-11.594 -29.61,-28.93 -13.48,-44.055 9.44,-13.879 31.02,-19.629 43.07,-9.219 1.37,8.067 10.78,10.43 18.86,11.59 17.51,-35.879 -39.01,-22 -55.2,-35.879 -9.41,-17.398 -36.35,5.801 -48.45,-13.898 -14.81,-17.391 -36.4,-27.82 -60.58,-27.82 1.33,99.503 -40.387,234.945 34.99,319.433 9.43,10.475 36.31,64.815 41.72,16.185 2.71,-6.97 -2.69,-12.69 -6.75,-19.63" /><path
    id="path148"
    style="fill:#fff;fill-opacity:0.9;fill-rule:nonzero;stroke:none"
    d="m 899.039,915.184 c 8.078,-26.575 14.801,-55.485 6.727,-83.305 -18.836,-10.391 -1.328,19.707 -16.161,24.324 10.762,13.875 8.051,26.598 4.012,41.625 -22.851,6.973 -10.742,17.356 5.422,17.356" /><path
    id="path150"
    style="fill:#fff;fill-opacity:0.9;fill-rule:nonzero;stroke:none"
    d="m 845.137,812.277 c 74.074,-56.746 56.582,-158.586 64.644,-236.136 -32.297,26.66 -75.402,56.711 -103.652,83.339 6.738,20.821 56.547,43.942 18.848,69.411 1.351,26.64 8.043,64.804 -16.168,83.386 16.168,6.907 24.211,-16.218 36.328,0" /><path
    id="path152"
    style="fill:#57ac35;fill-opacity:1;fill-rule:nonzero;stroke:none"
    d="m 995.957,328.531 0,-105.34 0,105.34" /><path
    id="path154"
    style="fill:#57ac35;fill-opacity:1;fill-rule:nonzero;stroke:none"
    d="M 896.117,171.27 C 892.844,121.43 821.059,115.949 785.359,102.039" /><path
    id="path156"
    style="fill:#57ac35;fill-opacity:1;fill-rule:nonzero;stroke:none"
    d="m 1013.79,326.121 c 0,-145.371 -17.313,-190.34 -17.313,-190.34 l -34.602,10.36 10.41,179.98 41.505,0" /></g></g>
</svg>