<svg width="48" height="48" viewBox="0 0 48 48" xmlns="http://www.w3.org/2000/svg"><path fill="#DD2C00" d="M26.053 13L11.17 27.857c-1.56 1.56-1.56 4.086 0 5.646L21.515 43.83c1.563 1.56 4.096 1.56 5.657 0L42 28.974v-11.98C42 14.788 40.262 13 38.053 13h-12zM36 21c-1.104 0-2-.896-2-2 0-1.106.896-2 2-2s2 .894 2 2c0 1.104-.896 2-2 2"/><path fill="#FF5722" d="M22.026 4L7.17 18.856c-1.56 1.56-1.56 4.087 0 5.647L17.494 34.83c1.56 1.56 4.09 1.56 5.647 0L38 19.975V7.993C38 5.787 36.212 4 34.006 4h-11.98zm10 7.957c-1.104 0-2-.893-2-1.992 0-1.102.896-1.99 2-1.99s2 .89 2 1.99-.912 2.01-2.017 2.01"/></svg>