<svg height="48" width="48" viewBox="0 0 512 512" xmlns="http://www.w3.org/2000/svg"><path fill="transparent" d="M0 0h512v512H0V0z"/><path fill="#E65100" d="M250.15 17.27c33.58-1.79 67.64 6.16 96.86 22.82 29.33 16.55 53.78 41.62 69.59 71.35 13.55 25.25 20.76 53.84 20.93 82.49.33 35.05-7.17 69.93-20.33 102.35-17.06 42.57-42.26 81.39-70.56 117.3-23.67 29.45-49.55 57.15-77.6 82.48-2.74 2.35-5.3 4.92-8.21 7.07-1.3 1.01-3.1.2-4.06-.87-28.25-24.7-54.29-51.89-78.19-80.81-25.02-30.58-47.63-63.35-65.2-98.82-16.63-33.61-28.75-69.97-31.33-107.57-2-23.16-.39-46.77 6.17-69.13 10.99-38.64 35.67-73.15 68.5-96.25 27.23-19.38 60.05-30.74 93.43-32.41z"/><path fill="#F8F2E4" d="M245.11 59.19c26.87-2.79 54.56 2.52 78.35 15.38 26.28 13.99 47.71 36.86 59.93 64.02 11.41 24.92 14.8 53.34 9.98 80.29-5.05 28.47-19.56 55.13-40.6 74.94-22.09 20.91-51.34 34.21-81.69 36.66-28.33 2.56-57.43-4.07-81.78-18.8-25.21-15-45.32-38.41-56.32-65.62-10.68-25.99-12.81-55.32-6.4-82.65 6.05-25.76 19.82-49.63 39.15-67.71 21.44-20.52 49.86-33.5 79.38-36.51z"/><path fill="#424242" d="M275 95h-30c-8.5 0-15 6.5-15 15v15h10v-15c0-3 2-5 5-5h30c3 0 5 2 5 5v15h10v-15c0-8.5-6.5-15-15-15z"/><path fill="#E65100" d="M340 275H180c-11 0-20-9-20-20V135c0-11 9-20 20-20h160c11 0 20 9 20 20v120c0 11-9 20-20 20z"/><path fill="#FF6E40" d="M340 200H180c-11 0-20-9-20-20v-45c0-11 9-20 20-20h160c11 0 20 9 20 20v45c0 11-9 20-20 20z"/><path fill="#FFF3E0" d="M270 190h-20c-3 0-5-2-5-5v-10c0-3 2-5 5-5h20c3 0 5 2 5 5v10c0 3-2 5-5 5z"/></svg>