<svg xmlns="http://www.w3.org/2000/svg" viewBox="0 0 710.8125 215.375"><path d="M512.622 200.32c0 .3.027.625.1.9.375 1.52 1.722 2.568 3.27 2.568 2.32 0 3.667-1.895 3.667-4.665 0-2.42-1.25-4.49-3.57-4.49-1.496 0-2.918 1.047-3.34 2.695-.05.298-.128.622-.128.897v2.096zm-2.195-3.217c0-1.548-.023-2.795-.1-3.943h1.972l.124 2.07h.05c.872-1.496 2.318-2.342 4.266-2.342 2.944 0 5.14 2.468 5.14 6.136 0 4.34-2.67 6.486-5.49 6.486-1.62 0-2.994-.7-3.718-1.895h-.05v6.56h-2.195v-13.072M530.987 199.074c-2.395-.05-5.115.373-5.115 2.72 0 1.446.948 2.094 2.045 2.094 1.598 0 2.62-.998 2.97-2.02.074-.225.1-.475.1-.7v-2.094zm2.144 3.267c0 1.05.05 2.073.176 2.895h-1.97l-.2-1.52h-.075c-.648.946-1.97 1.795-3.69 1.795-2.446 0-3.694-1.722-3.694-3.467 0-2.92 2.595-4.517 7.26-4.492v-.247c0-.998-.274-2.82-2.745-2.796-1.146 0-2.318.325-3.166.9l-.5-1.473c.998-.624 2.47-1.046 3.992-1.046 3.718 0 4.615 2.518 4.615 4.938v4.515M536.676 196.927c0-1.42-.024-2.643-.1-3.767h1.92l.1 2.37h.076c.55-1.62 1.898-2.642 3.368-2.642.225 0 .4.023.6.073v2.046c-.25-.024-.474-.048-.774-.048-1.547 0-2.645 1.17-2.943 2.794-.05.323-.075.672-.075 1.047v6.435h-2.195l.023-8.308M547.105 198.7h.05c.3-.425.7-.974 1.05-1.372l3.566-4.168h2.62l-4.665 4.967 5.315 7.108h-2.67l-4.14-5.813-1.125 1.273v4.54h-2.195v-17.71h2.195V198.7M556.314 203.015c.674.4 1.82.85 2.92.85 1.57 0 2.32-.775 2.32-1.8 0-1.047-.624-1.62-2.22-2.217-2.198-.8-3.22-1.972-3.22-3.418 0-1.946 1.596-3.542 4.166-3.542 1.224 0 2.296.322 2.945.746l-.524 1.572c-.474-.273-1.346-.7-2.47-.7-1.296 0-1.996.75-1.996 1.65 0 1.02.7 1.47 2.27 2.07 2.072.772 3.17 1.82 3.17 3.642 0 2.145-1.673 3.642-4.49 3.642-1.323 0-2.546-.35-3.395-.85l.524-1.645M567.168 205.51c-.85 0-1.447-.674-1.447-1.572 0-.897.625-1.57 1.498-1.57.872 0 1.472.647 1.472 1.57 0 .898-.6 1.572-1.498 1.572h-.024M571.434 196.927c0-1.42-.025-2.643-.1-3.767h1.92l.1 2.37h.076c.55-1.62 1.896-2.642 3.368-2.642.225 0 .398.023.598.073v2.046c-.248-.024-.472-.048-.773-.048-1.547 0-2.644 1.17-2.943 2.794-.05.323-.076.672-.076 1.047v6.435h-2.195l.024-8.308M585.806 199.074c-2.395-.05-5.115.373-5.115 2.72 0 1.446.95 2.094 2.047 2.094 1.597 0 2.62-.998 2.97-2.02.074-.225.1-.475.1-.7v-2.094zm2.145 3.267c0 1.05.05 2.073.175 2.895h-1.97l-.2-1.52h-.074c-.65.946-1.97 1.795-3.693 1.795-2.445 0-3.692-1.722-3.692-3.467 0-2.92 2.596-4.517 7.26-4.492v-.247c0-.998-.274-2.82-2.744-2.796-1.146 0-2.32.325-3.166.9l-.5-1.473c.998-.624 2.47-1.046 3.99-1.046 3.718 0 4.617 2.518 4.617 4.938v4.515M591.47 205.235h2.195v-17.71h-2.195v17.71zM604.967 198c.027-1.37-.573-3.567-3.018-3.567-2.246 0-3.195 2.046-3.37 3.567h6.388zm-6.41 1.57c.05 2.97 1.92 4.194 4.115 4.194 1.573 0 2.545-.274 3.344-.6l.4 1.548c-.775.35-2.122.773-4.042.773-3.693 0-5.938-2.47-5.938-6.086 0-3.67 2.17-6.54 5.688-6.54 3.94 0 4.963 3.47 4.963 5.69 0 .447-.023.798-.073 1.048l-8.458-.027M609.81 205.235V193.16h2.195v12.075h-2.195zm1.048-14.294c-.823 0-1.373-.65-1.373-1.422 0-.773.574-1.397 1.423-1.397.848 0 1.397.625 1.397 1.398 0 .773-.55 1.423-1.42 1.423h-.027M623.783 197.9c0-.35-.027-.673-.127-.973-.398-1.296-1.446-2.344-3.067-2.344-2.098 0-3.594 1.77-3.594 4.59 0 2.346 1.223 4.342 3.568 4.342 1.37 0 2.595-.85 3.042-2.27.127-.35.177-.775.177-1.173v-2.17zm2.195 5.564c0 2.795-.574 4.466-1.722 5.538-1.197 1.074-2.895 1.448-4.416 1.448-1.448 0-3.044-.35-4.016-.997l.55-1.698c.797.525 2.045.973 3.54.973 2.246 0 3.892-1.173 3.892-4.24v-1.323h-.05c-.647 1.124-1.97 2.02-3.84 2.02-2.995 0-5.14-2.545-5.14-5.91 0-4.094 2.67-6.387 5.463-6.387 2.095 0 3.218 1.07 3.768 2.07h.048l.075-1.798h1.948c-.077.85-.1 1.822-.1 3.294v7.01M629.596 187.524h2.195v7.534h.05c.35-.625.9-1.2 1.574-1.548.65-.4 1.422-.622 2.245-.622 1.62 0 4.215.996 4.215 5.162v7.185h-2.195V198.3c0-1.97-.724-3.59-2.794-3.59-1.422 0-2.52.995-2.945 2.192-.123.3-.15.624-.15 1.048v7.285h-2.194v-17.71M643.444 196.43c0-1.274-.025-2.27-.1-3.27h1.946l.126 1.97h.05c.598-1.12 1.994-2.242 3.99-2.242 1.673 0 4.267.996 4.267 5.138v7.21h-2.195v-6.96c0-1.947-.724-3.593-2.794-3.593-1.423 0-2.545 1.022-2.945 2.244-.1.276-.15.674-.15 1.023v7.285h-2.196v-8.805M665.9 204.81c-.574.276-1.846.7-3.467.7-3.643 0-6.013-2.47-6.013-6.188 0-3.717 2.544-6.434 6.486-6.434 1.298 0 2.445.322 3.044.647l-.5 1.67c-.522-.272-1.346-.573-2.544-.573-2.768 0-4.265 2.07-4.265 4.59 0 2.796 1.796 4.517 4.19 4.517 1.25 0 2.07-.3 2.695-.575l.375 1.646M669.17 205.51c-.85 0-1.447-.674-1.447-1.572 0-.897.623-1.57 1.496-1.57s1.47.647 1.47 1.57c0 .898-.597 1.572-1.495 1.572h-.026M681.545 197.9c0-.35-.026-.673-.126-.973-.4-1.296-1.448-2.344-3.07-2.344-2.095 0-3.59 1.77-3.59 4.59 0 2.346 1.22 4.342 3.566 4.342 1.37 0 2.595-.85 3.044-2.27.125-.35.175-.775.175-1.173v-2.17zm2.195 5.564c0 2.795-.574 4.466-1.72 5.538-1.2 1.074-2.896 1.448-4.418 1.448-1.447 0-3.043-.35-4.016-.997l.55-1.698c.798.525 2.044.973 3.542.973 2.245 0 3.89-1.173 3.89-4.24v-1.323h-.05c-.647 1.124-1.97 2.02-3.84 2.02-2.994 0-5.14-2.545-5.14-5.91 0-4.094 2.67-6.387 5.463-6.387 2.098 0 3.22 1.07 3.77 2.07h.05l.074-1.798h1.946c-.075.85-.1 1.822-.1 3.294v7.01M692.347 203.864c2.097 0 3.67-1.97 3.67-4.717 0-2.043-1.023-4.614-3.62-4.614-2.568 0-3.69 2.394-3.69 4.69 0 2.645 1.497 4.64 3.617 4.64h.024zm-.073 1.646c-3.244 0-5.788-2.395-5.788-6.213 0-4.04 2.67-6.41 5.988-6.41 3.466 0 5.812 2.52 5.812 6.187 0 4.49-3.12 6.436-5.987 6.436h-.026M701.73 193.16l2.37 6.76c.4 1.124.725 2.122.974 3.12h.076c.274-.997.624-1.996 1.022-3.12l2.345-6.76h2.295l-4.74 12.075h-2.096l-4.59-12.075h2.345M318.35 62.28c-.098 1.996-.146 4.126-.146 6.388V80.55c0 4.178.124 6.515.374 7.014.248.5 1.068.75 2.456.75h1.436v1.31c-2.454-.095-4.39-.145-5.806-.145-1.25 0-3.46.05-6.638.145v-1.31h1.87c.876 0 1.436-.11 1.688-.324.25-.214.408-.65.48-1.31.067-.657.145-2.674.226-6.045V69.52l-.06-4.307c-.028-1.79-.22-2.885-.574-3.288-.354-.402-1.217-.604-2.59-.604h-1.04v-1.31c1.733.07 3.933.105 6.595.105 1.57 0 3.31-.043 5.226-.125 1.262-.056 2.22-.085 2.87-.085 3.36 0 5.802.61 7.33 1.833 1.508 1.22 2.265 2.87 2.265 4.953 0 1.513-.434 2.966-1.31 4.36-.875 1.395-2.112 2.515-3.716 3.36-1.6.85-3.31 1.27-5.128 1.27-.832 0-1.873-.13-3.122-.394l-.414-1.562c1.22.306 2.24.46 3.058.46 1.915 0 3.435-.58 4.556-1.74 1.125-1.158 1.687-2.743 1.687-4.754 0-1.944-.6-3.46-1.797-4.547-1.204-1.09-2.99-1.635-5.362-1.635-1.344 0-2.814.257-4.41.772M348.775 78.47c-3.857.83-6.306 1.61-7.348 2.336-1.037.727-1.558 1.852-1.558 3.374 0 1.024.297 1.845.894 2.46.595.616 1.365.924 2.31.924 1.04 0 2.035-.29 2.986-.87.95-.583 1.855-1.448 2.715-2.598l-.04-4.607.04-1.02zm-10.966-3.31l.017-1.394-.018-1.435 2.27-1.29c1.024-.583 1.92-.985 2.69-1.208.772-.222 1.594-.332 2.47-.332 1.91 0 3.455.43 4.627 1.29 1.174.86 1.878 1.954 2.113 3.284.167.997.27 3.47.312 7.42.027 3.728.112 5.787.252 6.175.136.386.485.58 1.04.58h1.623v1.375c-1.583-.096-2.687-.145-3.31-.145-.777 0-1.816.05-3.122.145l.023-1.85c0-.598-.008-1.2-.023-1.81l-4.31 3.285c-.386.29-.767.498-1.14.615-.377.116-.894.178-1.564.178-1.787 0-3.155-.442-4.096-1.322-.944-.877-1.416-2.06-1.416-3.542 0-1.397.335-2.62 1.008-3.665.674-1.047 1.63-1.82 2.872-2.32 1.245-.495 4.125-1.148 8.647-1.95-.028-1.763-.416-3.082-1.165-3.955-.943-1.097-2.29-1.644-4.038-1.644-.666 0-1.288.082-1.873.244-.584.163-1.125.408-1.62.735-.405.99-.774 1.94-1.108 2.85l-1.163-.312M364.03 74.222c.554-.524 1.163-1.218 1.813-2.078.78-1.013 1.502-1.71 2.17-2.08.67-.376 1.373-.563 2.108-.563.768 0 1.35.09 1.755.27.196.085.293.216.293.396l-.023.21c-.22 1.123-.344 2.698-.374 4.723h-.936c-.316-.71-.69-1.21-1.13-1.5-.436-.29-.956-.436-1.57-.436-.813 0-1.57.277-2.266.83-.7.555-1.17 1.33-1.398 2.33-.24.997-.356 2.956-.356 5.88 0 1.925.076 3.547.226 4.863.06.487.195.792.42.914.528.292 1.3.437 2.33.437h1.25v1.208c-2.126-.096-4.135-.145-6.037-.145-1.844 0-3.67.05-5.474.145v-1.208l1.998-.165c.707-.056 1.153-.19 1.34-.396.19-.206.31-.88.363-2.02.1-1.997.15-4.37.15-7.116 0-3.343-.13-5.306-.395-5.89-.18-.375-.75-.56-1.707-.56h-1.75v-1.21c1.348-.15 2.547-.35 3.6-.59 1.057-.245 1.992-.553 2.81-.93.197-.094.356-.143.48-.143.153 0 .257.042.31.125.057.083.086.272.086.565l-.085 4.135M380.93 79.2v2.642c0 3.495.11 5.465.344 5.91.227.444.925.665 2.09.665h1.27l-.002 1.208-1.126-.04c-2-.07-3.322-.106-3.96-.106l-5.55.145v-1.208h1.23c1.07 0 1.7-.2 1.895-.606.195-.4.292-2.38.292-5.943V69.435c0-4.6-.102-7.183-.313-7.738-.124-.336-.665-.5-1.624-.5h-1.767V59.99c1.17 0 2.835-.29 5.006-.863l2.108-.657c.223 0 .335.14.335.417l-.105 2.083c-.03.527-.07 3.43-.126 8.71v8.352l.27.147c1.26-.945 2.334-1.793 3.22-2.54.456-.39 1.497-1.36 3.117-2.914l2.993-2.81h4.196v1.208h-.746c-.488 0-1.11.228-1.87.685-1.514.9-4.008 2.792-7.486 5.674 2.603 2.707 4.207 4.33 4.803 4.875 2.77 2.552 4.443 4.06 5.012 4.517.347.284.64.477.89.578.252.102.602.18 1.064.234v.935c-1.208.54-2.532.986-3.97 1.332-.818-.666-2.752-2.525-5.8-5.577-2.23-2.235-4.04-3.96-5.424-5.18h-.27M399.844 83.256v1.358c0 1.088.1 1.762.294 2.028.36.446 1.065.877 2.11 1.296 1.05.417 2.13.626 3.24.626 1.428 0 2.593-.385 3.494-1.158.904-.77 1.352-1.69 1.352-2.76 0-.846-.262-1.53-.788-2.04-.53-.516-1.534-.926-3.02-1.23-2.76-.556-4.582-1.042-5.474-1.46-.886-.416-1.552-.97-1.995-1.666-.447-.694-.668-1.535-.668-2.52 0-1.848.67-3.348 2.012-4.5 1.338-1.154 3.242-1.73 5.697-1.73 1.95 0 3.884.39 5.82 1.165-.123.944-.216 2.526-.294 4.746h-1.25c-.026-1.22-.157-2.024-.395-2.414-.32-.514-.896-.977-1.743-1.395-.843-.414-1.74-.623-2.7-.623-1.258 0-2.262.323-3.02.97-.75.645-1.133 1.454-1.133 2.427 0 .93.3 1.632.9 2.105.595.485 2.246 1 4.95 1.54 2 .404 3.316.777 3.952 1.124.64.347 1.155.875 1.543 1.58.39.707.58 1.52.58 2.433 0 1.872-.8 3.488-2.405 4.846-1.596 1.358-3.74 2.04-6.42 2.04-1.703 0-3.616-.268-5.74-.8-.378-.098-.565-.242-.565-.438l.065-.292c.055-.208.104-.578.144-1.107.124-1.347.188-2.397.188-3.15l-.022-1h1.288M423.072 83.735l.582.625c-.79 1.928-1.645 3.665-2.565 5.214-.927 1.547-2.152 3.278-3.68 5.192l-1.748.894-.622-.644c1.206-1.86 2.09-3.545 2.652-5.06.563-1.51.942-3.147 1.135-4.91 1.61-.387 3.025-.825 4.245-1.31M323.714 115.718c1.36 1.956 3.047 4.232 5.06 6.826l3.995 5.182c.705.89 1.178 1.394 1.414 1.518.235.126.477.19.726.19h.542v1.31c-1.15-.098-2.156-.146-3.017-.146-.79 0-1.624.048-2.5.146l-7.362-9.95c-1.375-1.83-2.847-3.62-4.415-5.368l.21-.708c.805.07 1.4.105 1.79.105 2.316 0 4.127-.598 5.442-1.79 1.31-1.193 1.965-2.787 1.965-4.786 0-1.79-.556-3.188-1.664-4.194-1.11-1.007-2.714-1.51-4.806-1.51-1.46 0-2.92.272-4.39.813-.17 2.206-.25 4.564-.25 7.075v10.055c0 4.895.116 7.613.352 8.146.237.535 1 .803 2.288.803h1.622v1.31c-2.3-.097-4.207-.145-5.72-.145-1.193 0-3.352.048-6.472.146v-1.31h1.56c1.195 0 1.9-.263 2.124-.783.22-.52.33-3.257.33-8.207V110.43c0-4.3-.127-6.707-.384-7.22-.256-.514-1.093-.77-2.506-.77h-1.124v-1.31c2.58.096 4.55.144 5.91.144.914 0 2.234-.035 3.954-.103 1.998-.07 3.433-.104 4.307-.104 2.4 0 4.223.253 5.463.76 1.243.508 2.186 1.238 2.832 2.197.642.956.965 2.1.965 3.432 0 1.958-.703 3.684-2.11 5.183-1.41 1.5-3.45 2.525-6.13 3.08M340.966 119.11c2.15.098 4.525.147 7.12.147 1.04 0 2.046-.05 3.014-.147v-1.165c0-1.22-.24-2.38-.726-3.476-.304-.68-.84-1.246-1.6-1.697-.764-.45-1.646-.677-2.644-.677-1.554 0-2.797.57-3.726 1.707-.928 1.137-1.41 2.905-1.438 5.307m-.04 1.56c.07 2.733.77 4.81 2.1 6.224 1.328 1.415 3.075 2.122 5.236 2.122.967 0 1.933-.16 2.885-.48.958-.317 1.904-.796 2.848-1.435l.354.315-.666 1.746c-1.153.668-2.338 1.168-3.56 1.5-1.218.334-2.475.5-3.764.5-2.818 0-5.09-.89-6.816-2.675-1.73-1.782-2.592-4.2-2.592-7.253 0-2.332.485-4.35 1.457-6.055.635-1.126 1.815-2.165 3.536-3.123 1.72-.957 3.39-1.435 5.015-1.435 2.457 0 4.402.72 5.84 2.163 1.435 1.442 2.15 3.46 2.15 6.056l-.04 1.227c-.915.222-1.785.37-2.618.437-1.48.112-3.538.166-6.17.166h-5.196M373.038 127.788l.563.5-.854 1.33c-.943.513-1.912.9-2.915 1.157-.995.256-2.017.386-3.056.386-2.04 0-3.77-.388-5.195-1.164-1.42-.78-2.517-1.902-3.297-3.374-.778-1.47-1.165-3.218-1.165-5.244 0-1.79.298-3.347.892-4.672.6-1.324 1.435-2.36 2.51-3.11 1.075-.75 2.416-1.484 4.025-2.207 1.14-.515 2.41-.77 3.807-.77 1.072 0 1.99.086 2.763.26.767.175 1.596.483 2.486.93-.346 1.833-.533 3.673-.563 5.51h-1.31v-1.04c0-.888-.127-1.517-.387-1.885-.255-.367-.843-.73-1.758-1.092-.913-.36-1.915-.54-2.997-.54-1.873 0-3.314.57-4.326 1.713-1.014 1.145-1.52 2.853-1.52 5.126 0 2.922.747 5.264 2.245 7.025 1.347 1.592 3.082 2.388 5.204 2.388.832 0 1.652-.102 2.455-.312.804-.206 1.6-.512 2.392-.915M382.985 115.34c.557-.526 1.164-1.218 1.816-2.077.78-1.015 1.503-1.71 2.173-2.083.665-.374 1.367-.56 2.103-.56.768 0 1.35.09 1.758.27.195.083.292.216.292.395l-.025.208c-.216 1.123-.345 2.7-.37 4.724h-.94c-.32-.708-.692-1.207-1.13-1.5-.435-.288-.956-.435-1.567-.435-.814 0-1.573.277-2.272.83-.697.553-1.166 1.33-1.396 2.328-.238 1-.354 2.957-.354 5.88 0 1.927.075 3.55.228 4.865.056.486.195.792.415.915.528.29 1.306.436 2.33.436h1.25v1.208c-2.122-.096-4.132-.145-6.037-.145-1.842 0-3.666.048-5.47.144v-1.208l1.997-.167c.707-.055 1.156-.186 1.34-.395.19-.207.31-.88.366-2.02.095-1.998.145-4.37.145-7.118 0-3.34-.13-5.306-.395-5.888-.18-.375-.75-.564-1.705-.564h-1.75v-1.207c1.346-.153 2.548-.35 3.6-.594 1.055-.242 1.99-.55 2.81-.926.194-.097.355-.146.478-.146.152 0 .257.04.312.126.058.084.085.272.085.565l-.085 4.135M396.368 119.11c2.15.098 4.523.147 7.118.147 1.04 0 2.045-.05 3.018-.147v-1.165c0-1.22-.244-2.38-.73-3.476-.305-.68-.84-1.246-1.604-1.697-.76-.45-1.643-.677-2.64-.677-1.556 0-2.794.57-3.726 1.707-.93 1.137-1.41 2.905-1.436 5.307m-.042 1.56c.07 2.733.77 4.81 2.1 6.224 1.327 1.415 3.078 2.122 5.237 2.122.967 0 1.93-.16 2.887-.48.956-.317 1.9-.796 2.848-1.435l.353.315-.665 1.746c-1.155.668-2.34 1.168-3.56 1.5-1.22.334-2.476.5-3.766.5-2.82 0-5.09-.89-6.817-2.675-1.725-1.782-2.593-4.2-2.593-7.253 0-2.332.486-4.35 1.458-6.055.638-1.126 1.817-2.165 3.538-3.123 1.723-.957 3.393-1.435 5.016-1.435 2.457 0 4.4.72 5.838 2.163 1.436 1.442 2.152 3.46 2.152 6.056l-.04 1.227c-.915.222-1.79.37-2.62.437-1.48.112-3.536.166-6.168.166h-5.198M425.524 119.588c-3.854.83-6.304 1.61-7.344 2.337-1.042.725-1.564 1.852-1.564 3.372 0 1.028.3 1.846.895 2.46.6.618 1.366.926 2.31.926 1.04 0 2.04-.29 2.99-.872.95-.58 1.85-1.446 2.714-2.596l-.042-4.606.042-1.02zm-10.968-3.308l.02-1.395-.02-1.436 2.27-1.29c1.028-.584 1.924-.986 2.695-1.21.77-.22 1.593-.33 2.468-.33 1.915 0 3.455.428 4.63 1.288 1.17.86 1.876 1.955 2.113 3.285.163.996.27 3.472.31 7.42.03 3.728.115 5.787.25 6.175.14.388.486.583 1.04.583h1.625v1.374c-1.584-.097-2.684-.146-3.31-.146-.775 0-1.817.05-3.12.146l.02-1.85c0-.6-.006-1.2-.02-1.81l-4.31 3.286c-.386.29-.77.495-1.142.612-.375.118-.897.18-1.562.18-1.79 0-3.157-.443-4.1-1.322-.944-.88-1.415-2.06-1.415-3.543 0-1.4.34-2.622 1.013-3.666.668-1.045 1.628-1.816 2.87-2.316 1.242-.5 4.122-1.15 8.646-1.953-.028-1.76-.415-3.08-1.165-3.953-.946-1.097-2.29-1.645-4.04-1.645-.666 0-1.29.083-1.874.245-.58.162-1.122.407-1.62.733-.403.992-.77 1.942-1.102 2.852l-1.168-.312M440.635 114.386v8.17c0 2.127.07 3.488.205 4.084.14.6.42 1.063.843 1.4.423.33.962.498 1.616.498.4 0 .792-.082 1.175-.238.38-.16.757-.4 1.134-.72l.6.722-2.03 2.38c-.443.153-.875.27-1.293.353-.42.083-.823.125-1.212.125-1.03 0-1.9-.185-2.613-.55-.712-.37-1.228-.847-1.547-1.44-.32-.59-.483-1.48-.483-2.672l.085-4.017v-7.906c-1.066 0-2.17.048-3.31.144v-.896c1.193-.456 2.297-.935 3.31-1.434-.016-1.984-.07-4.134-.17-6.452 1.62-.68 2.783-1.23 3.497-1.644l.545.415c-.113 1.084-.233 3.644-.355 7.68 1.692 0 3.07-.02 4.144-.062l1.66-.083-.23 2.144-.85-.02-3.998.02h-.727M453.02 101.315c.635 0 1.184.234 1.64.7.457.463.687 1.023.687 1.674 0 .65-.23 1.207-.688 1.664-.456.46-1.005.686-1.64.686-.656 0-1.21-.227-1.67-.686-.456-.457-.685-1.013-.685-1.665 0-.652.23-1.212.685-1.676.46-.465 1.014-.7 1.67-.7m1.663 9.222l.498.312c-.098 1.04-.16 2.185-.185 3.435-.1 4.05-.15 7.04-.15 8.968 0 1.805.065 3.345.19 4.62.06.5.188.847.395 1.043.21.194.71.34 1.5.436l1.415.186v1.208c-2.026-.098-3.87-.146-5.534-.146-1.64 0-3.29.048-4.954.146v-1.208l1.79-.187c.69-.056 1.12-.185 1.28-.388.158-.2.26-.872.3-2.012.07-1.766.105-4.2.105-7.302 0-2.158-.035-3.82-.105-4.99-.026-.428-.146-.734-.362-.917-.217-.18-.7-.268-1.447-.268h-1.56v-1.208c1.69-.247 2.934-.473 3.734-.678.8-.208 1.83-.556 3.092-1.05M464.606 119.286c0 2.86.586 5.31 1.76 7.344 1.174 2.034 2.863 3.05 5.07 3.05 1.677 0 3.033-.636 4.067-1.912 1.035-1.28 1.55-3.22 1.55-5.816 0-2.1-.304-3.914-.914-5.45-.614-1.532-1.418-2.652-2.42-3.354-.995-.702-2.115-1.052-3.35-1.052-1.094 0-2.083.278-2.96.835-.883.555-1.535 1.297-1.948 2.23-.57 1.264-.856 2.64-.856 4.126m-3.91 1.467c0-1.914.443-3.645 1.333-5.19.885-1.55 2.13-2.76 3.734-3.633 1.602-.874 3.422-1.31 5.462-1.31 2.958 0 5.324.873 7.098 2.62 1.776 1.75 2.662 4.08 2.662 6.993 0 3.44-1.156 6.175-3.476 8.2-2.065 1.82-4.54 2.728-7.43 2.728-2.772 0-5.03-.934-6.772-2.8-1.74-1.866-2.613-4.4-2.613-7.607M489.976 114.595l3.15-2.79c.375-.333.773-.576 1.185-.727.92-.308 1.836-.46 2.755-.46 1.485 0 2.77.303 3.857.906 1.082.603 1.86 1.387 2.335 2.352.472.964.704 2.473.704 4.527l-.08 6.554c0 2.262.098 3.566.286 3.914.264.445.774.665 1.535.665h1.488v1.21c-1.48-.098-2.76-.147-3.84-.147-1.052 0-2.178.05-3.38.146.262-2.705.395-6.362.395-10.967 0-1.86-.164-3.176-.49-3.956-.33-.775-.878-1.4-1.645-1.87-.775-.473-1.702-.71-2.787-.71-1.35 0-2.49.34-3.43 1.022-.936.678-1.516 1.43-1.742 2.245-.14.542-.208 1.958-.208 4.247 0 2.54.02 4.896.063 7.077.015.652.115 1.063.293 1.23.352.316.92.475 1.72.475h1.484v1.21c-2.35-.098-4.216-.147-5.61-.147-1.475 0-3.15.05-5.027.146v-1.21h1.5c1.027 0 1.626-.238 1.803-.714.168-.478.26-3.358.26-8.637 0-2.37-.032-4.226-.087-5.57-.026-.442-.137-.747-.334-.913-.192-.168-.74-.25-1.643-.25h-1.5v-1.208c1.193-.14 2.257-.327 3.2-.56.937-.238 1.998-.6 3.175-1.084.12-.055.24-.084.35-.084.22 0 .333.16.333.478l-.02.793-.044 2.81M523.586 118.944c-.442-.17-.856-.297-1.242-.372-.388-.086-.76-.12-1.11-.12-.775 0-1.478.13-2.11.4-.177.092-.412.42-.684.99-.546 1.135-1.048 2.586-1.49 4.346-.444 1.758-.67 3.302-.67 4.642 0 .356.055.612.165.764.102.153.226.222.375.222.41 0 1.167-.52 2.252-1.57 1.097-1.052 1.96-2.134 2.584-3.253.845-1.506 1.482-3.522 1.93-6.05m2.293-1.974l.35.224c-.98 3.393-1.738 6.41-2.274 9.04-.305 1.513-.462 2.512-.462 2.982 0 .19.045.34.125.44.08.096.18.145.322.145.33 0 1.077-.476 2.232-1.435l.182.674c-1.08.953-2.115 1.706-3.11 2.272-.487.274-.912.407-1.27.407-.272 0-.47-.08-.6-.234-.128-.156-.193-.406-.193-.76 0-.815.336-2.52 1.007-5.11l-.117-.01c-1.423 2.054-2.928 3.718-4.528 4.986-1.08.862-1.867 1.294-2.37 1.294-.294 0-.535-.15-.697-.45-.257-.46-.382-1.125-.382-1.994 0-1.475.3-3.24.897-5.284.593-2.045 1.202-3.506 1.825-4.376.467-.658 1.386-1.362 2.742-2.11.85-.47 1.738-.703 2.66-.703.398 0 .826.043 1.28.126.456.09.934.22 1.45.397l.93-.524M528.12 120.393l-.237-.624c1.607-1.17 2.876-1.994 3.795-2.474.415-.22.79-.327 1.115-.327.233 0 .41.068.533.204.125.14.19.35.19.635 0 .207-.036.5-.1.878l-1.173 5.184c.863-1.388 1.883-2.633 3.047-3.74 1.163-1.1 2.273-1.906 3.335-2.41 1.056-.507 1.89-.753 2.488-.753.273 0 .485.08.643.253.16.17.24.41.24.72 0 .278-.027.586-.106.912-.092.532-.575 2.56-1.414 6.087-.626 2.608-.945 4.136-.945 4.576 0 .298.156.447.466.447.306 0 .876-.296 1.726-.893l.943-.632.266.6c-2.46 1.9-4.096 2.845-4.904 2.845-.283 0-.505-.1-.67-.298-.178-.192-.263-.466-.263-.815 0-.588.33-2.146.988-4.678.93-3.538 1.398-5.72 1.398-6.547 0-.21-.053-.376-.155-.488-.104-.116-.253-.177-.43-.177-.587 0-1.41.416-2.457 1.246-1.505 1.19-2.68 2.61-3.513 4.267-.837 1.658-1.492 4-1.968 7.04-.55.068-1.267.217-2.134.448l-.244-.258c.733-2.435 1.37-5.052 1.895-7.86.41-2.155.61-3.53.61-4.12 0-.208-.04-.366-.125-.468-.077-.11-.2-.162-.35-.162-.372 0-1.206.458-2.485 1.375M555.362 119.05c-1.086-.528-2.08-.79-2.973-.79-.81 0-1.463.136-1.963.412-.297.172-.582.515-.855 1.036-.605 1.147-1.117 2.57-1.55 4.253-.43 1.69-.647 3.067-.647 4.138 0 .736.06 1.21.184 1.427.126.212.305.323.548.323.606 0 1.38-.372 2.333-1.122 1.294-1.032 2.38-2.38 3.256-4.042.87-1.66 1.428-3.54 1.667-5.635m-1.27-7.862l.085-.618c2.1-.28 3.737-.728 4.916-1.344l.377.327c-.84 3.528-1.904 8.454-3.184 14.784-.583 2.824-.872 4.437-.872 4.838 0 .242.036.406.107.506.07.104.17.155.3.155.45 0 1.294-.49 2.53-1.45l.38.534c-2.444 1.98-4.064 2.965-4.88 2.965-.216 0-.4-.09-.54-.275-.15-.174-.224-.443-.224-.79 0-.34.053-.775.15-1.318.105-.54.418-1.916.934-4.132-1.24 2.03-2.624 3.614-4.17 4.777-1.537 1.162-2.646 1.738-3.334 1.738-.397 0-.723-.21-.968-.63-.323-.53-.48-1.327-.48-2.4 0-2.164.46-4.37 1.377-6.61.67-1.634 1.666-2.92 2.998-3.865 1.326-.94 2.56-1.41 3.716-1.41.636 0 1.438.125 2.393.387l.57-3.49c.18-1.04.276-1.71.276-2.02 0-.26-.092-.426-.264-.498-.236-.098-.967-.15-2.192-.162M333.88 150.435l-.165-3.704c-1.235-.82-2.53-1.43-3.88-1.83-1.355-.403-2.766-.604-4.236-.604-3.75 0-6.746 1.138-9 3.413-2.258 2.272-3.385 5.32-3.385 9.135 0 2.678.573 5.063 1.718 7.158 1.147 2.097 2.772 3.752 4.88 4.976 2.108 1.22 4.338 1.83 6.68 1.83 1.86 0 3.7-.216 5.514-.647 1.363-.318 2.73-.984 4.102-1.998l.434.416c-.29.64-.56 1.286-.81 1.94-1.625.802-3.26 1.41-4.9 1.817-1.645.41-3.3.614-4.964.614-3.415 0-6.415-.656-9-1.975-2.59-1.317-4.58-3.14-5.963-5.464-1.386-2.322-2.08-4.947-2.08-7.876 0-2.926.698-5.545 2.098-7.857 1.404-2.307 3.385-4.097 5.945-5.368 2.56-1.27 5.705-1.904 9.437-1.904 1.957 0 4.244.318 6.867.956 1.306.307 2.365.534 3.185.687-.625 1.484-.986 3.58-1.084 6.285h-1.396M354.817 172.535l.232-3.745-1.226 1.333c-.96 1.04-1.934 1.77-2.924 2.194-.99.423-2.21.636-3.67.636-1.243 0-2.32-.264-3.216-.792-.904-.525-1.554-1.21-1.964-2.05-.41-.838-.614-2.165-.614-3.984 0-.942.022-2.04.063-3.29l.06-3.35c0-2.343-.066-3.647-.195-3.91-.134-.265-.573-.396-1.325-.396h-1.85v-1.145c1.893-.166 3.638-.513 5.238-1.04l1.732-.645c.237 0 .357.173.357.52l-.147 2.12c-.194 2.944-.29 5.675-.29 8.202 0 2.524.104 4.138.31 4.838.21.702.64 1.283 1.308 1.75.668.463 1.476.695 2.43.695 1.29 0 2.467-.415 3.54-1.248 1.077-.834 1.777-1.672 2.11-2.52.178-.483.27-1.946.27-4.39 0-4.106-.075-6.34-.23-6.7-.137-.292-.762-.437-1.875-.437h-1.64v-1.145c1.426-.166 2.642-.363 3.64-.582 1-.222 2.055-.557 3.163-1 .14-.07.265-.103.377-.103.235 0 .35.13.35.395l-.082 1.934c-.21 4.744-.31 8.92-.31 12.53 0 2.024.1 3.18.31 3.474.305.43.966.645 1.98.645h1.206v1.205c-1.733-.098-3.205-.145-4.413-.145-.903 0-1.8.047-2.705.145M371.344 141.63c-.236 4.067-.354 7.744-.354 11.033v10.696c0 4.243.09 6.65.268 7.22.097.29.555.48 1.376.563l1.766.186v1.206c-1.514-.097-2.96-.147-4.34-.147-1.524 0-3.527.05-6 .146v-1.207l1.786-.147c.792-.068 1.243-.27 1.354-.603.18-.54.27-3.002.27-7.388v-10.634l-.02-3.997-.06-2.725c0-.68-.08-1.096-.23-1.25-.225-.22-.687-.333-1.392-.333h-1.71v-1.248c2.893-.263 5.206-.803 6.932-1.624l.354.25M383.184 156.178v8.172c0 2.124.07 3.486.207 4.084.14.6.42 1.064.845 1.396.425.334.96.502 1.612.502.403 0 .795-.08 1.177-.24.38-.162.76-.4 1.133-.72l.604.722-2.026 2.38c-.444.152-.88.27-1.295.354-.423.08-.824.123-1.218.123-1.027 0-1.9-.18-2.607-.55-.714-.367-1.23-.846-1.55-1.436-.323-.587-.48-1.48-.48-2.673l.082-4.016v-7.908c-1.068 0-2.17.048-3.307.147v-.897c1.192-.456 2.294-.937 3.307-1.435-.012-1.983-.072-4.135-.166-6.45 1.615-.68 2.78-1.23 3.494-1.645l.542.415c-.11 1.083-.226 3.643-.352 7.68 1.692 0 3.075-.02 4.142-.062l1.664-.083-.23 2.143-.853-.022-3.995.022h-.728M406.824 172.535l.232-3.745-1.225 1.333c-.956 1.04-1.93 1.77-2.92 2.194-.99.423-2.214.636-3.67.636-1.245 0-2.32-.264-3.22-.792-.9-.525-1.553-1.21-1.96-2.05-.413-.838-.616-2.165-.616-3.984 0-.942.022-2.04.063-3.29l.062-3.35c0-2.343-.07-3.647-.196-3.91-.135-.265-.575-.396-1.324-.396h-1.85v-1.145c1.89-.166 3.635-.513 5.234-1.04l1.737-.645c.234 0 .35.173.35.52l-.142 2.12c-.195 2.944-.294 5.675-.294 8.202 0 2.524.106 4.138.314 4.838.207.702.64 1.283 1.308 1.75.666.463 1.473.695 2.433.695 1.285 0 2.463-.415 3.536-1.248 1.073-.834 1.778-1.672 2.107-2.52.183-.483.273-1.946.273-4.39 0-4.106-.078-6.34-.232-6.7-.14-.292-.763-.437-1.87-.437h-1.643v-1.145c1.43-.166 2.638-.363 3.643-.582.997-.222 2.05-.557 3.16-1 .143-.07.262-.103.378-.103.234 0 .35.13.35.395l-.08 1.934c-.206 4.744-.312 8.92-.312 12.53 0 2.024.106 3.18.312 3.474.306.43.96.645 1.976.645h1.208v1.205c-1.734-.098-3.205-.145-4.414-.145-.9 0-1.804.047-2.706.145M422.934 157.135c.553-.528 1.16-1.22 1.813-2.08.783-1.015 1.5-1.707 2.175-2.08.663-.376 1.367-.564 2.102-.564.766 0 1.35.092 1.756.27.194.088.294.217.294.398l-.02.207c-.228 1.124-.35 2.7-.38 4.726h-.935c-.32-.707-.695-1.207-1.13-1.497-.44-.292-.96-.44-1.566-.44-.818 0-1.575.278-2.274.833-.703.555-1.166 1.33-1.4 2.328-.235.996-.35 2.96-.35 5.88 0 1.93.074 3.55.226 4.86.056.488.193.794.416.916.528.293 1.303.438 2.328.438h1.25v1.207c-2.12-.097-4.13-.146-6.034-.146-1.842 0-3.67.048-5.474.145v-1.207l2-.164c.705-.057 1.155-.19 1.342-.396.187-.208.31-.882.363-2.02.097-2 .147-4.37.147-7.117 0-3.342-.134-5.306-.397-5.89-.182-.372-.75-.56-1.707-.56h-1.748v-1.207c1.347-.154 2.55-.353 3.6-.593 1.055-.242 1.993-.552 2.81-.927.194-.096.357-.145.48-.145.152 0 .258.042.312.125.055.083.086.268.086.565l-.086 4.137M445.83 161.38c-3.86.832-6.31 1.613-7.35 2.337-1.038.728-1.558 1.853-1.558 3.373 0 1.028.295 1.844.892 2.465.594.612 1.367.92 2.31.92 1.04 0 2.035-.29 2.987-.874.952-.577 1.854-1.44 2.72-2.593l-.048-4.607.047-1.02zm-10.97-3.308l.02-1.394-.02-1.438 2.266-1.29c1.026-.582 1.925-.984 2.7-1.205.766-.22 1.586-.334 2.464-.334 1.915 0 3.457.432 4.627 1.293 1.172.858 1.88 1.952 2.114 3.28.166 1 .274 3.476.314 7.422.03 3.73.112 5.786.247 6.175.14.387.49.584 1.042.584h1.624v1.372c-1.58-.097-2.682-.146-3.31-.146-.774 0-1.815.05-3.117.146l.016-1.852c0-.598-.006-1.197-.017-1.807l-4.313 3.284c-.388.293-.77.498-1.143.615-.373.116-.894.178-1.56.178-1.792 0-3.157-.442-4.1-1.318-.94-.88-1.415-2.06-1.415-3.545 0-1.4.335-2.624 1.01-3.666.67-1.044 1.627-1.82 2.87-2.317 1.242-.497 4.122-1.148 8.65-1.955-.034-1.76-.42-3.078-1.17-3.952-.94-1.096-2.286-1.645-4.035-1.645-.668 0-1.293.084-1.875.242-.584.168-1.126.41-1.624.736-.402.992-.77 1.943-1.1 2.852l-1.167-.313M461.498 141.63c-.237 4.067-.354 7.744-.354 11.033v10.696c0 4.243.09 6.65.27 7.22.097.29.557.48 1.374.563l1.768.186v1.206c-1.513-.097-2.96-.147-4.34-.147-1.522 0-3.527.05-6.003.146v-1.207l1.79-.147c.793-.068 1.242-.27 1.353-.603.183-.54.272-3.002.272-7.388v-10.634l-.022-3.997-.062-2.725c0-.68-.076-1.096-.23-1.25-.22-.22-.688-.333-1.394-.333h-1.707v-1.248c2.896-.263 5.207-.803 6.93-1.624l.355.25M492.67 157.51c1.36 1.956 3.05 4.233 5.06 6.827l3.997 5.182c.707.888 1.18 1.39 1.412 1.518.237.126.48.186.73.186h.542v1.312c-1.15-.097-2.16-.146-3.02-.146-.787 0-1.62.05-2.496.146l-7.37-9.95c-1.37-1.83-2.842-3.62-4.407-5.37l.204-.705c.805.07 1.403.105 1.79.105 2.32 0 4.128-.596 5.445-1.79 1.307-1.193 1.96-2.787 1.96-4.787 0-1.79-.553-3.187-1.663-4.192-1.11-1.006-2.712-1.51-4.805-1.51-1.457 0-2.923.273-4.39.81-.172 2.208-.252 4.566-.252 7.078v10.052c0 4.898.117 7.614.355 8.146.232.537 1 .802 2.29.802h1.62v1.312c-2.3-.097-4.21-.146-5.723-.146-1.192 0-3.348.05-6.47.146v-1.312h1.558c1.194 0 1.902-.26 2.122-.782.227-.517.337-3.254.337-8.208v-10.01c0-4.302-.133-6.71-.386-7.222-.262-.513-1.095-.77-2.51-.77h-1.122v-1.31c2.578.097 4.55.145 5.907.145.916 0 2.235-.033 3.954-.103 1.997-.07 3.435-.105 4.31-.105 2.402 0 4.22.252 5.465.758 1.237.507 2.18 1.24 2.827 2.196.645.957.968 2.102.968 3.435 0 1.954-.706 3.68-2.113 5.18-1.408 1.5-3.448 2.526-6.13 3.08M509.926 160.902c2.15.098 4.52.147 7.116.147 1.04 0 2.048-.05 3.018-.148v-1.165c0-1.22-.24-2.38-.726-3.476-.308-.677-.843-1.242-1.6-1.694-.77-.45-1.648-.678-2.648-.678-1.552 0-2.795.568-3.726 1.708-.93 1.138-1.406 2.906-1.434 5.306m-.042 1.562c.07 2.732.772 4.807 2.096 6.22 1.332 1.417 3.08 2.125 5.242 2.125.965 0 1.93-.16 2.884-.477.96-.32 1.905-.8 2.85-1.44l.355.312-.667 1.75c-1.15.665-2.34 1.165-3.562 1.5-1.22.33-2.47.498-3.763.498-2.817 0-5.09-.892-6.817-2.674-1.725-1.785-2.59-4.202-2.59-7.255 0-2.33.485-4.35 1.454-6.056.64-1.125 1.82-2.165 3.537-3.124 1.723-.956 3.4-1.435 5.023-1.435 2.457 0 4.4.724 5.836 2.166 1.432 1.442 2.15 3.462 2.15 6.055l-.04 1.23c-.914.222-1.788.367-2.62.44-1.48.11-3.538.164-6.17.164h-5.196M528.303 166.17v1.357c0 1.085.095 1.764.29 2.028.36.44 1.067.876 2.113 1.296 1.045.418 2.124.624 3.236.624 1.43 0 2.595-.383 3.498-1.158.9-.77 1.35-1.69 1.35-2.76 0-.848-.26-1.526-.79-2.04-.526-.514-1.53-.924-3.018-1.227-2.758-.558-4.586-1.044-5.472-1.46-.886-.42-1.556-.974-2-1.67-.442-.695-.664-1.535-.664-2.52 0-1.844.673-3.346 2.01-4.5 1.34-1.153 3.24-1.73 5.702-1.73 1.943 0 3.88.39 5.816 1.168-.118.943-.218 2.525-.297 4.744h-1.245c-.027-1.22-.158-2.026-.395-2.414-.32-.514-.9-.98-1.746-1.395-.84-.414-1.738-.625-2.695-.625-1.258 0-2.265.323-3.022.974-.75.643-1.133 1.452-1.133 2.423 0 .932.3 1.633.896 2.106.6.487 2.246 1 4.955 1.54 2 .4 3.314.777 3.954 1.125.636.345 1.155.873 1.538 1.58.39.71.584 1.52.584 2.435 0 1.87-.798 3.485-2.403 4.84-1.602 1.364-3.743 2.043-6.422 2.043-1.7 0-3.617-.27-5.74-.798-.375-.1-.564-.244-.564-.438l.063-.292c.056-.205.104-.58.146-1.11.127-1.345.185-2.395.185-3.15l-.017-.996h1.29M548.614 161.076c0 2.864.586 5.314 1.758 7.346 1.173 2.033 2.862 3.052 5.07 3.052 1.68 0 3.033-.638 4.067-1.915 1.03-1.28 1.547-3.22 1.547-5.814 0-2.103-.303-3.916-.908-5.45-.62-1.535-1.42-2.652-2.42-3.354s-2.116-1.053-3.35-1.053c-1.1 0-2.085.276-2.97.833-.878.554-1.53 1.297-1.94 2.23-.573 1.264-.856 2.638-.856 4.123m-3.913 1.47c0-1.915.445-3.645 1.334-5.19.888-1.548 2.132-2.757 3.736-3.633 1.602-.874 3.42-1.312 5.464-1.312 2.955 0 5.32.875 7.095 2.624 1.777 1.75 2.664 4.078 2.664 6.992 0 3.44-1.16 6.174-3.478 8.2-2.067 1.817-4.544 2.727-7.43 2.727-2.775 0-5.03-.934-6.77-2.8-1.744-1.865-2.615-4.4-2.615-7.607M583.954 172.535l.225-3.745-1.225 1.333c-.956 1.04-1.93 1.77-2.917 2.194-.994.423-2.214.636-3.672.636-1.245 0-2.32-.264-3.217-.792-.906-.525-1.557-1.21-1.965-2.05-.406-.838-.616-2.165-.616-3.984 0-.942.022-2.04.06-3.29l.064-3.35c0-2.343-.064-3.647-.198-3.91-.13-.265-.572-.396-1.32-.396h-1.85v-1.145c1.893-.166 3.64-.513 5.235-1.04l1.735-.645c.24 0 .354.173.354.52l-.146 2.12c-.194 2.944-.29 5.675-.29 8.202 0 2.524.104 4.138.312 4.838.207.702.638 1.283 1.307 1.75.663.463 1.472.695 2.43.695 1.288 0 2.467-.415 3.538-1.248 1.076-.834 1.778-1.672 2.108-2.52.182-.483.27-1.946.27-4.39 0-4.106-.07-6.34-.224-6.7-.14-.292-.766-.437-1.873-.437h-1.645v-1.145c1.428-.166 2.643-.363 3.64-.582 1-.222 2.055-.557 3.166-1 .136-.07.263-.103.375-.103.236 0 .353.13.353.395l-.08 1.934c-.212 4.744-.317 8.92-.317 12.53 0 2.024.106 3.18.318 3.474.302.43.958.645 1.972.645h1.208v1.205c-1.733-.098-3.204-.145-4.408-.145-.906 0-1.806.047-2.706.145M600.058 157.135c.558-.528 1.165-1.22 1.818-2.08.78-1.015 1.5-1.707 2.17-2.08.665-.376 1.37-.564 2.105-.564.77 0 1.35.092 1.755.27.195.088.292.217.292.398l-.02.207c-.225 1.124-.346 2.7-.375 4.726h-.938c-.32-.707-.694-1.207-1.13-1.497-.437-.292-.957-.44-1.567-.44-.816 0-1.57.278-2.272.833-.696.555-1.166 1.33-1.397 2.328-.238.996-.354 2.96-.354 5.88 0 1.93.073 3.55.227 4.86.056.488.197.794.42.916.525.293 1.302.438 2.333.438h1.243v1.207c-2.12-.097-4.132-.146-6.032-.146-1.845 0-3.673.048-5.475.145v-1.207l1.996-.164c.71-.057 1.155-.19 1.344-.396.186-.208.31-.882.365-2.02.096-2 .142-4.37.142-7.117 0-3.342-.13-5.306-.392-5.89-.18-.372-.75-.56-1.71-.56h-1.746v-1.207c1.346-.154 2.542-.353 3.6-.593 1.052-.242 1.99-.552 2.81-.927.194-.096.352-.145.476-.145.158 0 .26.042.31.125.06.083.088.268.088.565l-.087 4.137M625.095 169.58l.56.5-.854 1.333c-.936.512-1.91.898-2.91 1.154-1 .257-2.016.386-3.06.386-2.036 0-3.77-.388-5.19-1.164-1.42-.78-2.524-1.904-3.297-3.374-.777-1.47-1.167-3.22-1.167-5.246 0-1.79.3-3.348.894-4.67.595-1.326 1.436-2.364 2.505-3.112 1.076-.75 2.422-1.486 4.03-2.207 1.137-.51 2.407-.77 3.81-.77 1.066 0 1.986.09 2.755.265.77.174 1.6.477 2.485.928-.344 1.833-.532 3.672-.56 5.51h-1.31v-1.04c0-.888-.13-1.515-.382-1.884-.26-.368-.848-.734-1.76-1.094-.915-.36-1.917-.54-2.997-.54-1.872 0-3.317.573-4.33 1.713-1.01 1.144-1.52 2.85-1.52 5.125 0 2.92.753 5.265 2.25 7.02 1.344 1.596 3.08 2.394 5.202 2.394.83 0 1.65-.106 2.455-.316.803-.208 1.602-.512 2.392-.914M632.36 160.902c2.152.098 4.52.147 7.117.147 1.042 0 2.045-.05 3.02-.148v-1.165c0-1.22-.245-2.38-.733-3.476-.302-.677-.837-1.242-1.604-1.694-.762-.45-1.64-.678-2.64-.678-1.55 0-2.795.568-3.72 1.708-.935 1.138-1.41 2.906-1.44 5.306m-.04 1.562c.07 2.732.766 4.807 2.1 6.22 1.322 1.417 3.072 2.125 5.23 2.125.97 0 1.934-.16 2.89-.477.955-.32 1.904-.8 2.85-1.44l.347.312-.662 1.75c-1.153.665-2.338 1.165-3.563 1.5-1.218.33-2.473.498-3.762.498-2.816 0-5.09-.892-6.816-2.674-1.728-1.785-2.592-4.202-2.592-7.255 0-2.33.488-4.35 1.457-6.056.64-1.125 1.815-2.165 3.536-3.124 1.723-.956 3.393-1.435 5.02-1.435 2.45 0 4.4.724 5.833 2.166 1.436 1.442 2.155 3.462 2.155 6.055l-.04 1.23c-.916.222-1.785.367-2.62.44-1.48.11-3.538.164-6.17.164h-5.196M650.736 166.17v1.357c0 1.085.098 1.764.29 2.028.363.44 1.067.876 2.115 1.296 1.046.418 2.123.624 3.235.624 1.43 0 2.596-.383 3.496-1.158.905-.77 1.354-1.69 1.354-2.76 0-.848-.265-1.526-.79-2.04-.528-.514-1.533-.924-3.018-1.227-2.763-.558-4.586-1.044-5.475-1.46-.885-.42-1.554-.974-1.994-1.67-.446-.695-.667-1.535-.667-2.52 0-1.844.67-3.346 2.01-4.5 1.34-1.153 3.24-1.73 5.7-1.73 1.946 0 3.885.39 5.818 1.168-.12.943-.217 2.525-.292 4.744h-1.25c-.027-1.22-.158-2.026-.396-2.414-.315-.514-.896-.98-1.745-1.395-.844-.414-1.74-.625-2.695-.625-1.262 0-2.27.323-3.022.974-.753.643-1.13 1.452-1.13 2.423 0 .932.295 1.633.893 2.106.595.487 2.248 1 4.955 1.54 1.995.4 3.32.777 3.955 1.125.636.345 1.15.873 1.54 1.58.388.71.58 1.52.58 2.435 0 1.87-.8 3.485-2.4 4.84-1.605 1.364-3.746 2.043-6.422 2.043-1.71 0-3.622-.27-5.744-.798-.375-.1-.564-.244-.564-.438l.063-.292c.056-.205.103-.58.146-1.11.12-1.345.186-2.395.186-3.15l-.02-.996h1.29M280.43 208.255v-2.99c0-.323-.105-.948-.313-1.877-.095-.47-.333-.853-.718-1.15-.39-.298-.834-.444-1.334-.444-.742 0-1.307.233-1.707.702-.397.47-.594 1.35-.594 2.645v3.115h4.664zm13.644 7.12h-22.94V203.56c0-2.19.187-3.864.562-5.024.376-1.157 1.075-2.09 2.09-2.8 1.018-.71 2.256-1.065 3.714-1.065 1.276 0 2.372.272 3.296.816.924.544 1.67 1.29 2.246 2.24.365.605.668 1.435.91 2.49.28-.845.56-1.46.842-1.846.19-.26.592-.638 1.21-1.133.615-.497 1.088-.827 1.422-.996l6.648-3.43v8.01l-7.012 3.79c-.907.48-1.495.906-1.766 1.283-.354.51-.532 1.09-.532 1.736v.625h9.31v7.12" fill="#fff" fill-opacity=".9"/><path d="M285.327 177.906l-8.247 2.534 8.248 2.505v-5.04zm4.96-1.47v8.05l3.785 1.118v7.236l-22.938-8.62v-7.735l22.938-8.62v7.423l-3.785 1.148M271.134 165.61v-7.086h17.29V147.46h5.65l-.002 18.15h-22.938M271.134 144.25v-18.995h4.897v11.893h3.648v-11.033h4.677v11.033h4.525V124.91h5.192v19.342h-22.938M271.134 120.81h22.94v-7.105h-22.94v7.104zM285.765 97.087h-4.772V86.13h9.778c1.43 2.1 2.405 3.953 2.92 5.565.517 1.613.776 3.524.776 5.735 0 2.723-.465 4.943-1.394 6.66-.927 1.716-2.31 3.046-4.145 3.99-1.837.944-3.945 1.416-6.322 1.416-2.506 0-4.683-.516-6.535-1.55-1.85-1.033-3.256-2.546-4.216-4.537-.74-1.556-1.11-3.648-1.11-6.276-.002-2.536.227-4.433.686-5.69.46-1.256 1.17-2.3 2.136-3.13.965-.828 2.188-1.45 3.67-1.87l1.222 6.84c-.867.28-1.53.76-1.988 1.433-.46.67-.69 1.53-.69 2.574 0 1.554.54 2.795 1.623 3.717 1.077.922 2.786 1.385 5.122 1.385 2.484 0 4.26-.468 5.32-1.4 1.064-.935 1.6-2.237 1.6-3.905 0-.794-.116-1.55-.347-2.27-.23-.72-.62-1.543-1.173-2.47h-2.16v4.74M271.134 81.893v-7.09h8.03v-7.747h-8.03v-7.12h22.94l-.002 7.12h-9.278v7.747h9.28l-.002 7.09h-22.938M259.135 158.388L0 157.806l.223-98.71 259.133.583-.22 98.708" fill="#fff" fill-opacity=".9"/><path d="M148.058 3.765c3.025 2.022 3.193 6.94 8.078 7.375 4.21 2.46 0 6.66 3.195 9.252 1.347-3.036.344-7.665 4.042-9.252 2.02 1.446 6.228-.288 6.902 2.744 2.19-1.44 5.212-.432 7.235 1.02.506.428.506 1.002 1.18 1.445-.337 2.746-9.262 2.31-3.706 5.787 2.857 2.89-4.205 2.165-2.686 5.64 4.2-.15 3.865 4.192 6.726 5.205-.168 1.877-1.855 4.924.502 6.223 4.55 2.02 1.515-3.616 4.04-5.208 3.37-1.446-.5-3.186.838-5.938 4.045-1.15 8.087-3.473 12.46-3.034 1.01 4.05 7.914 1.736 6.904 6.216-1.52 1.163-3.71 1.593-3.198 3.763 1.678.725 4.71 1.157 4.71 3.474-1.512 8.384 12.115 12.01 7.74 20.824-1.682.586-4.036.147-4.884 1.74-.67 1.45 1.515 1.6 2.022 2.465.168 2.454.337 5.785-3.193 5.926-.845-.724-1.35 0-2.025.29 2.19 1.45 2.69 4.34 1.18 6.22-4.037 1.74-11.104-2.022-10.44 4.193 1.348-.284 3.54 2.027 5.224.43 5.216 4.494 2.864-3.898 7.745-3.173.334-3.042 1.845-4.927 5.208-5.937 3.876.435 4.887 4.486 8.922 4.92 2.525 1.154 0 3.04 0 4.48-1.01.44-2.19.44-2.86 1.45 3.54 1.88 1.68 6.65 1.518 9.693 3.023-2.17 6.053.58 6.557 3.474-2.182 3.903 2.526 8.532-.837 12.435 1.34 1.452 2.188 3.622 1.17 5.643-.333 3.184-8.408 3.616-3.528 7.53.674 3.037-4.54 2.595-3.7 5.924-2.527 1.306-6.225 3.763-9.762 1.736-.843 1.013.166 2.75-.674 3.906-2.36 1.448-5.22 0-7.74 0-3.2-4.633-12.793 3.47-10.433-4.916-1.52-1.02-3.364-1.16-4.04.72-1.01 4.335 7.74 3.764 4.375 8.97-2.356 1.587-5.22-1.59-6.392.436 0 1.807-2.738 5.387-6.125 8.676-3.388 3.29-13.57 5.64-14.58 4.05-1.683-3.186 3.7-7.957-1.513-9.69-2.19 1.733-5.554 1.444-6.566-1.014.504-3.763-1.85-5.208-5.22-2.743-1.684 1.154-4.71 2.024-5.216-.435-1.848-3.766 3.87-6.655 2.362-9.988-7.407 2.466-13.806 6.51-19.022 12.154-3.53 18.38-.17 37.466.506 56.564 8.583 5.782 21.204 4.767 31.468 4.918.676.574 1.178 1.878-.332 2.024-12.12.435-23.737 1.307-36.018 2.46-.338 4.193-13.798 1.593-5.722 4.773v1.446c-6.564.87-12.79 4.34-18.848 1.01-3.028-.87-5.89 2.313-7.74-.29 1.176-2.895 7.74 0 5.216-3.902-3.533.286-3.367-2.896-3.2-4.776-8.752.287-16.152-.722-25.41-.44-.34-.57.502-.86.336-1.294 12.454-1.886 27.77-.148 39.55-4.195.506-13.746 1.007-27.338-.338-41.666-4.38-9.83-14.81-16.778-23.056-24.293-1.35-1.306-2.02-6.226-3.2-2.027-5.55-1.165-3.538 9.11-5.214 9.98-1.18.29-4.04 4.342-5.722 6.653-2.697 1.01-5.388 1.01-8.08 0-.836-2.31-2.857-1.303-4.88-1.015-2.104-1.625-3.114-3.488-3.624-5.44-1.533-5.86 1.43-12.532-7.152-16.11-1.675-.583-3.533-2.165-5.38 0-4.374-2.165-1.012-6.945-5.22-9.695-.505.438-1.177.438-1.512 1.014-3.708-.577.503-4.198-3.708-4.92-3.023-.433-7.233 4.19-9.758 0-.165-3.33-2.02-4.34-5.555-3.76-4.71-3.036 6.568-7.377-2.52-6.948-1.182-1.295-2.524-3.465-2.02-5.205 6.06-1.298-.335-10.99 7.406-6.22 3.534-.428 0-3.037.67-4.915 1.346-4.485 5.048-7.528 10.604-6.656 1.852 1.3-.5 2.89.84 4.193 2.693-.573 3.202-3.76 6.735-3.033 3.7 1.158 9.59 1.158 8.586 6.212 2.35.58 4.205-1.73 6.897-1.44 1.18 0 2.864 0 3.196-1.31-5.55-.714 3.708-8.526-3.196-4.624-3.363-.14-1.345-8.244-6.56-3.755-2.527-.583-4.55-3.768-5.558-6.226.506-2.024-1.013-2.455-2.527-3.183-.503-2.75.842-6.65.51-8.97 1.173-4.335 7.738-4.48 7.238-8.674-.84-2.025 1.346-3.185 2.857-4.2 3.702.726 1.01-4.192 2.36-5.93-.34-3.037 3.865-2.897 5.216-4.482 1.847.577 3.025 1.585 3.7 3.183-1.175 2.455-5.383 5.208-2.015 7.955 1.515-4.486 6.392-.437 9.59-.725 2.357 7.518 5.888-6.65 8.584 2.024 1.85 3.767 4.375-1.01 6.895-1.01 0-1.59 1.685-3.47 0-4.774-3.193-2.17-10.27-.867-8.075-6.365-2.36 5.067-6.897 0-10.602-.576-2.02-1.88-1.517-4.912 1.684-5.647 2.02-2.6 7.913-1.876 5.548-6.21 1.35-1.598 3.036-1.303 4.55-.295 0-1.733-.504-4.335 2.355-5.206 7.235-3.904 3.7 7.086 9.76 2.75-1.68-.87-2.02-3.04-.845-4.486 2.365-3.76 6.23-3.04 10.104-4.634 3.365 3.04 10.765 2.17 11.776 7.67-4.873 5.355 6.06 9.695 0 14.615 1.353 0 3.704-.148 5.22-1.014-1.01-2.32-.17-4.78 2.017-6.216 1.516-.148 3.365.144 4.882-.436-.333-2.894-7.574-2.028-3.704-5.94 2.86-.717 1.18-3.894 2.86-5.487 2.19-5.932 9.093-1.74 11.615-6.947 2.356.29 1.345 2.895 3.363 3.756 1.523-2.02 0-5.78 3.538-6.504 3.53-.147 2.69 4.347 6.564 3.763" fill="#57ac35"/><path d="M130.554 86.796c-1.518 2.023-3.704 3.47-6.06 5.5 0-3.335-5.048-7.817-.338-11.144 3.2-1.88.507-4.48 3.707-6.51 1.515 3.764-1.852 9.26 2.69 12.154M118.098 85.78c-.5 3.33 1.348 8.104-1.682 9.984-.84-2.602.165-7.378-.673-9.985h2.355M136.61 90.99c-5.215.44-1.174 5.206-4.373 6.22-4.373 3.468 1.18 6.8 1.18 10.42-1.687.86-4.04 2.02-4.883 4.19.336 1.877 1.01 3.913 3.37 4.778 3.697.428 6.896-3.763 10.432-1.02-1.517 1.448-3.7 3.615-1.685 5.506 1.18 1.735 3.88 2.454 5.385 1.152.17-1.008 1.347-1.303 2.357-1.448 2.19 4.484-4.876 2.75-6.9 4.484-1.176 2.175-4.543-.725-6.056 1.738-1.85 2.174-4.55 3.477-7.572 3.477.166-12.438-5.05-29.368 4.373-39.93 1.18-1.308 4.54-8.1 5.215-2.022.34.87-.336 1.586-.843 2.454M112.38 100.977c1.01 3.322 1.85 6.936.84 10.413-2.354 1.3-.165-2.463-2.02-3.04 1.346-1.735 1.007-3.325.502-5.203-2.856-.872-1.343-2.17.678-2.17M105.642 113.84c9.26 7.094 7.073 19.824 8.08 29.517-4.037-3.332-9.425-7.09-12.956-10.417.842-2.603 7.068-5.493 2.356-8.676.17-3.33 1.005-8.1-2.02-10.424 2.02-.863 3.025 2.028 4.54 0" fill="#fff" fill-opacity=".9"/><path d="M124.495 174.31v13.166-13.167M112.015 193.966c-.41 6.23-9.383 6.915-13.845 8.654M126.724 174.61c0 18.17-2.164 23.792-2.164 23.792l-4.326-1.295 1.302-22.497h5.188" fill="#57ac35"/></svg>